IOTA-outline.ufo
<glyph name="exclam" format="2">
	<advance width="253"/>
	<unicode hex="0021"/>
	<outline>
		<contour>
			<point x="181" y="224" type="line"/>
			<point x="160" y="246"/>
			<point x="140" y="264"/>
			<point x="129" y="291" type="curve" smooth="yes"/>
			<point x="104" y="354"/>
			<point x="110" y="423"/>
			<point x="116" y="494" type="curve" smooth="yes"/>
			<point x="120" y="545"/>
			<point x="125" y="597"/>
			<point x="117" y="647" type="curve" smooth="yes"/>
			<point x="106" y="709"/>
			<point x="79" y="763"/>
			<point x="43" y="790" type="curve"/>
			<point x="25" y="766" type="line"/>
			<point x="55" y="743"/>
			<point x="78" y="697"/>
			<point x="87" y="642" type="curve" smooth="yes"/>
			<point x="106" y="531"/>
			<point x="53" y="399"/>
			<point x="102" y="280" type="curve" smooth="yes"/>
			<point x="114" y="247"/>
			<point x="139" y="224"/>
			<point x="159" y="203" type="curve"/>
		</contour>
		<contour>
			<point x="106" y="0" type="line"/>
			<point x="170" y="18"/>
			<point x="204" y="89"/>
			<point x="181" y="160" type="curve"/>
			<point x="68" y="160" type="line"/>
			<point x="68" y="130" type="line"/>
			<point x="158" y="130" type="line"/>
			<point x="164" y="83"/>
			<point x="140" y="41"/>
			<point x="98" y="29" type="curve"/>
		</contour>
	</outline>
</glyph>
<glyph name="quotedbl" format="2">
	<advance width="367"/>
	<unicode hex="0022"/>
	<outline>
		<contour>
			<point x="61" y="474" type="line"/>
			<point x="129" y="570"/>
			<point x="153" y="680"/>
			<point x="129" y="790" type="curve"/>
			<point x="15" y="790" type="line"/>
			<point x="15" y="760" type="line"/>
			<point x="104" y="760" type="line"/>
			<point x="119" y="666"/>
			<point x="96" y="574"/>
			<point x="36" y="491" type="curve"/>
		</contour>
		<contour>
			<point x="225" y="474" type="line"/>
			<point x="293" y="570"/>
			<point x="317" y="680"/>
			<point x="293" y="790" type="curve"/>
			<point x="179" y="790" type="line"/>
			<point x="179" y="760" type="line"/>
			<point x="268" y="760" type="line"/>
			<point x="283" y="666"/>
			<point x="260" y="574"/>
			<point x="200" y="491" type="curve"/>
		</contour>
	</outline>
</glyph>
<glyph name="numbersign" format="2">
	<advance width="646"/>
	<unicode hex="0023"/>
	<outline>
		<contour>
			<point x="125" y="0" type="line"/>
			<point x="239" y="695" type="line"/>
			<point x="210" y="700" type="line"/>
			<point x="96" y="5" type="line"/>
		</contour>
		<contour>
			<point x="411" y="0" type="line"/>
			<point x="525" y="695" type="line"/>
			<point x="495" y="700" type="line"/>
			<point x="381" y="5" type="line"/>
		</contour>
		<contour>
			<point x="601" y="497" type="line"/>
			<point x="70" y="497" type="line"/>
			<point x="70" y="467" type="line"/>
			<point x="601" y="467" type="line"/>
		</contour>
		<contour>
			<point x="556" y="223" type="line"/>
			<point x="25" y="223" type="line"/>
			<point x="25" y="193" type="line"/>
			<point x="556" y="193" type="line"/>
		</contour>
	</outline>
</glyph>
<glyph name="dollar" format="2">
	<advance width="688"/>
	<unicode hex="0024"/>
	<outline>
		<contour>
			<point x="35" y="139" type="line"/>
			<point x="125" y="58"/>
			<point x="217" y="13"/>
			<point x="319" y="0" type="curve" smooth="yes"/>
			<point x="516" y="-26"/>
			<point x="663" y="61"/>
			<point x="647" y="199" type="curve" smooth="yes"/>
			<point x="631" y="334"/>
			<point x="461" y="353"/>
			<point x="323" y="368" type="curve" smooth="yes"/>
			<point x="214" y="379"/>
			<point x="102" y="413"/>
			<point x="94" y="503" type="curve" smooth="yes"/>
			<point x="86" y="596"/>
			<point x="188" y="671"/>
			<point x="321" y="670" type="curve" smooth="yes"/>
			<point x="414" y="669"/>
			<point x="508" y="635"/>
			<point x="589" y="574" type="curve"/>
			<point x="607" y="598" type="line"/>
			<point x="522" y="663"/>
			<point x="421" y="699"/>
			<point x="321" y="700" type="curve" smooth="yes"/>
			<point x="170" y="701"/>
			<point x="54" y="613"/>
			<point x="64" y="500" type="curve" smooth="yes"/>
			<point x="72" y="410"/>
			<point x="162" y="354"/>
			<point x="320" y="338" type="curve" smooth="yes"/>
			<point x="458" y="323"/>
			<point x="604" y="307"/>
			<point x="617" y="195" type="curve" smooth="yes"/>
			<point x="631" y="80"/>
			<point x="500" y="6"/>
			<point x="323" y="30" type="curve" smooth="yes"/>
			<point x="227" y="42"/>
			<point x="140" y="84"/>
			<point x="55" y="161" type="curve"/>
		</contour>
		<contour>
			<point x="371" y="-147" type="line"/>
			<point x="371" y="805" type="line"/>
			<point x="341" y="805" type="line"/>
			<point x="341" y="-147" type="line"/>
		</contour>
	</outline>
</glyph>
<glyph name="ampersand" format="2">
	<advance width="735"/>
	<unicode hex="0026"/>
	<outline>
		<contour>
			<point x="730" y="15" type="line"/>
			<point x="647" y="15"/>
			<point x="605" y="95"/>
			<point x="605" y="260" type="curve"/>
			<point x="575" y="262" type="line"/>
			<point x="557" y="107"/>
			<point x="450" y="15"/>
			<point x="288" y="15" type="curve" smooth="yes"/>
			<point x="163" y="15"/>
			<point x="65" y="92"/>
			<point x="65" y="189" type="curve" smooth="yes"/>
			<point x="65" y="281"/>
			<point x="150" y="338"/>
			<point x="333" y="370" type="curve" smooth="yes"/>
			<point x="497" y="399"/>
			<point x="580" y="455"/>
			<point x="580" y="540" type="curve" smooth="yes"/>
			<point x="580" y="646"/>
			<point x="481" y="715"/>
			<point x="330" y="715" type="curve" smooth="yes"/>
			<point x="177" y="715"/>
			<point x="70" y="641"/>
			<point x="70" y="532" type="curve" smooth="yes"/>
			<point x="70" y="438"/>
			<point x="183" y="370"/>
			<point x="330" y="370" type="curve"/>
			<point x="330" y="400" type="line"/>
			<point x="201" y="400"/>
			<point x="100" y="457"/>
			<point x="100" y="532" type="curve" smooth="yes"/>
			<point x="100" y="623"/>
			<point x="194" y="685"/>
			<point x="330" y="685" type="curve" smooth="yes"/>
			<point x="464" y="685"/>
			<point x="550" y="628"/>
			<point x="550" y="540" type="curve" smooth="yes"/>
			<point x="550" y="473"/>
			<point x="477" y="426"/>
			<point x="327" y="400" type="curve" smooth="yes"/>
			<point x="131" y="365"/>
			<point x="35" y="299"/>
			<point x="35" y="189" type="curve" smooth="yes"/>
			<point x="35" y="74"/>
			<point x="147" y="-15"/>
			<point x="288" y="-15" type="curve" smooth="yes"/>
			<point x="430" y="-15"/>
			<point x="534" y="51"/>
			<point x="581" y="164" type="curve"/>
			<point x="597" y="46"/>
			<point x="647" y="-15"/>
			<point x="730" y="-15" type="curve"/>
		</contour>
	</outline>
</glyph>
<glyph name="quotesingle" format="2">
	<advance width="203"/>
	<unicode hex="0027"/>
	<outline>
		<contour>
			<point x="61" y="474" type="line"/>
			<point x="129" y="570"/>
			<point x="153" y="680"/>
			<point x="129" y="790" type="curve"/>
			<point x="15" y="790" type="line"/>
			<point x="15" y="760" type="line"/>
			<point x="104" y="760" type="line"/>
			<point x="119" y="666"/>
			<point x="96" y="574"/>
			<point x="36" y="491" type="curve"/>
		</contour>
	</outline>
</glyph>
<glyph name="parenleft" format="2">
	<advance width="378"/>
	<unicode hex="0028"/>
	<outline>
		<contour>
			<point x="278" y="-273" type="line"/>
			<point x="169" y="-125"/>
			<point x="110" y="58"/>
			<point x="110" y="246" type="curve" smooth="yes"/>
			<point x="110" y="440"/>
			<point x="168" y="623"/>
			<point x="278" y="772" type="curve"/>
			<point x="254" y="790" type="line"/>
			<point x="141" y="636"/>
			<point x="80" y="446"/>
			<point x="80" y="246" type="curve" smooth="yes"/>
			<point x="80" y="52"/>
			<point x="141" y="-138"/>
			<point x="254" y="-290" type="curve"/>
		</contour>
	</outline>
</glyph>
<glyph name="parenright" format="2">
	<advance width="378"/>
	<unicode hex="0029"/>
	<outline>
		<contour>
			<point x="100" y="-273" type="curve"/>
			<point x="124" y="-290" type="line"/>
			<point x="237" y="-138"/>
			<point x="298" y="52"/>
			<point x="298" y="246" type="curve" smooth="yes"/>
			<point x="298" y="446"/>
			<point x="237" y="636"/>
			<point x="124" y="790" type="curve"/>
			<point x="100" y="772" type="line"/>
			<point x="210" y="623"/>
			<point x="268" y="440"/>
			<point x="268" y="246" type="curve" smooth="yes"/>
			<point x="268" y="58"/>
			<point x="209" y="-125"/>
		</contour>
	</outline>
</glyph>
<glyph name="asterisk" format="2">
	<advance width="559"/>
	<unicode hex="002A"/>
	<outline>
		<contour>
			<point x="45" y="697" type="line"/>
			<point x="88" y="660"/>
			<point x="139" y="633"/>
			<point x="194" y="616" type="curve"/>
			<point x="77" y="397" type="line"/>
			<point x="98" y="377" type="line"/>
			<point x="314" y="511" type="line"/>
			<point x="338" y="427"/>
			<point x="377" y="347"/>
			<point x="429" y="277" type="curve"/>
			<point x="453" y="295" type="line"/>
			<point x="401" y="365"/>
			<point x="363" y="444"/>
			<point x="340" y="528" type="curve"/>
			<point x="516" y="637" type="line"/>
			<point x="518" y="638" type="line"/>
			<point x="519" y="639" type="line"/>
			<point x="505" y="666" type="line"/>
			<point x="446" y="639"/>
			<point x="383" y="626"/>
			<point x="320" y="627" type="curve"/>
			<point x="313" y="678"/>
			<point x="312" y="730"/>
			<point x="316" y="782" type="curve"/>
			<point x="287" y="790" type="line"/>
			<point x="208" y="643" type="line"/>
			<point x="156" y="658"/>
			<point x="106" y="684"/>
			<point x="65" y="720" type="curve"/>
		</contour>
		<contour>
			<point x="130" y="433" type="line"/>
			<point x="224" y="608" type="line"/>
			<point x="247" y="603"/>
			<point x="270" y="599"/>
			<point x="294" y="598" type="curve"/>
			<point x="297" y="579"/>
			<point x="301" y="560"/>
			<point x="306" y="542" type="curve"/>
		</contour>
		<contour>
			<point x="238" y="635" type="curve"/>
			<point x="284" y="720" type="line"/>
			<point x="284" y="689"/>
			<point x="286" y="658"/>
			<point x="290" y="628" type="curve"/>
			<point x="273" y="629"/>
			<point x="255" y="632"/>
		</contour>
		<contour>
			<point x="325" y="597" type="curve"/>
			<point x="351" y="596"/>
			<point x="377" y="599"/>
			<point x="403" y="603" type="curve"/>
			<point x="332" y="559" type="line"/>
			<point x="329" y="571"/>
			<point x="327" y="584"/>
		</contour>
	</outline>
</glyph>
<glyph name="plus" format="2">
	<advance width="520"/>
	<unicode hex="002B"/>
	<outline>
		<contour>
			<point x="270" y="36" type="line"/>
			<point x="270" y="464" type="line"/>
			<point x="240" y="464" type="line"/>
			<point x="240" y="36" type="line"/>
		</contour>
		<contour>
			<point x="465" y="265" type="line"/>
			<point x="45" y="265" type="line"/>
			<point x="45" y="235" type="line"/>
			<point x="465" y="235" type="line"/>
		</contour>
	</outline>
</glyph>
<glyph name="comma" format="2">
	<advance width="253"/>
	<unicode hex="002C"/>
	<outline>
		<contour>
			<point x="111" y="-256" type="line"/>
			<point x="179" y="-160"/>
			<point x="203" y="-50"/>
			<point x="179" y="60" type="curve"/>
			<point x="65" y="60" type="line"/>
			<point x="65" y="30" type="line"/>
			<point x="154" y="30" type="line"/>
			<point x="169" y="-64"/>
			<point x="146" y="-156"/>
			<point x="86" y="-239" type="curve"/>
		</contour>
	</outline>
</glyph>
<glyph name="hyphen" format="2">
	<advance width="370"/>
	<unicode hex="002D"/>
	<outline>
		<contour>
			<point x="310" y="280" type="line"/>
			<point x="60" y="280" type="line"/>
			<point x="60" y="250" type="line"/>
			<point x="310" y="250" type="line"/>
		</contour>
	</outline>
</glyph>
<glyph name="period" format="2">
	<advance width="270"/>
	<unicode hex="002E"/>
	<outline>
		<contour>
			<point x="103" y="-100" type="line"/>
			<point x="167" y="-82"/>
			<point x="201" y="-11"/>
			<point x="178" y="60" type="curve"/>
			<point x="65" y="60" type="line"/>
			<point x="65" y="30" type="line"/>
			<point x="155" y="30" type="line"/>
			<point x="161" y="-17"/>
			<point x="137" y="-59"/>
			<point x="95" y="-71" type="curve"/>
		</contour>
	</outline>
</glyph>
<glyph name="slash" format="2">
	<advance width="370"/>
	<unicode hex="002F"/>
	<outline>
		<contour>
			<point x="114" y="-200" type="line"/>
			<point x="305" y="784" type="line"/>
			<point x="276" y="790" type="line"/>
			<point x="85" y="-194" type="line"/>
		</contour>
	</outline>
</glyph>
<glyph name="zero" format="2">
	<advance width="602"/>
	<unicode hex="0030"/>
	<outline>
		<contour>
			<point x="301" y="700" type="curve" smooth="yes"/>
			<point x="153" y="700"/>
			<point x="45" y="550"/>
			<point x="45" y="350" type="curve" smooth="yes"/>
			<point x="45" y="153"/>
			<point x="155" y="0"/>
			<point x="301" y="0" type="curve" smooth="yes"/>
			<point x="451" y="0"/>
			<point x="557" y="148"/>
			<point x="557" y="350" type="curve" smooth="yes"/>
			<point x="557" y="556"/>
			<point x="453" y="700"/>
		</contour>
		<contour>
			<point x="301" y="670" type="curve" smooth="yes"/>
			<point x="435" y="670"/>
			<point x="527" y="539"/>
			<point x="527" y="350" type="curve" smooth="yes"/>
			<point x="527" y="164"/>
			<point x="433" y="30"/>
			<point x="301" y="30" type="curve" smooth="yes"/>
			<point x="172" y="30"/>
			<point x="75" y="169"/>
			<point x="75" y="350" type="curve" smooth="yes"/>
			<point x="75" y="534"/>
			<point x="170" y="670"/>
		</contour>
	</outline>
</glyph>
<glyph name="one" format="2">
	<advance width="434"/>
	<unicode hex="0031"/>
	<outline>
		<contour>
			<point x="99" y="0" type="line"/>
			<point x="409" y="0" type="line"/>
			<point x="379" y="32"/>
			<point x="349" y="54"/>
			<point x="332" y="89" type="curve" smooth="yes"/>
			<point x="292" y="169"/>
			<point x="304" y="256"/>
			<point x="316" y="347" type="curve" smooth="yes"/>
			<point x="325" y="416"/>
			<point x="334" y="488"/>
			<point x="319" y="558" type="curve" smooth="yes"/>
			<point x="306" y="622"/>
			<point x="276" y="676"/>
			<point x="236" y="710" type="curve"/>
			<point x="20" y="490" type="line"/>
			<point x="41" y="469" type="line"/>
			<point x="236" y="668" type="line"/>
			<point x="261" y="638"/>
			<point x="280" y="598"/>
			<point x="290" y="552" type="curve" smooth="yes"/>
			<point x="322" y="404"/>
			<point x="230" y="228"/>
			<point x="305" y="76" type="curve" smooth="yes"/>
			<point x="314" y="58"/>
			<point x="325" y="43"/>
			<point x="338" y="30" type="curve"/>
			<point x="99" y="30" type="line"/>
		</contour>
	</outline>
</glyph>
<glyph name="two" format="2">
	<advance width="611"/>
	<unicode hex="0032"/>
	<outline>
		<contour>
			<point x="556" y="151" type="line"/>
			<point x="550" y="88"/>
			<point x="491" y="30"/>
			<point x="433" y="30" type="curve" smooth="yes"/>
			<point x="79" y="30" type="line"/>
			<point x="130" y="120"/>
			<point x="204" y="200"/>
			<point x="304" y="271" type="curve" smooth="yes"/>
			<point x="395" y="335"/>
			<point x="510" y="401"/>
			<point x="517" y="517" type="curve" smooth="yes"/>
			<point x="524" y="617"/>
			<point x="421" y="700"/>
			<point x="295" y="700" type="curve" smooth="yes"/>
			<point x="184" y="700"/>
			<point x="90" y="648"/>
			<point x="41" y="557" type="curve"/>
			<point x="67" y="543" type="line"/>
			<point x="112" y="624"/>
			<point x="194" y="670"/>
			<point x="295" y="670" type="curve" smooth="yes"/>
			<point x="404" y="670"/>
			<point x="493" y="601"/>
			<point x="487" y="519" type="curve" smooth="yes"/>
			<point x="481" y="419"/>
			<point x="378" y="361"/>
			<point x="287" y="295" type="curve" smooth="yes"/>
			<point x="167" y="210"/>
			<point x="83" y="113"/>
			<point x="30" y="0" type="curve"/>
			<point x="433" y="0" type="line" smooth="yes"/>
			<point x="507" y="0"/>
			<point x="578" y="69"/>
			<point x="586" y="148" type="curve"/>
		</contour>
	</outline>
</glyph>
<glyph name="three" format="2">
	<advance width="533"/>
	<unicode hex="0033"/>
	<outline>
		<contour>
			<point x="25" y="105" type="line"/>
			<point x="89" y="36"/>
			<point x="175" y="0"/>
			<point x="277" y="0" type="curve" smooth="yes"/>
			<point x="394" y="0"/>
			<point x="498" y="85"/>
			<point x="498" y="183" type="curve" smooth="yes"/>
			<point x="498" y="318"/>
			<point x="360" y="399"/>
			<point x="139" y="399" type="curve"/>
			<point x="139" y="369" type="line"/>
			<point x="346" y="369"/>
			<point x="470" y="436"/>
			<point x="464" y="552" type="curve" smooth="yes"/>
			<point x="457" y="647"/>
			<point x="364" y="708"/>
			<point x="241" y="700" type="curve" smooth="yes"/>
			<point x="155" y="693"/>
			<point x="82" y="658"/>
			<point x="25" y="595" type="curve"/>
			<point x="47" y="575" type="line"/>
			<point x="100" y="632"/>
			<point x="164" y="664"/>
			<point x="243" y="670" type="curve" smooth="yes"/>
			<point x="349" y="677"/>
			<point x="428" y="627"/>
			<point x="434" y="550" type="curve" smooth="yes"/>
			<point x="440" y="435"/>
			<point x="289" y="399"/>
			<point x="139" y="399" type="curve"/>
			<point x="139" y="369" type="line"/>
			<point x="344" y="369"/>
			<point x="468" y="298"/>
			<point x="468" y="183" type="curve" smooth="yes"/>
			<point x="468" y="102"/>
			<point x="378" y="30"/>
			<point x="277" y="30" type="curve" smooth="yes"/>
			<point x="183" y="30"/>
			<point x="105" y="62"/>
			<point x="47" y="125" type="curve"/>
		</contour>
	</outline>
</glyph>
<glyph name="four" format="2">
	<advance width="529"/>
	<unicode hex="0034"/>
	<outline>
		<contour>
			<point x="453" y="227" type="line"/>
			<point x="60" y="227" type="line"/>
			<point x="192" y="694" type="line"/>
			<point x="163" y="702" type="line"/>
			<point x="20" y="197" type="line"/>
			<point x="453" y="197" type="line"/>
		</contour>
		<contour>
			<point x="509" y="30" type="line"/>
			<point x="491" y="31"/>
			<point x="475" y="48"/>
			<point x="468" y="76" type="curve" smooth="yes"/>
			<point x="460" y="106"/>
			<point x="463" y="136"/>
			<point x="466" y="166" type="curve" smooth="yes"/>
			<point x="467" y="182"/>
			<point x="469" y="197"/>
			<point x="468" y="212" type="curve" smooth="yes"/>
			<point x="467" y="272"/>
			<point x="446" y="325"/>
			<point x="409" y="363" type="curve"/>
			<point x="388" y="342" type="line"/>
			<point x="420" y="309"/>
			<point x="437" y="264"/>
			<point x="438" y="212" type="curve" smooth="yes"/>
			<point x="439" y="171"/>
			<point x="425" y="120"/>
			<point x="439" y="68" type="curve" smooth="yes"/>
			<point x="449" y="28"/>
			<point x="476" y="1"/>
			<point x="508" y="0" type="curve"/>
		</contour>
	</outline>
</glyph>
<glyph name="five" format="2">
	<advance width="572"/>
	<unicode hex="0035"/>
	<outline>
		<contour>
			<point x="29" y="105" type="line"/>
			<point x="91" y="38"/>
			<point x="183" y="0"/>
			<point x="281" y="0" type="curve" smooth="yes"/>
			<point x="417" y="0"/>
			<point x="532" y="96"/>
			<point x="537" y="215" type="curve" smooth="yes"/>
			<point x="543" y="345"/>
			<point x="434" y="451"/>
			<point x="282" y="465" type="curve" smooth="yes"/>
			<point x="201" y="473"/>
			<point x="120" y="454"/>
			<point x="55" y="412" type="curve"/>
			<point x="55" y="670" type="line"/>
			<point x="488" y="670" type="line"/>
			<point x="488" y="700" type="line"/>
			<point x="25" y="700" type="line"/>
			<point x="25" y="351" type="line"/>
			<point x="88" y="413"/>
			<point x="184" y="444"/>
			<point x="280" y="436" type="curve" smooth="yes"/>
			<point x="416" y="423"/>
			<point x="513" y="330"/>
			<point x="507" y="217" type="curve" smooth="yes"/>
			<point x="503" y="114"/>
			<point x="401" y="30"/>
			<point x="281" y="30" type="curve" smooth="yes"/>
			<point x="191" y="30"/>
			<point x="107" y="64"/>
			<point x="51" y="125" type="curve"/>
		</contour>
	</outline>
</glyph>
<glyph name="six" format="2">
	<advance width="554"/>
	<unicode hex="0036"/>
	<outline>
		<contour>
			<point x="81" y="250" type="line"/>
			<point x="114" y="345"/>
			<point x="205" y="411"/>
			<point x="301" y="411" type="curve" smooth="yes"/>
			<point x="399" y="411"/>
			<point x="479" y="345"/>
			<point x="492" y="253" type="curve" smooth="yes"/>
			<point x="509" y="135"/>
			<point x="419" y="30"/>
			<point x="301" y="30" type="curve" smooth="yes"/>
			<point x="164" y="30"/>
			<point x="75" y="158"/>
			<point x="75" y="317" type="curve" smooth="yes"/>
			<point x="75" y="507"/>
			<point x="147" y="639"/>
			<point x="270" y="671" type="curve" smooth="yes"/>
			<point x="341" y="689"/>
			<point x="417" y="665"/>
			<point x="461" y="611" type="curve"/>
			<point x="484" y="630" type="line"/>
			<point x="433" y="693"/>
			<point x="345" y="721"/>
			<point x="263" y="700" type="curve" smooth="yes"/>
			<point x="126" y="665"/>
			<point x="45" y="520"/>
			<point x="45" y="317" type="curve" smooth="yes"/>
			<point x="45" y="141"/>
			<point x="147" y="0"/>
			<point x="301" y="0" type="curve" smooth="yes"/>
			<point x="437" y="0"/>
			<point x="542" y="121"/>
			<point x="522" y="257" type="curve" smooth="yes"/>
			<point x="507" y="364"/>
			<point x="414" y="441"/>
			<point x="301" y="441" type="curve" smooth="yes"/>
			<point x="192" y="441"/>
			<point x="90" y="367"/>
			<point x="52" y="260" type="curve"/>
		</contour>
	</outline>
</glyph>
<glyph name="seven" format="2">
	<advance width="521"/>
	<unicode hex="0037"/>
	<outline>
		<contour>
			<point x="212" y="3" type="line"/>
			<point x="199" y="118"/>
			<point x="235" y="238"/>
			<point x="312" y="333" type="curve" smooth="yes"/>
			<point x="405" y="449"/>
			<point x="466" y="574"/>
			<point x="491" y="700" type="curve"/>
			<point x="25" y="700" type="line"/>
			<point x="25" y="670" type="line"/>
			<point x="453" y="670" type="line"/>
			<point x="426" y="561"/>
			<point x="370" y="453"/>
			<point x="288" y="352" type="curve" smooth="yes"/>
			<point x="207" y="251"/>
			<point x="168" y="122"/>
			<point x="182" y="0" type="curve"/>
		</contour>
		<contour>
			<point x="438" y="365" type="line"/>
			<point x="94" y="365" type="line"/>
			<point x="94" y="335" type="line"/>
			<point x="438" y="335" type="line"/>
		</contour>
	</outline>
</glyph>
<glyph name="eight" format="2">
	<advance width="653"/>
	<unicode hex="0038"/>
	<outline>
		<contour>
			<point x="326" y="710" type="curve" smooth="yes"/>
			<point x="181" y="710"/>
			<point x="62" y="637"/>
			<point x="70" y="524" type="curve" smooth="yes"/>
			<point x="76" y="431"/>
			<point x="182" y="370"/>
			<point x="326" y="370" type="curve" smooth="yes"/>
			<point x="476" y="370"/>
			<point x="577" y="430"/>
			<point x="583" y="524" type="curve" smooth="yes"/>
			<point x="590" y="639"/>
			<point x="475" y="710"/>
		</contour>
		<contour>
			<point x="91" y="625"/>
			<point x="209" y="680"/>
			<point x="326" y="680" type="curve" smooth="yes"/>
			<point x="459" y="680"/>
			<point x="557" y="621"/>
			<point x="553" y="526" type="curve" smooth="yes"/>
			<point x="550" y="450"/>
			<point x="459" y="400"/>
			<point x="326" y="400" type="curve" smooth="yes"/>
			<point x="198" y="400"/>
			<point x="107" y="451"/>
			<point x="100" y="526" type="curve" smooth="yes"/>
		</contour>
		<contour>
			<point x="326" y="400" type="curve" smooth="yes"/>
			<point x="156" y="400"/>
			<point x="42" y="327"/>
			<point x="35" y="211" type="curve" smooth="yes"/>
			<point x="28" y="82"/>
			<point x="165" y="-10"/>
			<point x="326" y="-10" type="curve" smooth="yes"/>
			<point x="488" y="-10"/>
			<point x="618" y="74"/>
			<point x="618" y="203" type="curve" smooth="yes"/>
			<point x="618" y="322"/>
			<point x="500" y="400"/>
		</contour>
		<contour>
			<point x="326" y="370" type="curve" smooth="yes"/>
			<point x="483" y="370"/>
			<point x="588" y="304"/>
			<point x="588" y="203" type="curve" smooth="yes"/>
			<point x="588" y="86"/>
			<point x="455" y="19"/>
			<point x="324" y="20" type="curve" smooth="yes"/>
			<point x="191" y="22"/>
			<point x="58" y="92"/>
			<point x="65" y="209" type="curve" smooth="yes"/>
			<point x="71" y="308"/>
			<point x="172" y="370"/>
		</contour>
	</outline>
</glyph>
<glyph name="nine" format="2">
	<advance width="590"/>
	<unicode hex="0039"/>
	<outline>
		<contour>
			<point x="505" y="450" type="line"/>
			<point x="473" y="355"/>
			<point x="388" y="293"/>
			<point x="288" y="289" type="curve" smooth="yes"/>
			<point x="170" y="284"/>
			<point x="78" y="349"/>
			<point x="63" y="447" type="curve" smooth="yes"/>
			<point x="43" y="571"/>
			<point x="155" y="682"/>
			<point x="288" y="670" type="curve" smooth="yes"/>
			<point x="426" y="658"/>
			<point x="515" y="533"/>
			<point x="515" y="350" type="curve" smooth="yes"/>
			<point x="515" y="176"/>
			<point x="422" y="43"/>
			<point x="287" y="30" type="curve" smooth="yes"/>
			<point x="204" y="22"/>
			<point x="139" y="42"/>
			<point x="93" y="90" type="curve"/>
			<point x="71" y="70" type="line"/>
			<point x="123" y="15"/>
			<point x="198" y="-9"/>
			<point x="290" y="0" type="curve" smooth="yes"/>
			<point x="441" y="15"/>
			<point x="545" y="161"/>
			<point x="545" y="350" type="curve" smooth="yes"/>
			<point x="545" y="548"/>
			<point x="446" y="687"/>
			<point x="290" y="700" type="curve" smooth="yes"/>
			<point x="139" y="713"/>
			<point x="10" y="586"/>
			<point x="33" y="443" type="curve" smooth="yes"/>
			<point x="51" y="329"/>
			<point x="157" y="254"/>
			<point x="290" y="259" type="curve" smooth="yes"/>
			<point x="401" y="263"/>
			<point x="498" y="334"/>
			<point x="534" y="440" type="curve"/>
		</contour>
	</outline>
</glyph>
<glyph name="colon" format="2">
	<advance width="245"/>
	<unicode hex="003A"/>
	<outline>
		<contour>
			<point x="73" y="340" type="line"/>
			<point x="137" y="358"/>
			<point x="171" y="429"/>
			<point x="148" y="500" type="curve"/>
			<point x="35" y="500" type="line"/>
			<point x="35" y="470" type="line"/>
			<point x="125" y="470" type="line"/>
			<point x="131" y="423"/>
			<point x="107" y="381"/>
			<point x="65" y="369" type="curve"/>
		</contour>
		<contour>
			<point x="73" y="40" type="line"/>
			<point x="137" y="58"/>
			<point x="171" y="129"/>
			<point x="148" y="200" type="curve"/>
			<point x="35" y="200" type="line"/>
			<point x="35" y="170" type="line"/>
			<point x="125" y="170" type="line"/>
			<point x="131" y="123"/>
			<point x="107" y="81"/>
			<point x="65" y="69" type="curve"/>
		</contour>
	</outline>
</glyph>
<glyph name="semicolon" format="2">
	<advance width="268"/>
	<unicode hex="003B"/>
	<outline>
		<contour>
			<point x="111" y="-256" type="line"/>
			<point x="179" y="-160"/>
			<point x="203" y="-50"/>
			<point x="179" y="60" type="curve"/>
			<point x="65" y="60" type="line"/>
			<point x="65" y="30" type="line"/>
			<point x="154" y="30" type="line"/>
			<point x="169" y="-64"/>
			<point x="146" y="-156"/>
			<point x="86" y="-239" type="curve"/>
		</contour>
		<contour>
			<point x="103" y="340" type="line"/>
			<point x="167" y="358"/>
			<point x="201" y="429"/>
			<point x="178" y="500" type="curve"/>
			<point x="65" y="500" type="line"/>
			<point x="65" y="470" type="line"/>
			<point x="155" y="470" type="line"/>
			<point x="161" y="423"/>
			<point x="137" y="381"/>
			<point x="95" y="369" type="curve"/>
		</contour>
	</outline>
</glyph>
<glyph name="less" format="2">
	<advance width="520"/>
	<unicode hex="003C"/>
	<outline>
		<contour>
			<point x="35" y="301" type="line"/>
			<point x="35" y="270" type="line"/>
			<point x="451" y="58" type="line"/>
			<point x="465" y="84" type="line"/>
			<point x="72" y="286" type="line"/>
			<point x="465" y="473" type="line"/>
			<point x="452" y="500" type="line"/>
		</contour>
	</outline>
</glyph>
<glyph name="equal" format="2">
	<advance width="550"/>
	<unicode hex="003D"/>
	<outline>
		<contour>
			<point x="475" y="443" type="line"/>
			<point x="55" y="443" type="line"/>
			<point x="55" y="413" type="line"/>
			<point x="475" y="413" type="line"/>
		</contour>
		<contour>
			<point x="475" y="158" type="line"/>
			<point x="55" y="158" type="line"/>
			<point x="55" y="128" type="line"/>
			<point x="475" y="128" type="line"/>
		</contour>
	</outline>
</glyph>
<glyph name="question" format="2">
	<advance width="550"/>
	<unicode hex="003F"/>
	<outline>
		<contour>
			<point x="244" y="220" type="line"/>
			<point x="213" y="227"/>
			<point x="189" y="250"/>
			<point x="185" y="279" type="curve" smooth="yes"/>
			<point x="173" y="364"/>
			<point x="244" y="392"/>
			<point x="324" y="423" type="curve" smooth="yes"/>
			<point x="380" y="446"/>
			<point x="441" y="470"/>
			<point x="466" y="519" type="curve" smooth="yes"/>
			<point x="532" y="650"/>
			<point x="418" y="790"/>
			<point x="248" y="790" type="curve" smooth="yes"/>
			<point x="148" y="790"/>
			<point x="63" y="736"/>
			<point x="15" y="643" type="curve"/>
			<point x="42" y="630" type="line"/>
			<point x="85" y="713"/>
			<point x="159" y="760"/>
			<point x="248" y="760" type="curve" smooth="yes"/>
			<point x="396" y="760"/>
			<point x="495" y="643"/>
			<point x="439" y="533" type="curve" smooth="yes"/>
			<point x="392" y="440"/>
			<point x="131" y="451"/>
			<point x="155" y="275" type="curve" smooth="yes"/>
			<point x="161" y="234"/>
			<point x="195" y="200"/>
			<point x="238" y="191" type="curve"/>
		</contour>
		<contour>
			<point x="209" y="-1" type="line"/>
			<point x="276" y="17"/>
			<point x="311" y="88"/>
			<point x="287" y="159" type="curve"/>
			<point x="170" y="159" type="line"/>
			<point x="170" y="129" type="line"/>
			<point x="264" y="129" type="line"/>
			<point x="270" y="82"/>
			<point x="245" y="40"/>
			<point x="201" y="28" type="curve"/>
		</contour>
	</outline>
</glyph>
<glyph name="at" format="2">
	<advance width="848"/>
	<unicode hex="0040"/>
	<outline>
		<contour>
			<point x="635" y="19" type="line"/>
			<point x="567" y="-26"/>
			<point x="495" y="-49"/>
			<point x="422" y="-49" type="curve" smooth="yes"/>
			<point x="212" y="-49"/>
			<point x="75" y="92"/>
			<point x="75" y="308" type="curve" smooth="yes"/>
			<point x="75" y="514"/>
			<point x="230" y="670"/>
			<point x="437" y="670" type="curve" smooth="yes"/>
			<point x="623" y="670"/>
			<point x="768" y="525"/>
			<point x="768" y="341" type="curve" smooth="yes"/>
			<point x="768" y="193"/>
			<point x="748" y="115"/>
			<point x="712" y="115" type="curve" smooth="yes"/>
			<point x="694" y="115"/>
			<point x="676" y="138"/>
			<point x="669" y="171" type="curve" smooth="yes"/>
			<point x="662" y="207"/>
			<point x="664" y="245"/>
			<point x="667" y="285" type="curve" smooth="yes"/>
			<point x="670" y="335"/>
			<point x="674" y="389"/>
			<point x="655" y="440" type="curve" smooth="yes"/>
			<point x="625" y="524"/>
			<point x="529" y="584"/>
			<point x="427" y="584" type="curve" smooth="yes"/>
			<point x="357" y="584"/>
			<point x="289" y="555"/>
			<point x="237" y="502" type="curve"/>
			<point x="258" y="481" type="line"/>
			<point x="305" y="528"/>
			<point x="364" y="554"/>
			<point x="427" y="554" type="curve" smooth="yes"/>
			<point x="516" y="554"/>
			<point x="601" y="501"/>
			<point x="627" y="430" type="curve" smooth="yes"/>
			<point x="643" y="385"/>
			<point x="640" y="337"/>
			<point x="637" y="287" type="curve" smooth="yes"/>
			<point x="634" y="247"/>
			<point x="632" y="205"/>
			<point x="640" y="165" type="curve" smooth="yes"/>
			<point x="650" y="118"/>
			<point x="678" y="85"/>
			<point x="712" y="85" type="curve" smooth="yes"/>
			<point x="773" y="85"/>
			<point x="798" y="170"/>
			<point x="798" y="341" type="curve" smooth="yes"/>
			<point x="798" y="542"/>
			<point x="639" y="700"/>
			<point x="437" y="700" type="curve" smooth="yes"/>
			<point x="214" y="700"/>
			<point x="45" y="531"/>
			<point x="45" y="308" type="curve" smooth="yes"/>
			<point x="45" y="75"/>
			<point x="195" y="-79"/>
			<point x="422" y="-79" type="curve" smooth="yes"/>
			<point x="500" y="-79"/>
			<point x="579" y="-54"/>
			<point x="652" y="-6" type="curve"/>
		</contour>
		<contour>
			<point x="646" y="155" type="line"/>
			<point x="581" y="109"/>
			<point x="507" y="85"/>
			<point x="427" y="85" type="curve" smooth="yes"/>
			<point x="306" y="85"/>
			<point x="227" y="136"/>
			<point x="227" y="215" type="curve" smooth="yes"/>
			<point x="227" y="290"/>
			<point x="312" y="345"/>
			<point x="427" y="344" type="curve" smooth="yes"/>
			<point x="500" y="343"/>
			<point x="580" y="317"/>
			<point x="644" y="275" type="curve"/>
			<point x="661" y="299" type="line"/>
			<point x="592" y="345"/>
			<point x="506" y="373"/>
			<point x="427" y="374" type="curve" smooth="yes"/>
			<point x="296" y="375"/>
			<point x="197" y="308"/>
			<point x="197" y="215" type="curve" smooth="yes"/>
			<point x="197" y="118"/>
			<point x="289" y="55"/>
			<point x="427" y="55" type="curve" smooth="yes"/>
			<point x="513" y="55"/>
			<point x="593" y="81"/>
			<point x="663" y="131" type="curve"/>
		</contour>
	</outline>
</glyph>
<glyph name="A" format="2">
	<advance width="594"/>
	<unicode hex="0041"/>
	<outline>
		<contour>
			<point x="579" y="26" type="line"/>
			<point x="560" y="32"/>
			<point x="546" y="47"/>
			<point x="533" y="75" type="curve" smooth="yes"/>
			<point x="496" y="152"/>
			<point x="505" y="234"/>
			<point x="514" y="320" type="curve" smooth="yes"/>
			<point x="519" y="373"/>
			<point x="525" y="427"/>
			<point x="520" y="481" type="curve" smooth="yes"/>
			<point x="508" y="601"/>
			<point x="408" y="700"/>
			<point x="298" y="700" type="curve" smooth="yes"/>
			<point x="188" y="700"/>
			<point x="95" y="608"/>
			<point x="76" y="482" type="curve" smooth="yes"/>
			<point x="67" y="424"/>
			<point x="72" y="364"/>
			<point x="77" y="307" type="curve" smooth="yes"/>
			<point x="84" y="225"/>
			<point x="90" y="148"/>
			<point x="59" y="75" type="curve" smooth="yes"/>
			<point x="49" y="51"/>
			<point x="34" y="33"/>
			<point x="15" y="24" type="curve"/>
			<point x="28" y="-3" type="line"/>
			<point x="54" y="10"/>
			<point x="74" y="33"/>
			<point x="87" y="63" type="curve" smooth="yes"/>
			<point x="144" y="198"/>
			<point x="85" y="344"/>
			<point x="106" y="477" type="curve" smooth="yes"/>
			<point x="123" y="589"/>
			<point x="203" y="670"/>
			<point x="298" y="670" type="curve" smooth="yes"/>
			<point x="392" y="670"/>
			<point x="479" y="583"/>
			<point x="490" y="478" type="curve" smooth="yes"/>
			<point x="503" y="344"/>
			<point x="441" y="198"/>
			<point x="505" y="62" type="curve" smooth="yes"/>
			<point x="522" y="27"/>
			<point x="542" y="6"/>
			<point x="569" y="-2" type="curve"/>
		</contour>
		<contour>
			<point x="491" y="295" type="line"/>
			<point x="105" y="295" type="line"/>
			<point x="105" y="265" type="line"/>
			<point x="491" y="265" type="line"/>
		</contour>
	</outline>
</glyph>
<glyph name="B" format="2">
	<advance width="550"/>
	<unicode hex="0042"/>
	<outline>
		<contour>
			<point x="38" y="-1" type="line"/>
			<point x="80" y="-2"/>
			<point x="114" y="34"/>
			<point x="118" y="84" type="curve"/>
			<point x="111" y="626" type="line"/>
			<point x="97" y="667"/>
			<point x="71" y="695"/>
			<point x="42" y="702" type="curve"/>
			<point x="35" y="673" type="line"/>
			<point x="53" y="669"/>
			<point x="70" y="650"/>
			<point x="82" y="621" type="curve"/>
			<point x="88" y="85" type="line"/>
			<point x="85" y="52"/>
			<point x="64" y="29"/>
			<point x="39" y="29" type="curve"/>
		</contour>
		<contour>
			<point x="95" y="86" type="line"/>
			<point x="153" y="22"/>
			<point x="242" y="-11"/>
			<point x="327" y="0" type="curve" smooth="yes"/>
			<point x="453" y="16"/>
			<point x="540" y="109"/>
			<point x="533" y="218" type="curve" smooth="yes"/>
			<point x="526" y="324"/>
			<point x="433" y="401"/>
			<point x="313" y="400" type="curve" smooth="yes"/>
			<point x="103" y="399" type="line"/>
			<point x="103" y="369" type="line"/>
			<point x="314" y="369" type="line" smooth="yes"/>
			<point x="407" y="369"/>
			<point x="483" y="443"/>
			<point x="480" y="531" type="curve" smooth="yes"/>
			<point x="478" y="638"/>
			<point x="369" y="715"/>
			<point x="243" y="700" type="curve" smooth="yes"/>
			<point x="183" y="693"/>
			<point x="128" y="666"/>
			<point x="86" y="624" type="curve"/>
			<point x="107" y="603" type="line"/>
			<point x="144" y="640"/>
			<point x="193" y="664"/>
			<point x="246" y="670" type="curve" smooth="yes"/>
			<point x="355" y="683"/>
			<point x="448" y="620"/>
			<point x="450" y="531" type="curve" smooth="yes"/>
			<point x="452" y="459"/>
			<point x="390" y="400"/>
			<point x="313" y="400" type="curve" smooth="yes"/>
			<point x="103" y="399" type="line"/>
			<point x="104" y="369" type="line"/>
			<point x="314" y="369" type="line" smooth="yes"/>
			<point x="419" y="369"/>
			<point x="497" y="306"/>
			<point x="503" y="216" type="curve" smooth="yes"/>
			<point x="509" y="123"/>
			<point x="433" y="44"/>
			<point x="323" y="30" type="curve" smooth="yes"/>
			<point x="247" y="20"/>
			<point x="169" y="49"/>
			<point x="117" y="106" type="curve"/>
		</contour>
	</outline>
</glyph>
<glyph name="C" format="2">
	<advance width="565"/>
	<unicode hex="0043"/>
	<outline>
		<contour>
			<point x="528" y="81" type="line"/>
			<point x="475" y="37"/>
			<point x="403" y="15"/>
			<point x="332" y="20" type="curve" smooth="yes"/>
			<point x="185" y="31"/>
			<point x="70" y="173"/>
			<point x="70" y="350" type="curve" smooth="yes"/>
			<point x="70" y="526"/>
			<point x="182" y="663"/>
			<point x="332" y="680" type="curve" smooth="yes"/>
			<point x="407" y="688"/>
			<point x="477" y="666"/>
			<point x="528" y="619" type="curve"/>
			<point x="548" y="641" type="line"/>
			<point x="492" y="694"/>
			<point x="412" y="719"/>
			<point x="329" y="710" type="curve" smooth="yes"/>
			<point x="163" y="691"/>
			<point x="40" y="542"/>
			<point x="40" y="350" type="curve" smooth="yes"/>
			<point x="40" y="158"/>
			<point x="167" y="2"/>
			<point x="329" y="-10" type="curve" smooth="yes"/>
			<point x="408" y="-16"/>
			<point x="489" y="9"/>
			<point x="547" y="58" type="curve"/>
		</contour>
	</outline>
</glyph>
<glyph name="D" format="2">
	<advance width="648"/>
	<unicode hex="0044"/>
	<outline>
		<contour>
			<point x="45" y="-1" type="line"/>
			<point x="94" y="9"/>
			<point x="125" y="50"/>
			<point x="125" y="105" type="curve" smooth="yes"/>
			<point x="125" y="596" type="line"/>
			<point x="119" y="643"/>
			<point x="91" y="682"/>
			<point x="48" y="703" type="curve"/>
			<point x="35" y="676" type="line"/>
			<point x="68" y="660"/>
			<point x="90" y="630"/>
			<point x="95" y="594" type="curve"/>
			<point x="95" y="105" type="line" smooth="yes"/>
			<point x="95" y="64"/>
			<point x="74" y="35"/>
			<point x="39" y="28" type="curve"/>
		</contour>
		<contour>
			<point x="98" y="106" type="line"/>
			<point x="152" y="29"/>
			<point x="250" y="-11"/>
			<point x="354" y="0" type="curve" smooth="yes"/>
			<point x="501" y="16"/>
			<point x="608" y="165"/>
			<point x="608" y="350" type="curve" smooth="yes"/>
			<point x="608" y="530"/>
			<point x="500" y="682"/>
			<point x="354" y="701" type="curve" smooth="yes"/>
			<point x="260" y="714"/>
			<point x="156" y="671"/>
			<point x="98" y="594" type="curve"/>
			<point x="122" y="576" type="line"/>
			<point x="174" y="644"/>
			<point x="265" y="682"/>
			<point x="350" y="671" type="curve" smooth="yes"/>
			<point x="480" y="654"/>
			<point x="578" y="516"/>
			<point x="578" y="350" type="curve" smooth="yes"/>
			<point x="578" y="181"/>
			<point x="482" y="44"/>
			<point x="351" y="30" type="curve" smooth="yes"/>
			<point x="257" y="20"/>
			<point x="171" y="55"/>
			<point x="122" y="124" type="curve"/>
		</contour>
	</outline>
</glyph>
<glyph name="E" format="2">
	<advance width="494"/>
	<unicode hex="0045"/>
	<outline>
		<contour>
			<point x="448" y="85" type="line"/>
			<point x="436" y="52"/>
			<point x="401" y="30"/>
			<point x="359" y="30" type="curve" smooth="yes"/>
			<point x="65" y="30" type="line"/>
			<point x="65" y="670" type="line"/>
			<point x="359" y="670" type="line" smooth="yes"/>
			<point x="406" y="670"/>
			<point x="437" y="651"/>
			<point x="448" y="616" type="curve"/>
			<point x="477" y="625" type="line"/>
			<point x="462" y="673"/>
			<point x="419" y="700"/>
			<point x="359" y="700" type="curve" smooth="yes"/>
			<point x="35" y="700" type="line"/>
			<point x="35" y="0" type="line"/>
			<point x="359" y="0" type="line" smooth="yes"/>
			<point x="413" y="0"/>
			<point x="461" y="30"/>
			<point x="476" y="75" type="curve"/>
		</contour>
		<contour>
			<point x="394" y="365" type="line"/>
			<point x="50" y="365" type="line"/>
			<point x="50" y="335" type="line"/>
			<point x="394" y="335" type="line"/>
		</contour>
	</outline>
</glyph>
<glyph name="F" format="2">
	<advance width="458"/>
	<unicode hex="0046"/>
	<outline>
		<contour>
			<point x="65" y="0" type="line"/>
			<point x="65" y="670" type="line"/>
			<point x="324" y="670" type="line" smooth="yes"/>
			<point x="366" y="670"/>
			<point x="401" y="648"/>
			<point x="413" y="615" type="curve"/>
			<point x="441" y="625" type="line"/>
			<point x="426" y="670"/>
			<point x="378" y="700"/>
			<point x="324" y="700" type="curve" smooth="yes"/>
			<point x="35" y="700" type="line"/>
			<point x="35" y="0" type="line"/>
		</contour>
		<contour>
			<point x="359" y="365" type="line"/>
			<point x="50" y="365" type="line"/>
			<point x="50" y="335" type="line"/>
			<point x="359" y="335" type="line"/>
		</contour>
	</outline>
</glyph>
<glyph name="G" format="2">
	<advance width="617"/>
	<unicode hex="0047"/>
	<outline>
		<contour>
			<point x="365" y="345" type="line"/>
			<point x="557" y="345" type="line"/>
			<point x="557" y="157" type="line"/>
			<point x="522" y="82"/>
			<point x="443" y="30"/>
			<point x="365" y="30" type="curve" smooth="yes"/>
			<point x="200" y="30"/>
			<point x="70" y="171"/>
			<point x="70" y="350" type="curve" smooth="yes"/>
			<point x="70" y="517"/>
			<point x="181" y="653"/>
			<point x="332" y="671" type="curve" smooth="yes"/>
			<point x="408" y="679"/>
			<point x="478" y="657"/>
			<point x="528" y="610" type="curve"/>
			<point x="548" y="632" type="line"/>
			<point x="492" y="684"/>
			<point x="412" y="709"/>
			<point x="329" y="700" type="curve" smooth="yes"/>
			<point x="163" y="681"/>
			<point x="40" y="532"/>
			<point x="40" y="350" type="curve" smooth="yes"/>
			<point x="40" y="155"/>
			<point x="183" y="0"/>
			<point x="365" y="0" type="curve" smooth="yes"/>
			<point x="456" y="0"/>
			<point x="549" y="62"/>
			<point x="587" y="150" type="curve"/>
			<point x="587" y="375" type="line"/>
			<point x="365" y="375" type="line"/>
		</contour>
	</outline>
</glyph>
<glyph name="H" format="2">
	<advance width="710"/>
	<unicode hex="0048"/>
	<outline>
		<contour>
			<point x="191" y="24" type="line"/>
			<point x="176" y="31"/>
			<point x="160" y="51"/>
			<point x="149" y="76" type="curve" smooth="yes"/>
			<point x="113" y="159"/>
			<point x="122" y="249"/>
			<point x="131" y="343" type="curve" smooth="yes"/>
			<point x="138" y="415"/>
			<point x="145" y="490"/>
			<point x="130" y="563" type="curve" smooth="yes"/>
			<point x="118" y="620"/>
			<point x="93" y="666"/>
			<point x="56" y="701" type="curve"/>
			<point x="35" y="679" type="line"/>
			<point x="68" y="648"/>
			<point x="89" y="608"/>
			<point x="100" y="557" type="curve" smooth="yes"/>
			<point x="133" y="402"/>
			<point x="53" y="222"/>
			<point x="122" y="64" type="curve" smooth="yes"/>
			<point x="135" y="33"/>
			<point x="156" y="8"/>
			<point x="177" y="-3" type="curve"/>
		</contour>
		<contour>
			<point x="675" y="24" type="line"/>
			<point x="660" y="31"/>
			<point x="645" y="51"/>
			<point x="633" y="76" type="curve" smooth="yes"/>
			<point x="597" y="159"/>
			<point x="606" y="249"/>
			<point x="615" y="342" type="curve" smooth="yes"/>
			<point x="622" y="415"/>
			<point x="629" y="490"/>
			<point x="613" y="563" type="curve" smooth="yes"/>
			<point x="602" y="620"/>
			<point x="577" y="666"/>
			<point x="540" y="701" type="curve"/>
			<point x="519" y="679" type="line"/>
			<point x="552" y="648"/>
			<point x="574" y="608"/>
			<point x="584" y="557" type="curve" smooth="yes"/>
			<point x="617" y="402"/>
			<point x="537" y="222"/>
			<point x="606" y="64" type="curve" smooth="yes"/>
			<point x="620" y="33"/>
			<point x="641" y="7"/>
			<point x="661" y="-3" type="curve"/>
		</contour>
		<contour>
			<point x="599" y="365" type="line"/>
			<point x="115" y="365" type="line"/>
			<point x="115" y="335" type="line"/>
			<point x="599" y="335" type="line"/>
		</contour>
	</outline>
</glyph>
<glyph name="I" format="2">
	<advance width="378"/>
	<unicode hex="0049"/>
	<outline>
		<contour>
			<point x="69" y="0" type="line"/>
			<point x="343" y="0" type="line"/>
			<point x="314" y="32"/>
			<point x="283" y="54"/>
			<point x="266" y="89" type="curve" smooth="yes"/>
			<point x="227" y="169"/>
			<point x="238" y="255"/>
			<point x="250" y="346" type="curve" smooth="yes"/>
			<point x="259" y="414"/>
			<point x="268" y="485"/>
			<point x="254" y="554" type="curve" smooth="yes"/>
			<point x="241" y="614"/>
			<point x="214" y="666"/>
			<point x="177" y="700" type="curve"/>
			<point x="35" y="700" type="line"/>
			<point x="35" y="670" type="line"/>
			<point x="165" y="670" type="line"/>
			<point x="193" y="640"/>
			<point x="214" y="598"/>
			<point x="224" y="548" type="curve" smooth="yes"/>
			<point x="255" y="402"/>
			<point x="165" y="226"/>
			<point x="239" y="75" type="curve" smooth="yes"/>
			<point x="248" y="58"/>
			<point x="259" y="43"/>
			<point x="271" y="30" type="curve"/>
			<point x="69" y="30" type="line"/>
		</contour>
	</outline>
</glyph>
<glyph name="J" format="2">
	<advance width="363"/>
	<unicode hex="004A"/>
	<outline>
		<contour>
			<point x="15" y="-3" type="line"/>
			<point x="174" y="-49"/>
			<point x="328" y="73"/>
			<point x="328" y="243" type="curve" smooth="yes"/>
			<point x="328" y="700" type="line"/>
			<point x="19" y="700" type="line"/>
			<point x="19" y="670" type="line"/>
			<point x="298" y="670" type="line"/>
			<point x="298" y="243" type="line" smooth="yes"/>
			<point x="298" y="93"/>
			<point x="163" y="-14"/>
			<point x="23" y="26" type="curve"/>
		</contour>
	</outline>
</glyph>
<glyph name="K" format="2">
	<advance width="609"/>
	<unicode hex="004B"/>
	<outline>
		<contour>
			<point x="189" y="24" type="line"/>
			<point x="169" y="34"/>
			<point x="152" y="53"/>
			<point x="140" y="77" type="curve" smooth="yes"/>
			<point x="99" y="161"/>
			<point x="110" y="253"/>
			<point x="123" y="349" type="curve" smooth="yes"/>
			<point x="132" y="419"/>
			<point x="141" y="492"/>
			<point x="128" y="563" type="curve" smooth="yes"/>
			<point x="116" y="625"/>
			<point x="88" y="677"/>
			<point x="52" y="702" type="curve"/>
			<point x="35" y="677" type="line"/>
			<point x="64" y="657"/>
			<point x="88" y="613"/>
			<point x="98" y="557" type="curve" smooth="yes"/>
			<point x="127" y="404"/>
			<point x="36" y="221"/>
			<point x="113" y="63" type="curve" smooth="yes"/>
			<point x="127" y="34"/>
			<point x="150" y="10"/>
			<point x="175" y="-3" type="curve"/>
		</contour>
		<contour>
			<point x="513" y="700" type="line"/>
			<point x="446" y="523"/>
			<point x="294" y="385"/>
			<point x="102" y="329" type="curve"/>
			<point x="110" y="301" type="line"/>
			<point x="310" y="359"/>
			<point x="471" y="504"/>
			<point x="541" y="690" type="curve"/>
		</contour>
		<contour>
			<point x="594" y="19" type="line"/>
			<point x="290" y="401" type="line"/>
			<point x="267" y="383" type="line"/>
			<point x="571" y="0" type="line"/>
		</contour>
	</outline>
</glyph>
<glyph name="L" format="2">
	<advance width="552"/>
	<unicode hex="004C"/>
	<outline>
		<contour>
			<point x="507" y="80" type="line"/>
			<point x="507" y="52"/>
			<point x="483" y="30"/>
			<point x="453" y="30" type="curve" smooth="yes"/>
			<point x="124" y="30" type="line"/>
			<point x="124" y="553" type="line" smooth="yes"/>
			<point x="124" y="623"/>
			<point x="93" y="686"/>
			<point x="44" y="701" type="curve"/>
			<point x="35" y="673" type="line"/>
			<point x="71" y="662"/>
			<point x="94" y="610"/>
			<point x="94" y="553" type="curve" smooth="yes"/>
			<point x="94" y="0" type="line"/>
			<point x="453" y="0" type="line" smooth="yes"/>
			<point x="500" y="0"/>
			<point x="537" y="36"/>
			<point x="537" y="80" type="curve"/>
		</contour>
	</outline>
</glyph>
<glyph name="M" format="2">
	<advance width="765"/>
	<unicode hex="004D"/>
	<outline>
		<contour>
			<point x="730" y="700" type="line"/>
			<point x="664" y="718"/>
			<point x="610" y="696"/>
			<point x="575" y="638" type="curve" smooth="yes"/>
			<point x="380" y="309" type="line"/>
			<point x="185" y="638" type="line" smooth="yes"/>
			<point x="146" y="703"/>
			<point x="104" y="720"/>
			<point x="30" y="700" type="curve"/>
			<point x="38" y="671" type="line"/>
			<point x="99" y="687"/>
			<point x="127" y="676"/>
			<point x="159" y="622" type="curve" smooth="yes"/>
			<point x="380" y="251" type="line"/>
			<point x="601" y="622" type="line" smooth="yes"/>
			<point x="629" y="670"/>
			<point x="668" y="685"/>
			<point x="722" y="671" type="curve"/>
		</contour>
		<contour>
			<point x="175" y="28" type="line"/>
			<point x="143" y="34"/>
			<point x="118" y="67"/>
			<point x="118" y="105" type="curve" smooth="yes"/>
			<point x="118" y="693" type="line"/>
			<point x="88" y="693" type="line"/>
			<point x="88" y="105" type="line" smooth="yes"/>
			<point x="88" y="53"/>
			<point x="123" y="7"/>
			<point x="170" y="-1" type="curve"/>
		</contour>
		<contour>
			<point x="729" y="28" type="line"/>
			<point x="697" y="34"/>
			<point x="672" y="67"/>
			<point x="672" y="105" type="curve" smooth="yes"/>
			<point x="672" y="689" type="line"/>
			<point x="642" y="689" type="line"/>
			<point x="642" y="105" type="line" smooth="yes"/>
			<point x="642" y="53"/>
			<point x="677" y="7"/>
			<point x="724" y="-1" type="curve"/>
		</contour>
	</outline>
</glyph>
<glyph name="N" format="2">
	<advance width="607"/>
	<unicode hex="004E"/>
	<outline>
		<contour>
			<point x="547" y="700" type="line"/>
			<point x="547" y="33" type="line"/>
			<point x="507" y="42"/>
			<point x="466" y="63"/>
			<point x="435" y="93" type="curve" smooth="yes"/>
			<point x="362" y="160"/>
			<point x="341" y="254"/>
			<point x="318" y="353" type="curve" smooth="yes"/>
			<point x="295" y="452"/>
			<point x="272" y="556"/>
			<point x="193" y="629" type="curve" smooth="yes"/>
			<point x="144" y="674"/>
			<point x="91" y="698"/>
			<point x="30" y="702" type="curve"/>
			<point x="30" y="0" type="line"/>
			<point x="60" y="0" type="line"/>
			<point x="60" y="668" type="line"/>
			<point x="101" y="659"/>
			<point x="137" y="640"/>
			<point x="173" y="607" type="curve" smooth="yes"/>
			<point x="317" y="472"/>
			<point x="257" y="217"/>
			<point x="414" y="71" type="curve" smooth="yes"/>
			<point x="459" y="29"/>
			<point x="520" y="2"/>
			<point x="577" y="-2" type="curve"/>
			<point x="577" y="700" type="line"/>
		</contour>
	</outline>
</glyph>
<glyph name="O" format="2">
	<advance width="662"/>
	<unicode hex="004F"/>
	<outline>
		<contour>
			<point x="331" y="710" type="curve" smooth="yes"/>
			<point x="167" y="710"/>
			<point x="40" y="556"/>
			<point x="40" y="350" type="curve" smooth="yes"/>
			<point x="40" y="145"/>
			<point x="167" y="-10"/>
			<point x="331" y="-10" type="curve" smooth="yes"/>
			<point x="495" y="-10"/>
			<point x="622" y="145"/>
			<point x="622" y="350" type="curve" smooth="yes"/>
			<point x="622" y="556"/>
			<point x="495" y="710"/>
		</contour>
		<contour>
			<point x="331" y="680" type="curve" smooth="yes"/>
			<point x="478" y="680"/>
			<point x="592" y="539"/>
			<point x="592" y="350" type="curve" smooth="yes"/>
			<point x="592" y="161"/>
			<point x="478" y="20"/>
			<point x="331" y="20" type="curve" smooth="yes"/>
			<point x="184" y="20"/>
			<point x="70" y="161"/>
			<point x="70" y="350" type="curve" smooth="yes"/>
			<point x="70" y="539"/>
			<point x="184" y="680"/>
		</contour>
	</outline>
</glyph>
<glyph name="P" format="2">
	<advance width="587"/>
	<unicode hex="0050"/>
	<outline>
		<contour>
			<point x="41" y="328" type="line"/>
			<point x="113" y="280"/>
			<point x="185" y="256"/>
			<point x="257" y="256" type="curve" smooth="yes"/>
			<point x="419" y="256"/>
			<point x="547" y="360"/>
			<point x="547" y="492" type="curve" smooth="yes"/>
			<point x="547" y="609"/>
			<point x="434" y="700"/>
			<point x="291" y="700" type="curve" smooth="yes"/>
			<point x="35" y="700" type="line"/>
			<point x="35" y="103" type="line" smooth="yes"/>
			<point x="35" y="52"/>
			<point x="70" y="7"/>
			<point x="116" y="-1" type="curve"/>
			<point x="121" y="28" type="line"/>
			<point x="89" y="34"/>
			<point x="65" y="66"/>
			<point x="65" y="103" type="curve" smooth="yes"/>
			<point x="65" y="670" type="line"/>
			<point x="291" y="670" type="line" smooth="yes"/>
			<point x="418" y="670"/>
			<point x="517" y="592"/>
			<point x="517" y="492" type="curve" smooth="yes"/>
			<point x="517" y="377"/>
			<point x="402" y="286"/>
			<point x="257" y="286" type="curve" smooth="yes"/>
			<point x="191" y="286"/>
			<point x="125" y="308"/>
			<point x="58" y="353" type="curve"/>
		</contour>
	</outline>
</glyph>
<glyph name="Q" format="2">
	<advance width="719"/>
	<unicode hex="0051"/>
	<outline>
		<contour>
			<point x="331" y="710" type="curve" smooth="yes"/>
			<point x="169" y="710"/>
			<point x="40" y="552"/>
			<point x="40" y="350" type="curve" smooth="yes"/>
			<point x="40" y="145"/>
			<point x="167" y="-10"/>
			<point x="331" y="-10" type="curve" smooth="yes"/>
			<point x="495" y="-10"/>
			<point x="622" y="144"/>
			<point x="622" y="350" type="curve" smooth="yes"/>
			<point x="622" y="553"/>
			<point x="493" y="710"/>
		</contour>
		<contour>
			<point x="331" y="680" type="curve" smooth="yes"/>
			<point x="476" y="680"/>
			<point x="592" y="536"/>
			<point x="592" y="350" type="curve" smooth="yes"/>
			<point x="592" y="161"/>
			<point x="478" y="20"/>
			<point x="331" y="20" type="curve" smooth="yes"/>
			<point x="184" y="20"/>
			<point x="70" y="161"/>
			<point x="70" y="350" type="curve" smooth="yes"/>
			<point x="70" y="536"/>
			<point x="187" y="680"/>
		</contour>
		<contour>
			<point x="679" y="-131" type="line"/>
			<point x="612" y="-119"/>
			<point x="568" y="-61"/>
			<point x="553" y="38" type="curve" smooth="yes"/>
			<point x="536" y="149"/>
			<point x="485" y="213"/>
			<point x="403" y="225" type="curve"/>
			<point x="398" y="196" type="line"/>
			<point x="467" y="185"/>
			<point x="508" y="132"/>
			<point x="524" y="34" type="curve" smooth="yes"/>
			<point x="540" y="-77"/>
			<point x="593" y="-147"/>
			<point x="674" y="-160" type="curve"/>
		</contour>
	</outline>
</glyph>
<glyph name="R" format="2">
	<advance width="562"/>
	<unicode hex="0052"/>
	<outline>
		<contour>
			<point x="41" y="328" type="line"/>
			<point x="113" y="280"/>
			<point x="185" y="256"/>
			<point x="257" y="256" type="curve" smooth="yes"/>
			<point x="419" y="256"/>
			<point x="547" y="360"/>
			<point x="547" y="492" type="curve" smooth="yes"/>
			<point x="547" y="609"/>
			<point x="434" y="700"/>
			<point x="291" y="700" type="curve" smooth="yes"/>
			<point x="35" y="700" type="line"/>
			<point x="35" y="103" type="line" smooth="yes"/>
			<point x="35" y="52"/>
			<point x="70" y="7"/>
			<point x="116" y="-1" type="curve"/>
			<point x="121" y="28" type="line"/>
			<point x="89" y="34"/>
			<point x="65" y="66"/>
			<point x="65" y="103" type="curve" smooth="yes"/>
			<point x="65" y="670" type="line"/>
			<point x="291" y="670" type="line" smooth="yes"/>
			<point x="418" y="670"/>
			<point x="517" y="592"/>
			<point x="517" y="492" type="curve" smooth="yes"/>
			<point x="517" y="377"/>
			<point x="402" y="286"/>
			<point x="257" y="286" type="curve" smooth="yes"/>
			<point x="191" y="286"/>
			<point x="125" y="308"/>
			<point x="58" y="353" type="curve"/>
		</contour>
		<contour>
			<point x="536" y="28" type="line"/>
			<point x="420" y="61"/>
			<point x="319" y="159"/>
			<point x="271" y="285" type="curve"/>
			<point x="243" y="275" type="line"/>
			<point x="294" y="141"/>
			<point x="404" y="35"/>
			<point x="528" y="0" type="curve"/>
		</contour>
	</outline>
</glyph>
<glyph name="S" format="2">
	<advance width="695"/>
	<unicode hex="0053"/>
	<outline>
		<contour>
			<point x="35" y="140" type="line"/>
			<point x="127" y="67"/>
			<point x="220" y="21"/>
			<point x="321" y="0" type="curve" smooth="yes"/>
			<point x="512" y="-36"/>
			<point x="673" y="59"/>
			<point x="653" y="200" type="curve" smooth="yes"/>
			<point x="635" y="334"/>
			<point x="466" y="351"/>
			<point x="326" y="369" type="curve" smooth="yes"/>
			<point x="176" y="390"/>
			<point x="105" y="432"/>
			<point x="95" y="505" type="curve" smooth="yes"/>
			<point x="83" y="601"/>
			<point x="186" y="678"/>
			<point x="324" y="678" type="curve" smooth="yes"/>
			<point x="419" y="678"/>
			<point x="514" y="644"/>
			<point x="594" y="580" type="curve"/>
			<point x="612" y="603" type="line"/>
			<point x="527" y="671"/>
			<point x="425" y="708"/>
			<point x="324" y="708" type="curve" smooth="yes"/>
			<point x="168" y="708"/>
			<point x="51" y="616"/>
			<point x="65" y="501" type="curve" smooth="yes"/>
			<point x="77" y="412"/>
			<point x="159" y="362"/>
			<point x="322" y="340" type="curve" smooth="yes"/>
			<point x="463" y="321"/>
			<point x="608" y="307"/>
			<point x="624" y="196" type="curve" smooth="yes"/>
			<point x="640" y="77"/>
			<point x="498" y="-3"/>
			<point x="327" y="30" type="curve" smooth="yes"/>
			<point x="230" y="49"/>
			<point x="142" y="93"/>
			<point x="54" y="164" type="curve"/>
		</contour>
	</outline>
</glyph>
<glyph name="T" format="2">
	<advance width="610"/>
	<unicode hex="0054"/>
	<outline>
		<contour>
			<point x="595" y="627" type="line"/>
			<point x="571" y="671"/>
			<point x="524" y="700"/>
			<point x="478" y="700" type="curve" smooth="yes"/>
			<point x="305" y="700" type="line"/>
			<point x="132" y="700" type="line" smooth="yes"/>
			<point x="78" y="700"/>
			<point x="31" y="670"/>
			<point x="15" y="625" type="curve"/>
			<point x="43" y="615" type="line"/>
			<point x="55" y="648"/>
			<point x="90" y="670"/>
			<point x="132" y="670" type="curve" smooth="yes"/>
			<point x="305" y="670" type="line"/>
			<point x="478" y="670" type="line" smooth="yes"/>
			<point x="514" y="670"/>
			<point x="550" y="648"/>
			<point x="568" y="613" type="curve"/>
		</contour>
		<contour>
			<point x="320" y="0" type="line"/>
			<point x="320" y="700" type="line"/>
			<point x="290" y="700" type="line"/>
			<point x="290" y="0" type="line"/>
		</contour>
	</outline>
</glyph>
<glyph name="U" format="2">
	<advance width="712"/>
	<unicode hex="0055"/>
	<outline>
		<contour>
			<point x="588" y="678" type="line"/>
			<point x="630" y="644"/>
			<point x="651" y="586"/>
			<point x="652" y="495" type="curve" smooth="yes"/>
			<point x="652" y="287" type="line" smooth="yes"/>
			<point x="651" y="146"/>
			<point x="534" y="30"/>
			<point x="392" y="30" type="curve" smooth="yes"/>
			<point x="272" y="30"/>
			<point x="163" y="113"/>
			<point x="140" y="222" type="curve" smooth="yes"/>
			<point x="129" y="278"/>
			<point x="132" y="333"/>
			<point x="135" y="389" type="curve" smooth="yes"/>
			<point x="138" y="448"/>
			<point x="142" y="508"/>
			<point x="127" y="567" type="curve" smooth="yes"/>
			<point x="111" y="632"/>
			<point x="86" y="678"/>
			<point x="52" y="702" type="curve"/>
			<point x="35" y="677" type="line"/>
			<point x="62" y="658"/>
			<point x="84" y="619"/>
			<point x="98" y="560" type="curve" smooth="yes"/>
			<point x="125" y="453"/>
			<point x="86" y="338"/>
			<point x="111" y="216" type="curve" smooth="yes"/>
			<point x="137" y="93"/>
			<point x="258" y="0"/>
			<point x="392" y="0" type="curve" smooth="yes"/>
			<point x="550" y="0"/>
			<point x="681" y="130"/>
			<point x="682" y="287" type="curve" smooth="yes"/>
			<point x="682" y="496" type="line" smooth="yes"/>
			<point x="681" y="593"/>
			<point x="657" y="661"/>
			<point x="607" y="701" type="curve"/>
		</contour>
	</outline>
</glyph>
<glyph name="V" format="2">
	<advance width="609"/>
	<unicode hex="0056"/>
	<outline>
		<contour>
			<point x="571" y="701" type="line"/>
			<point x="543" y="668"/>
			<point x="513" y="624"/>
			<point x="499" y="567" type="curve" smooth="yes"/>
			<point x="485" y="512"/>
			<point x="482" y="454"/>
			<point x="479" y="398" type="curve" smooth="yes"/>
			<point x="475" y="312"/>
			<point x="471" y="231"/>
			<point x="431" y="159" type="curve" smooth="yes"/>
			<point x="388" y="82"/>
			<point x="306" y="34"/>
			<point x="214" y="30" type="curve"/>
			<point x="44" y="700" type="line"/>
			<point x="15" y="693" type="line"/>
			<point x="191" y="0" type="line"/>
			<point x="302" y="-4"/>
			<point x="406" y="52"/>
			<point x="457" y="145" type="curve" smooth="yes"/>
			<point x="529" y="272"/>
			<point x="495" y="428"/>
			<point x="528" y="559" type="curve" smooth="yes"/>
			<point x="539" y="603"/>
			<point x="560" y="642"/>
			<point x="594" y="682" type="curve"/>
		</contour>
	</outline>
</glyph>
<glyph name="W" format="2">
	<advance width="922"/>
	<unicode hex="0057"/>
	<outline>
		<contour>
			<point x="460" y="470" type="line"/>
			<point x="437" y="411"/>
			<point x="427" y="351"/>
			<point x="416" y="290" type="curve" smooth="yes"/>
			<point x="410" y="258"/>
			<point x="405" y="225"/>
			<point x="397" y="191" type="curve" smooth="yes"/>
			<point x="376" y="103"/>
			<point x="319" y="42"/>
			<point x="249" y="31" type="curve"/>
			<point x="44" y="700" type="line"/>
			<point x="15" y="691" type="line"/>
			<point x="227" y="-1" type="line"/>
			<point x="322" y="0"/>
			<point x="401" y="75"/>
			<point x="426" y="185" type="curve" smooth="yes"/>
			<point x="449" y="282"/>
			<point x="454" y="371"/>
			<point x="488" y="460" type="curve"/>
		</contour>
		<contour>
			<point x="887" y="702" type="line"/>
			<point x="852" y="669"/>
			<point x="829" y="627"/>
			<point x="813" y="567" type="curve" smooth="yes"/>
			<point x="795" y="507"/>
			<point x="793" y="444"/>
			<point x="790" y="383" type="curve" smooth="yes"/>
			<point x="787" y="302"/>
			<point x="783" y="226"/>
			<point x="746" y="159" type="curve" smooth="yes"/>
			<point x="710" y="100"/>
			<point x="657" y="56"/>
			<point x="596" y="34" type="curve"/>
			<point x="426" y="700" type="line"/>
			<point x="397" y="693" type="line"/>
			<point x="574" y="-4" type="line"/>
			<point x="655" y="15"/>
			<point x="726" y="69"/>
			<point x="771" y="144" type="curve" smooth="yes"/>
			<point x="844" y="272"/>
			<point x="802" y="425"/>
			<point x="842" y="559" type="curve" smooth="yes"/>
			<point x="856" y="614"/>
			<point x="877" y="651"/>
			<point x="907" y="679" type="curve"/>
		</contour>
	</outline>
</glyph>
<glyph name="X" format="2">
	<advance width="602"/>
	<unicode hex="0058"/>
	<outline>
		<contour>
			<point x="582" y="28" type="line"/>
			<point x="446" y="74"/>
			<point x="343" y="199"/>
			<point x="316" y="353" type="curve" smooth="yes"/>
			<point x="287" y="519"/>
			<point x="180" y="650"/>
			<point x="30" y="701" type="curve"/>
			<point x="20" y="672" type="line"/>
			<point x="160" y="625"/>
			<point x="259" y="503"/>
			<point x="286" y="347" type="curve" smooth="yes"/>
			<point x="316" y="184"/>
			<point x="426" y="49"/>
			<point x="572" y="0" type="curve"/>
		</contour>
		<contour>
			<point x="27" y="0" type="line"/>
			<point x="197" y="28"/>
			<point x="316" y="172"/>
			<point x="316" y="350" type="curve" smooth="yes"/>
			<point x="316" y="513"/>
			<point x="430" y="651"/>
			<point x="579" y="671" type="curve"/>
			<point x="575" y="700" type="line"/>
			<point x="411" y="679"/>
			<point x="286" y="528"/>
			<point x="286" y="350" type="curve" smooth="yes"/>
			<point x="286" y="186"/>
			<point x="178" y="55"/>
			<point x="22" y="29" type="curve"/>
		</contour>
	</outline>
</glyph>
<glyph name="Y" format="2">
	<advance width="530"/>
	<unicode hex="0059"/>
	<outline>
		<contour>
			<point x="498" y="702" type="line"/>
			<point x="464" y="678"/>
			<point x="440" y="632"/>
			<point x="423" y="564" type="curve" smooth="yes"/>
			<point x="413" y="525"/>
			<point x="412" y="486"/>
			<point x="410" y="448" type="curve" smooth="yes"/>
			<point x="409" y="416"/>
			<point x="408" y="385"/>
			<point x="402" y="353" type="curve" smooth="yes"/>
			<point x="389" y="279"/>
			<point x="330" y="225"/>
			<point x="265" y="225" type="curve" smooth="yes"/>
			<point x="200" y="225"/>
			<point x="141" y="279"/>
			<point x="128" y="353" type="curve" smooth="yes"/>
			<point x="122" y="385"/>
			<point x="121" y="416"/>
			<point x="120" y="448" type="curve" smooth="yes"/>
			<point x="118" y="486"/>
			<point x="117" y="525"/>
			<point x="107" y="564" type="curve" smooth="yes"/>
			<point x="90" y="632"/>
			<point x="66" y="678"/>
			<point x="32" y="702" type="curve"/>
			<point x="15" y="677" type="line"/>
			<point x="42" y="658"/>
			<point x="63" y="619"/>
			<point x="78" y="556" type="curve" smooth="yes"/>
			<point x="94" y="490"/>
			<point x="85" y="421"/>
			<point x="99" y="347" type="curve" smooth="yes"/>
			<point x="114" y="260"/>
			<point x="185" y="195"/>
			<point x="265" y="195" type="curve" smooth="yes"/>
			<point x="345" y="195"/>
			<point x="416" y="260"/>
			<point x="431" y="347" type="curve" smooth="yes"/>
			<point x="445" y="421"/>
			<point x="436" y="490"/>
			<point x="452" y="556" type="curve" smooth="yes"/>
			<point x="467" y="619"/>
			<point x="488" y="658"/>
			<point x="515" y="677" type="curve"/>
		</contour>
		<contour>
			<point x="280" y="0" type="line"/>
			<point x="280" y="210" type="line"/>
			<point x="250" y="210" type="line"/>
			<point x="250" y="0" type="line"/>
		</contour>
	</outline>
</glyph>
<glyph name="Z" format="2">
	<advance width="627"/>
	<unicode hex="005A"/>
	<outline>
		<contour>
			<point x="577" y="151" type="line"/>
			<point x="570" y="84"/>
			<point x="516" y="30"/>
			<point x="454" y="30" type="curve" smooth="yes"/>
			<point x="64" y="30" type="line"/>
			<point x="123" y="150"/>
			<point x="218" y="246"/>
			<point x="325" y="338" type="curve" smooth="yes"/>
			<point x="448" y="443"/>
			<point x="547" y="564"/>
			<point x="577" y="700" type="curve"/>
			<point x="100" y="700" type="line"/>
			<point x="26" y="557" type="line"/>
			<point x="53" y="543" type="line"/>
			<point x="118" y="670" type="line"/>
			<point x="538" y="670" type="line"/>
			<point x="503" y="555"/>
			<point x="413" y="454"/>
			<point x="307" y="362" type="curve" smooth="yes"/>
			<point x="185" y="256"/>
			<point x="78" y="142"/>
			<point x="17" y="0" type="curve"/>
			<point x="454" y="0" type="line" smooth="yes"/>
			<point x="532" y="0"/>
			<point x="599" y="66"/>
			<point x="607" y="148" type="curve"/>
		</contour>
	</outline>
</glyph>
<glyph name="bracketleft" format="2">
	<advance width="367"/>
	<unicode hex="005B"/>
	<outline>
		<contour>
			<point x="267" y="-260" type="line"/>
			<point x="164" y="-260" type="line" smooth="yes"/>
			<point x="134" y="-260"/>
			<point x="110" y="-235"/>
			<point x="110" y="-205" type="curve" smooth="yes"/>
			<point x="110" y="704" type="line" smooth="yes"/>
			<point x="113" y="734"/>
			<point x="136" y="757"/>
			<point x="165" y="760" type="curve" smooth="yes"/>
			<point x="267" y="760" type="line"/>
			<point x="267" y="790" type="line"/>
			<point x="163" y="790" type="line" smooth="yes"/>
			<point x="119" y="786"/>
			<point x="84" y="750"/>
			<point x="80" y="706" type="curve" smooth="yes"/>
			<point x="80" y="-205" type="line" smooth="yes"/>
			<point x="80" y="-252"/>
			<point x="118" y="-290"/>
			<point x="164" y="-290" type="curve" smooth="yes"/>
			<point x="267" y="-290" type="line"/>
		</contour>
	</outline>
</glyph>
<glyph name="backslash" format="2">
	<advance width="370"/>
	<unicode hex="005C"/>
	<outline>
		<contour>
			<point x="256" y="-200" type="line"/>
			<point x="285" y="-194" type="line"/>
			<point x="94" y="790" type="line"/>
			<point x="65" y="784" type="line"/>
		</contour>
	</outline>
</glyph>
<glyph name="bracketright" format="2">
	<advance width="367"/>
	<unicode hex="005D"/>
	<outline>
		<contour>
			<point x="100" y="-260" type="line"/>
			<point x="100" y="-290" type="line"/>
			<point x="203" y="-290" type="line" smooth="yes"/>
			<point x="249" y="-290"/>
			<point x="287" y="-252"/>
			<point x="287" y="-205" type="curve" smooth="yes"/>
			<point x="287" y="706" type="line" smooth="yes"/>
			<point x="283" y="750"/>
			<point x="248" y="786"/>
			<point x="204" y="790" type="curve" smooth="yes"/>
			<point x="100" y="790" type="line"/>
			<point x="100" y="760" type="line"/>
			<point x="202" y="760" type="line" smooth="yes"/>
			<point x="231" y="757"/>
			<point x="254" y="734"/>
			<point x="257" y="704" type="curve" smooth="yes"/>
			<point x="257" y="-205" type="line" smooth="yes"/>
			<point x="257" y="-235"/>
			<point x="233" y="-260"/>
			<point x="203" y="-260" type="curve" smooth="yes"/>
		</contour>
	</outline>
</glyph>
<glyph name="underscore" format="2">
	<advance width="495"/>
	<unicode hex="005F"/>
	<outline>
		<contour>
			<point x="435" y="-30" type="line"/>
			<point x="60" y="-30" type="line"/>
			<point x="60" y="-60" type="line"/>
			<point x="435" y="-60" type="line"/>
		</contour>
	</outline>
</glyph>
<glyph name="grave" format="2">
	<advance width="197"/>
	<unicode hex="0060"/>
	<outline>
		<contour>
			<point x="157" y="567" type="curve"/>
			<point x="153" y="597" type="line"/>
			<point x="108" y="592"/>
			<point x="72" y="624"/>
			<point x="70" y="669" type="curve"/>
			<point x="88" y="669" type="line"/>
			<point x="88" y="700" type="line"/>
			<point x="43" y="700" type="line"/>
			<point x="26" y="622"/>
			<point x="83" y="559"/>
		</contour>
	</outline>
</glyph>
<glyph name="a" format="2">
	<advance width="555"/>
	<unicode hex="0061"/>
	<outline>
		<contour>
			<point x="535" y="27" type="line"/>
			<point x="517" y="30"/>
			<point x="502" y="47"/>
			<point x="489" y="75" type="curve" smooth="yes"/>
			<point x="472" y="117"/>
			<point x="476" y="162"/>
			<point x="481" y="211" type="curve" smooth="yes"/>
			<point x="486" y="257"/>
			<point x="491" y="305"/>
			<point x="476" y="351" type="curve" smooth="yes"/>
			<point x="447" y="440"/>
			<point x="357" y="500"/>
			<point x="250" y="500" type="curve" smooth="yes"/>
			<point x="183" y="500"/>
			<point x="116" y="474"/>
			<point x="65" y="429" type="curve"/>
			<point x="85" y="407" type="line"/>
			<point x="130" y="448"/>
			<point x="189" y="470"/>
			<point x="250" y="470" type="curve" smooth="yes"/>
			<point x="344" y="470"/>
			<point x="423" y="419"/>
			<point x="447" y="342" type="curve" smooth="yes"/>
			<point x="474" y="259"/>
			<point x="424" y="156"/>
			<point x="462" y="63" type="curve" smooth="yes"/>
			<point x="478" y="26"/>
			<point x="502" y="3"/>
			<point x="530" y="-2" type="curve"/>
		</contour>
		<contour>
			<point x="468" y="94" type="line"/>
			<point x="403" y="55"/>
			<point x="328" y="33"/>
			<point x="249" y="30" type="curve" smooth="yes"/>
			<point x="139" y="25"/>
			<point x="55" y="78"/>
			<point x="55" y="154" type="curve" smooth="yes"/>
			<point x="55" y="231"/>
			<point x="139" y="285"/>
			<point x="249" y="279" type="curve" smooth="yes"/>
			<point x="321" y="275"/>
			<point x="392" y="252"/>
			<point x="453" y="211" type="curve"/>
			<point x="470" y="236" type="line"/>
			<point x="404" y="279"/>
			<point x="328" y="305"/>
			<point x="251" y="309" type="curve" smooth="yes"/>
			<point x="124" y="316"/>
			<point x="25" y="249"/>
			<point x="25" y="154" type="curve" smooth="yes"/>
			<point x="25" y="60"/>
			<point x="123" y="-6"/>
			<point x="251" y="0" type="curve" smooth="yes"/>
			<point x="334" y="3"/>
			<point x="414" y="26"/>
			<point x="483" y="68" type="curve"/>
		</contour>
	</outline>
</glyph>
<glyph name="b" format="2">
	<advance width="676"/>
	<unicode hex="0062"/>
	<outline>
		<contour>
			<point x="95" y="272" type="line"/>
			<point x="127" y="385"/>
			<point x="230" y="464"/>
			<point x="350" y="471" type="curve" smooth="yes"/>
			<point x="497" y="477"/>
			<point x="619" y="377"/>
			<point x="617" y="251" type="curve" smooth="yes"/>
			<point x="614" y="128"/>
			<point x="496" y="31"/>
			<point x="349" y="30" type="curve" smooth="yes"/>
			<point x="258" y="28"/>
			<point x="179" y="64"/>
			<point x="134" y="128" type="curve" smooth="yes"/>
			<point x="75" y="214"/>
			<point x="91" y="313"/>
			<point x="107" y="421" type="curve" smooth="yes"/>
			<point x="119" y="496"/>
			<point x="131" y="575"/>
			<point x="115" y="650" type="curve" smooth="yes"/>
			<point x="103" y="707"/>
			<point x="75" y="758"/>
			<point x="39" y="788" type="curve"/>
			<point x="20" y="765" type="line"/>
			<point x="51" y="739"/>
			<point x="75" y="695"/>
			<point x="86" y="644" type="curve" smooth="yes"/>
			<point x="121" y="476"/>
			<point x="0" y="269"/>
			<point x="110" y="111" type="curve" smooth="yes"/>
			<point x="160" y="39"/>
			<point x="249" y="-2"/>
			<point x="349" y="0" type="curve" smooth="yes"/>
			<point x="512" y="1"/>
			<point x="643" y="111"/>
			<point x="646" y="250" type="curve" smooth="yes"/>
			<point x="650" y="393"/>
			<point x="513" y="508"/>
			<point x="348" y="500" type="curve" smooth="yes"/>
			<point x="216" y="494"/>
			<point x="102" y="405"/>
			<point x="66" y="280" type="curve"/>
		</contour>
	</outline>
</glyph>
<glyph name="c" format="2">
	<advance width="528"/>
	<unicode hex="0063"/>
	<outline>
		<contour>
			<point x="482" y="97" type="line"/>
			<point x="422" y="40"/>
			<point x="338" y="17"/>
			<point x="255" y="35" type="curve" smooth="yes"/>
			<point x="131" y="60"/>
			<point x="58" y="166"/>
			<point x="60" y="261" type="curve" smooth="yes"/>
			<point x="63" y="370"/>
			<point x="153" y="446"/>
			<point x="255" y="465" type="curve" smooth="yes"/>
			<point x="337" y="477"/>
			<point x="422" y="454"/>
			<point x="483" y="404" type="curve"/>
			<point x="502" y="427" type="line"/>
			<point x="435" y="482"/>
			<point x="340" y="508"/>
			<point x="250" y="495" type="curve" smooth="yes"/>
			<point x="136" y="473"/>
			<point x="35" y="387"/>
			<point x="30" y="265" type="curve" smooth="yes"/>
			<point x="26" y="153"/>
			<point x="110" y="34"/>
			<point x="249" y="6" type="curve" smooth="yes"/>
			<point x="340" y="-14"/>
			<point x="436" y="12"/>
			<point x="503" y="75" type="curve"/>
		</contour>
	</outline>
</glyph>
<glyph name="d" format="2">
	<advance width="675"/>
	<unicode hex="0064"/>
	<outline>
		<contour>
			<point x="650" y="24" type="line"/>
			<point x="640" y="29"/>
			<point x="631" y="40"/>
			<point x="615" y="66" type="curve" smooth="yes"/>
			<point x="612" y="71"/>
			<point x="609" y="75"/>
			<point x="607" y="79" type="curve" smooth="yes"/>
			<point x="562" y="175"/>
			<point x="574" y="279"/>
			<point x="586" y="388" type="curve" smooth="yes"/>
			<point x="596" y="473"/>
			<point x="606" y="561"/>
			<point x="587" y="645" type="curve" smooth="yes"/>
			<point x="570" y="713"/>
			<point x="547" y="761"/>
			<point x="513" y="795" type="curve"/>
			<point x="492" y="774" type="line"/>
			<point x="522" y="744"/>
			<point x="542" y="702"/>
			<point x="558" y="638" type="curve" smooth="yes"/>
			<point x="599" y="461"/>
			<point x="495" y="247"/>
			<point x="580" y="65" type="curve" smooth="yes"/>
			<point x="581" y="63" type="line" smooth="yes"/>
			<point x="595" y="43"/>
			<point x="611" y="10"/>
			<point x="636" y="-3" type="curve"/>
		</contour>
		<contour>
			<point x="561" y="142" type="line"/>
			<point x="498" y="72"/>
			<point x="409" y="30"/>
			<point x="327" y="30" type="curve" smooth="yes"/>
			<point x="181" y="30"/>
			<point x="60" y="130"/>
			<point x="60" y="250" type="curve" smooth="yes"/>
			<point x="60" y="372"/>
			<point x="169" y="470"/>
			<point x="306" y="470" type="curve"/>
			<point x="404" y="476"/>
			<point x="499" y="426"/>
			<point x="553" y="338" type="curve"/>
			<point x="578" y="354" type="line"/>
			<point x="519" y="450"/>
			<point x="413" y="507"/>
			<point x="305" y="500" type="curve"/>
			<point x="153" y="500"/>
			<point x="30" y="389"/>
			<point x="30" y="250" type="curve" smooth="yes"/>
			<point x="30" y="113"/>
			<point x="165" y="0"/>
			<point x="327" y="0" type="curve" smooth="yes"/>
			<point x="417" y="0"/>
			<point x="515" y="46"/>
			<point x="583" y="122" type="curve"/>
		</contour>
	</outline>
</glyph>
<glyph name="e" format="2">
	<advance width="539"/>
	<unicode hex="0065"/>
	<outline>
		<contour>
			<point x="41" y="264" type="line"/>
			<point x="112" y="226"/>
			<point x="192" y="202"/>
			<point x="275" y="194" type="curve" smooth="yes"/>
			<point x="404" y="184"/>
			<point x="504" y="240"/>
			<point x="514" y="332" type="curve" smooth="yes"/>
			<point x="521" y="425"/>
			<point x="420" y="500"/>
			<point x="301" y="500" type="curve" smooth="yes"/>
			<point x="159" y="499"/>
			<point x="52" y="409"/>
			<point x="33" y="287" type="curve" smooth="yes"/>
			<point x="12" y="156"/>
			<point x="108" y="33"/>
			<point x="253" y="6" type="curve" smooth="yes"/>
			<point x="343" y="-13"/>
			<point x="439" y="13"/>
			<point x="509" y="74" type="curve"/>
			<point x="489" y="96" type="line"/>
			<point x="426" y="41"/>
			<point x="341" y="19"/>
			<point x="259" y="35" type="curve" smooth="yes"/>
			<point x="130" y="59"/>
			<point x="44" y="168"/>
			<point x="62" y="282" type="curve" smooth="yes"/>
			<point x="79" y="390"/>
			<point x="174" y="469"/>
			<point x="301" y="470" type="curve" smooth="yes"/>
			<point x="402" y="470"/>
			<point x="490" y="409"/>
			<point x="484" y="335" type="curve" smooth="yes"/>
			<point x="476" y="261"/>
			<point x="390" y="215"/>
			<point x="277" y="224" type="curve" smooth="yes"/>
			<point x="199" y="231"/>
			<point x="122" y="254"/>
			<point x="55" y="290" type="curve"/>
		</contour>
	</outline>
</glyph>
<glyph name="f" format="2">
	<advance width="502"/>
	<unicode hex="0066"/>
	<outline>
		<contour>
			<point x="40" y="-292" type="line"/>
			<point x="68" y="-276"/>
			<point x="94" y="-248"/>
			<point x="112" y="-216" type="curve" smooth="yes"/>
			<point x="200" y="-66"/>
			<point x="175" y="106"/>
			<point x="151" y="273" type="curve" smooth="yes"/>
			<point x="139" y="357"/>
			<point x="127" y="440"/>
			<point x="128" y="520" type="curve"/>
			<point x="137" y="634"/>
			<point x="196" y="723"/>
			<point x="280" y="750" type="curve" smooth="yes"/>
			<point x="360" y="774"/>
			<point x="448" y="760"/>
			<point x="509" y="715" type="curve"/>
			<point x="527" y="740" type="line"/>
			<point x="459" y="789"/>
			<point x="360" y="805"/>
			<point x="272" y="779" type="curve" smooth="yes"/>
			<point x="174" y="748"/>
			<point x="107" y="648"/>
			<point x="99" y="522" type="curve"/>
			<point x="94" y="273"/>
			<point x="211" y="13"/>
			<point x="86" y="-202" type="curve" smooth="yes"/>
			<point x="71" y="-229"/>
			<point x="48" y="-253"/>
			<point x="25" y="-266" type="curve"/>
		</contour>
		<contour>
			<point x="433" y="384" type="line"/>
			<point x="378" y="372"/>
			<point x="306" y="372"/>
			<point x="238" y="384" type="curve" smooth="yes"/>
			<point x="172" y="396"/>
			<point x="97" y="408"/>
			<point x="28" y="383" type="curve"/>
			<point x="38" y="355" type="line"/>
			<point x="100" y="378"/>
			<point x="167" y="366"/>
			<point x="233" y="354" type="curve" smooth="yes"/>
			<point x="304" y="341"/>
			<point x="380" y="341"/>
			<point x="440" y="354" type="curve"/>
		</contour>
	</outline>
</glyph>
<glyph name="g" format="2">
	<advance width="616"/>
	<unicode hex="0067"/>
	<outline>
		<contour>
			<point x="297" y="500" type="curve" smooth="yes"/>
			<point x="146" y="500"/>
			<point x="36" y="436"/>
			<point x="36" y="322" type="curve" smooth="yes"/>
			<point x="36" y="208"/>
			<point x="146" y="127"/>
			<point x="297" y="127" type="curve" smooth="yes"/>
			<point x="447" y="127"/>
			<point x="562" y="210"/>
			<point x="562" y="322" type="curve" smooth="yes"/>
			<point x="562" y="434"/>
			<point x="447" y="500"/>
		</contour>
		<contour>
			<point x="297" y="470" type="curve" smooth="yes"/>
			<point x="430" y="470"/>
			<point x="532" y="416"/>
			<point x="532" y="322" type="curve" smooth="yes"/>
			<point x="532" y="228"/>
			<point x="430" y="157"/>
			<point x="297" y="157" type="curve" smooth="yes"/>
			<point x="163" y="157"/>
			<point x="66" y="225"/>
			<point x="66" y="322" type="curve" smooth="yes"/>
			<point x="66" y="419"/>
			<point x="163" y="470"/>
		</contour>
		<contour>
			<point x="532" y="568" type="line"/>
			<point x="526" y="520"/>
			<point x="490" y="480"/>
			<point x="446" y="473" type="curve"/>
			<point x="451" y="443" type="line"/>
			<point x="508" y="453"/>
			<point x="554" y="503"/>
			<point x="562" y="564" type="curve"/>
		</contour>
		<contour>
			<point x="152" y="54" type="line"/>
			<point x="62" y="22"/>
			<point x="13" y="-63"/>
			<point x="36" y="-152" type="curve" smooth="yes"/>
			<point x="60" y="-241"/>
			<point x="151" y="-288"/>
			<point x="297" y="-289" type="curve" smooth="yes"/>
			<point x="480" y="-290"/>
			<point x="591" y="-229"/>
			<point x="596" y="-119" type="curve" smooth="yes"/>
			<point x="604" y="-8"/>
			<point x="488" y="64"/>
			<point x="323" y="59" type="curve" smooth="yes"/>
			<point x="160" y="54"/>
			<point x="66" y="42"/>
			<point x="66" y="113" type="curve" smooth="yes"/>
			<point x="66" y="169"/>
			<point x="128" y="203"/>
			<point x="199" y="247" type="curve"/>
			<point x="184" y="273" type="line"/>
			<point x="113" y="229"/>
			<point x="36" y="187"/>
			<point x="36" y="112" type="curve" smooth="yes"/>
			<point x="36" y="-7"/>
			<point x="208" y="28"/>
			<point x="324" y="29" type="curve" smooth="yes"/>
			<point x="472" y="30"/>
			<point x="573" y="-22"/>
			<point x="566" y="-118" type="curve" smooth="yes"/>
			<point x="559" y="-209"/>
			<point x="460" y="-261"/>
			<point x="297" y="-259" type="curve" smooth="yes"/>
			<point x="194" y="-258"/>
			<point x="89" y="-235"/>
			<point x="65" y="-144" type="curve" smooth="yes"/>
			<point x="46" y="-71"/>
			<point x="86" y="-2"/>
			<point x="160" y="25" type="curve"/>
		</contour>
	</outline>
</glyph>
<glyph name="h" format="2">
	<advance width="626"/>
	<unicode hex="0068"/>
	<outline>
		<contour>
			<point x="178" y="24" type="line"/>
			<point x="168" y="29"/>
			<point x="153" y="44"/>
			<point x="135" y="82" type="curve" smooth="yes"/>
			<point x="93" y="172"/>
			<point x="102" y="255"/>
			<point x="117" y="381" type="curve" smooth="yes"/>
			<point x="128" y="469"/>
			<point x="139" y="560"/>
			<point x="116" y="646" type="curve" smooth="yes"/>
			<point x="100" y="708"/>
			<point x="77" y="753"/>
			<point x="41" y="786" type="curve"/>
			<point x="20" y="765" type="line"/>
			<point x="52" y="735"/>
			<point x="73" y="696"/>
			<point x="87" y="639" type="curve" smooth="yes"/>
			<point x="133" y="463"/>
			<point x="20" y="244"/>
			<point x="110" y="63" type="curve" smooth="yes"/>
			<point x="121" y="41"/>
			<point x="139" y="10"/>
			<point x="165" y="-3" type="curve"/>
		</contour>
		<contour>
			<point x="601" y="24" type="line"/>
			<point x="586" y="31"/>
			<point x="574" y="46"/>
			<point x="559" y="76" type="curve" smooth="yes"/>
			<point x="543" y="117"/>
			<point x="546" y="160"/>
			<point x="549" y="207" type="curve" smooth="yes"/>
			<point x="553" y="253"/>
			<point x="557" y="303"/>
			<point x="538" y="351" type="curve" smooth="yes"/>
			<point x="509" y="443"/>
			<point x="422" y="500"/>
			<point x="312" y="500" type="curve" smooth="yes"/>
			<point x="219" y="500"/>
			<point x="134" y="445"/>
			<point x="88" y="354" type="curve"/>
			<point x="112" y="340" type="line"/>
			<point x="156" y="422"/>
			<point x="230" y="470"/>
			<point x="313" y="470" type="curve" smooth="yes"/>
			<point x="408" y="470"/>
			<point x="480" y="420"/>
			<point x="510" y="341" type="curve" smooth="yes"/>
			<point x="542" y="255"/>
			<point x="492" y="162"/>
			<point x="532" y="63" type="curve" smooth="yes"/>
			<point x="550" y="27"/>
			<point x="566" y="8"/>
			<point x="588" y="-3" type="curve"/>
		</contour>
	</outline>
</glyph>
<glyph name="i" format="2">
	<advance width="268"/>
	<unicode hex="0069"/>
	<outline>
		<contour>
			<point x="243" y="24" type="line"/>
			<point x="223" y="34"/>
			<point x="205" y="52"/>
			<point x="194" y="76" type="curve" smooth="yes"/>
			<point x="156" y="161"/>
			<point x="182" y="277"/>
			<point x="182" y="348" type="curve" smooth="yes"/>
			<point x="182" y="437"/>
			<point x="152" y="488"/>
			<point x="90" y="505" type="curve"/>
			<point x="15" y="355" type="line"/>
			<point x="42" y="342" type="line"/>
			<point x="105" y="467" type="line"/>
			<point x="137" y="448"/>
			<point x="152" y="411"/>
			<point x="152" y="348" type="curve" smooth="yes"/>
			<point x="152" y="259"/>
			<point x="124" y="158"/>
			<point x="167" y="63" type="curve" smooth="yes"/>
			<point x="180" y="34"/>
			<point x="204" y="10"/>
			<point x="229" y="-3" type="curve"/>
		</contour>
		<contour>
			<point x="152" y="790" type="line"/>
			<point x="152" y="732"/>
			<point x="142" y="689"/>
			<point x="120" y="655" type="curve"/>
			<point x="145" y="639" type="line"/>
			<point x="170" y="678"/>
			<point x="182" y="726"/>
			<point x="182" y="790" type="curve"/>
		</contour>
	</outline>
</glyph>
<glyph name="j" format="2">
	<advance width="219"/>
	<unicode hex="006A"/>
	<outline>
		<contour>
			<point x="43" y="-291" type="line"/>
			<point x="104" y="-246"/>
			<point x="148" y="-174"/>
			<point x="171" y="-82" type="curve" smooth="yes"/>
			<point x="206" y="55"/>
			<point x="192" y="206"/>
			<point x="185" y="347" type="curve" smooth="yes"/>
			<point x="181" y="427"/>
			<point x="150" y="484"/>
			<point x="95" y="508" type="curve"/>
			<point x="20" y="355" type="line"/>
			<point x="47" y="341" type="line"/>
			<point x="108" y="465" type="line"/>
			<point x="136" y="441"/>
			<point x="153" y="400"/>
			<point x="155" y="345" type="curve" smooth="yes"/>
			<point x="162" y="204"/>
			<point x="176" y="58"/>
			<point x="142" y="-74" type="curve" smooth="yes"/>
			<point x="120" y="-160"/>
			<point x="80" y="-226"/>
			<point x="25" y="-267" type="curve"/>
		</contour>
		<contour>
			<point x="146" y="790" type="line"/>
			<point x="146" y="732"/>
			<point x="136" y="689"/>
			<point x="114" y="654" type="curve"/>
			<point x="140" y="638" type="line"/>
			<point x="164" y="678"/>
			<point x="176" y="727"/>
			<point x="176" y="790" type="curve"/>
		</contour>
	</outline>
</glyph>
<glyph name="k" format="2">
	<advance width="608"/>
	<unicode hex="006B"/>
	<outline>
		<contour>
			<point x="179" y="24" type="line"/>
			<point x="160" y="34"/>
			<point x="141" y="54"/>
			<point x="129" y="78" type="curve" smooth="yes"/>
			<point x="81" y="176"/>
			<point x="95" y="283"/>
			<point x="111" y="395" type="curve" smooth="yes"/>
			<point x="122" y="480"/>
			<point x="134" y="567"/>
			<point x="116" y="650" type="curve" smooth="yes"/>
			<point x="104" y="708"/>
			<point x="79" y="756"/>
			<point x="41" y="792" type="curve"/>
			<point x="20" y="770" type="line"/>
			<point x="54" y="738"/>
			<point x="76" y="696"/>
			<point x="87" y="644" type="curve" smooth="yes"/>
			<point x="125" y="465"/>
			<point x="12" y="248"/>
			<point x="102" y="65" type="curve" smooth="yes"/>
			<point x="117" y="35"/>
			<point x="140" y="10"/>
			<point x="166" y="-3" type="curve"/>
		</contour>
		<contour>
			<point x="116" y="362" type="curve"/>
			<point x="178" y="435"/>
			<point x="248" y="462"/>
			<point x="319" y="474" type="curve" smooth="yes"/>
			<point x="423" y="492"/>
			<point x="553" y="459"/>
			<point x="548" y="360" type="curve" smooth="yes"/>
			<point x="543" y="263"/>
			<point x="414" y="217"/>
			<point x="284" y="266" type="curve" smooth="yes"/>
			<point x="234" y="284"/>
			<point x="180" y="314"/>
		</contour>
		<contour>
			<point x="83" y="369" type="curve"/>
			<point x="85" y="347" type="line"/>
			<point x="143" y="304"/>
			<point x="207" y="261"/>
			<point x="274" y="237" type="curve" smooth="yes"/>
			<point x="423" y="182"/>
			<point x="572" y="239"/>
			<point x="578" y="358" type="curve" smooth="yes"/>
			<point x="584" y="479"/>
			<point x="436" y="525"/>
			<point x="312" y="503" type="curve" smooth="yes"/>
			<point x="233" y="489"/>
			<point x="149" y="452"/>
		</contour>
		<contour>
			<point x="598" y="30" type="line"/>
			<point x="467" y="29"/>
			<point x="342" y="121"/>
			<point x="293" y="256" type="curve"/>
			<point x="264" y="246" type="line"/>
			<point x="318" y="100"/>
			<point x="455" y="-1"/>
			<point x="598" y="0" type="curve"/>
		</contour>
	</outline>
</glyph>
<glyph name="l" format="2">
	<advance width="203"/>
	<unicode hex="006C"/>
	<outline>
		<contour>
			<point x="178" y="24" type="line"/>
			<point x="168" y="29"/>
			<point x="160" y="40"/>
			<point x="143" y="66" type="curve" smooth="yes"/>
			<point x="141" y="70"/>
			<point x="138" y="75"/>
			<point x="135" y="79" type="curve"/>
			<point x="91" y="172"/>
			<point x="104" y="274"/>
			<point x="117" y="381" type="curve" smooth="yes"/>
			<point x="128" y="469"/>
			<point x="139" y="560"/>
			<point x="116" y="646" type="curve" smooth="yes"/>
			<point x="100" y="708"/>
			<point x="77" y="753"/>
			<point x="41" y="786" type="curve"/>
			<point x="20" y="765" type="line"/>
			<point x="52" y="735"/>
			<point x="73" y="696"/>
			<point x="87" y="639" type="curve" smooth="yes"/>
			<point x="134" y="461"/>
			<point x="23" y="247"/>
			<point x="109" y="65" type="curve" smooth="yes"/>
			<point x="110" y="63" type="line" smooth="yes"/>
			<point x="123" y="42"/>
			<point x="139" y="10"/>
			<point x="165" y="-3" type="curve"/>
		</contour>
	</outline>
</glyph>
<glyph name="m" format="2">
	<advance width="980"/>
	<unicode hex="006D"/>
	<outline>
		<contour>
			<point x="176" y="24" type="line"/>
			<point x="157" y="34"/>
			<point x="136" y="52"/>
			<point x="126" y="77" type="curve" smooth="yes"/>
			<point x="106" y="129"/>
			<point x="111" y="182"/>
			<point x="114" y="239" type="curve" smooth="yes"/>
			<point x="117" y="278"/>
			<point x="119" y="319"/>
			<point x="113" y="359" type="curve" smooth="yes"/>
			<point x="105" y="427"/>
			<point x="78" y="477"/>
			<point x="35" y="501" type="curve"/>
			<point x="20" y="475" type="line"/>
			<point x="55" y="456"/>
			<point x="76" y="415"/>
			<point x="84" y="355" type="curve" smooth="yes"/>
			<point x="97" y="265"/>
			<point x="61" y="163"/>
			<point x="99" y="65" type="curve" smooth="yes"/>
			<point x="111" y="34"/>
			<point x="137" y="10"/>
			<point x="163" y="-3" type="curve"/>
		</contour>
		<contour>
			<point x="565" y="24" type="line"/>
			<point x="546" y="34"/>
			<point x="526" y="51"/>
			<point x="516" y="76" type="curve" smooth="yes"/>
			<point x="498" y="119"/>
			<point x="503" y="164"/>
			<point x="508" y="213" type="curve" smooth="yes"/>
			<point x="512" y="257"/>
			<point x="517" y="305"/>
			<point x="502" y="351" type="curve" smooth="yes"/>
			<point x="472" y="447"/>
			<point x="380" y="507"/>
			<point x="274" y="500" type="curve" smooth="yes"/>
			<point x="191" y="492"/>
			<point x="115" y="433"/>
			<point x="85" y="352" type="curve"/>
			<point x="113" y="342" type="line"/>
			<point x="139" y="412"/>
			<point x="205" y="463"/>
			<point x="277" y="470" type="curve" smooth="yes"/>
			<point x="369" y="476"/>
			<point x="447" y="425"/>
			<point x="474" y="342" type="curve" smooth="yes"/>
			<point x="500" y="257"/>
			<point x="449" y="160"/>
			<point x="489" y="63" type="curve" smooth="yes"/>
			<point x="501" y="33"/>
			<point x="527" y="10"/>
			<point x="552" y="-3" type="curve"/>
		</contour>
		<contour>
			<point x="955" y="24" type="line"/>
			<point x="935" y="34"/>
			<point x="915" y="51"/>
			<point x="905" y="76" type="curve" smooth="yes"/>
			<point x="887" y="119"/>
			<point x="893" y="164"/>
			<point x="897" y="213" type="curve" smooth="yes"/>
			<point x="902" y="257"/>
			<point x="906" y="305"/>
			<point x="892" y="351" type="curve" smooth="yes"/>
			<point x="861" y="447"/>
			<point x="770" y="507"/>
			<point x="664" y="500" type="curve" smooth="yes"/>
			<point x="580" y="492"/>
			<point x="504" y="433"/>
			<point x="474" y="352" type="curve"/>
			<point x="502" y="342" type="line"/>
			<point x="528" y="412"/>
			<point x="594" y="463"/>
			<point x="666" y="470" type="curve" smooth="yes"/>
			<point x="758" y="476"/>
			<point x="837" y="425"/>
			<point x="863" y="342" type="curve" smooth="yes"/>
			<point x="889" y="258"/>
			<point x="839" y="158"/>
			<point x="878" y="63" type="curve" smooth="yes"/>
			<point x="890" y="33"/>
			<point x="916" y="10"/>
			<point x="942" y="-3" type="curve"/>
		</contour>
	</outline>
</glyph>
<glyph name="n" format="2">
	<advance width="623"/>
	<unicode hex="006E"/>
	<outline>
		<contour>
			<point x="176" y="24" type="line"/>
			<point x="156" y="34"/>
			<point x="138" y="53"/>
			<point x="126" y="77" type="curve" smooth="yes"/>
			<point x="107" y="129"/>
			<point x="110" y="182"/>
			<point x="114" y="239" type="curve" smooth="yes"/>
			<point x="116" y="278"/>
			<point x="119" y="319"/>
			<point x="113" y="359" type="curve" smooth="yes"/>
			<point x="105" y="427"/>
			<point x="78" y="477"/>
			<point x="35" y="501" type="curve"/>
			<point x="20" y="475" type="line"/>
			<point x="54" y="456"/>
			<point x="76" y="415"/>
			<point x="83" y="355" type="curve" smooth="yes"/>
			<point x="97" y="265"/>
			<point x="61" y="163"/>
			<point x="98" y="66" type="curve"/>
			<point x="99" y="65" type="line" smooth="yes"/>
			<point x="114" y="35"/>
			<point x="137" y="10"/>
			<point x="162" y="-3" type="curve"/>
		</contour>
		<contour>
			<point x="598" y="24" type="line"/>
			<point x="579" y="34"/>
			<point x="561" y="52"/>
			<point x="549" y="76" type="curve" smooth="yes"/>
			<point x="532" y="119"/>
			<point x="536" y="164"/>
			<point x="541" y="213" type="curve" smooth="yes"/>
			<point x="545" y="257"/>
			<point x="550" y="305"/>
			<point x="535" y="351" type="curve" smooth="yes"/>
			<point x="506" y="443"/>
			<point x="419" y="500"/>
			<point x="310" y="500" type="curve" smooth="yes"/>
			<point x="216" y="500"/>
			<point x="131" y="445"/>
			<point x="85" y="354" type="curve"/>
			<point x="112" y="340" type="line"/>
			<point x="153" y="422"/>
			<point x="227" y="470"/>
			<point x="310" y="470" type="curve" smooth="yes"/>
			<point x="407" y="470"/>
			<point x="482" y="421"/>
			<point x="507" y="342" type="curve" smooth="yes"/>
			<point x="533" y="258"/>
			<point x="484" y="158"/>
			<point x="521" y="64" type="curve"/>
			<point x="522" y="63" type="line" smooth="yes"/>
			<point x="536" y="34"/>
			<point x="559" y="10"/>
			<point x="585" y="-3" type="curve"/>
		</contour>
	</outline>
</glyph>
<glyph name="o" format="2">
	<advance width="586"/>
	<unicode hex="006F"/>
	<outline>
		<contour>
			<point x="292" y="470" type="curve" smooth="yes"/>
			<point x="435" y="470"/>
			<point x="543" y="352"/>
			<point x="523" y="218" type="curve" smooth="yes"/>
			<point x="507" y="111"/>
			<point x="408" y="30"/>
			<point x="292" y="30" type="curve" smooth="yes"/>
			<point x="175" y="30"/>
			<point x="76" y="111"/>
			<point x="62" y="218" type="curve" smooth="yes"/>
			<point x="44" y="351"/>
			<point x="153" y="470"/>
		</contour>
		<contour>
			<point x="292" y="500" type="curve" smooth="yes"/>
			<point x="135" y="500"/>
			<point x="12" y="365"/>
			<point x="32" y="214" type="curve" smooth="yes"/>
			<point x="48" y="91"/>
			<point x="160" y="0"/>
			<point x="292" y="0" type="curve" smooth="yes"/>
			<point x="422" y="0"/>
			<point x="534" y="92"/>
			<point x="553" y="214" type="curve" smooth="yes"/>
			<point x="575" y="366"/>
			<point x="453" y="500"/>
		</contour>
	</outline>
</glyph>
<glyph name="p" format="2">
	<advance width="640"/>
	<unicode hex="0070"/>
	<outline>
		<contour>
			<point x="179" y="-265" type="line"/>
			<point x="164" y="-254"/>
			<point x="145" y="-230"/>
			<point x="128" y="-197" type="curve" smooth="yes"/>
			<point x="78" y="-103"/>
			<point x="92" y="-1"/>
			<point x="107" y="111" type="curve" smooth="yes"/>
			<point x="118" y="193"/>
			<point x="130" y="278"/>
			<point x="115" y="361" type="curve" smooth="yes"/>
			<point x="105" y="414"/>
			<point x="77" y="467"/>
			<point x="40" y="501" type="curve"/>
			<point x="20" y="480" type="line"/>
			<point x="52" y="449"/>
			<point x="77" y="403"/>
			<point x="85" y="356" type="curve" smooth="yes"/>
			<point x="118" y="171"/>
			<point x="9" y="-38"/>
			<point x="101" y="-211" type="curve" smooth="yes"/>
			<point x="120" y="-248"/>
			<point x="142" y="-276"/>
			<point x="162" y="-290" type="curve"/>
		</contour>
		<contour>
			<point x="87" y="146" type="line"/>
			<point x="136" y="56"/>
			<point x="237" y="0"/>
			<point x="347" y="0" type="curve" smooth="yes"/>
			<point x="482" y="0"/>
			<point x="590" y="88"/>
			<point x="608" y="214" type="curve" smooth="yes"/>
			<point x="630" y="365"/>
			<point x="496" y="500"/>
			<point x="326" y="500" type="curve" smooth="yes"/>
			<point x="228" y="500"/>
			<point x="131" y="441"/>
			<point x="86" y="354" type="curve"/>
			<point x="113" y="340" type="line"/>
			<point x="153" y="417"/>
			<point x="239" y="470"/>
			<point x="326" y="470" type="curve" smooth="yes"/>
			<point x="478" y="470"/>
			<point x="598" y="351"/>
			<point x="579" y="219" type="curve" smooth="yes"/>
			<point x="562" y="107"/>
			<point x="467" y="30"/>
			<point x="347" y="30" type="curve" smooth="yes"/>
			<point x="247" y="30"/>
			<point x="158" y="80"/>
			<point x="113" y="160" type="curve"/>
		</contour>
	</outline>
</glyph>
<glyph name="q" format="2">
	<advance width="644"/>
	<unicode hex="0071"/>
	<outline>
		<contour>
			<point x="619" y="-270" type="line"/>
			<point x="604" y="-254"/>
			<point x="588" y="-233"/>
			<point x="572" y="-200" type="curve" smooth="yes"/>
			<point x="532" y="-122"/>
			<point x="540" y="-31"/>
			<point x="547" y="64" type="curve" smooth="yes"/>
			<point x="550" y="91"/>
			<point x="552" y="119"/>
			<point x="553" y="146" type="curve" smooth="yes"/>
			<point x="555" y="190"/>
			<point x="554" y="238"/>
			<point x="554" y="289" type="curve" smooth="yes"/>
			<point x="553" y="311"/>
			<point x="553" y="335"/>
			<point x="553" y="358" type="curve" smooth="yes"/>
			<point x="553" y="412"/>
			<point x="577" y="457"/>
			<point x="615" y="474" type="curve"/>
			<point x="602" y="501" type="line"/>
			<point x="554" y="479"/>
			<point x="523" y="423"/>
			<point x="523" y="359" type="curve" smooth="yes"/>
			<point x="523" y="281"/>
			<point x="526" y="210"/>
			<point x="523" y="147" type="curve" smooth="yes"/>
			<point x="518" y="28"/>
			<point x="489" y="-104"/>
			<point x="546" y="-214" type="curve" smooth="yes"/>
			<point x="563" y="-250"/>
			<point x="581" y="-274"/>
			<point x="598" y="-292" type="curve"/>
		</contour>
		<contour>
			<point x="525" y="160" type="line"/>
			<point x="481" y="80"/>
			<point x="391" y="30"/>
			<point x="291" y="30" type="curve" smooth="yes"/>
			<point x="159" y="30"/>
			<point x="60" y="124"/>
			<point x="60" y="250" type="curve" smooth="yes"/>
			<point x="60" y="373"/>
			<point x="162" y="470"/>
			<point x="291" y="470" type="curve" smooth="yes"/>
			<point x="385" y="470"/>
			<point x="479" y="418"/>
			<point x="525" y="339" type="curve"/>
			<point x="551" y="355" type="line"/>
			<point x="499" y="442"/>
			<point x="395" y="500"/>
			<point x="291" y="500" type="curve" smooth="yes"/>
			<point x="146" y="500"/>
			<point x="30" y="389"/>
			<point x="30" y="250" type="curve" smooth="yes"/>
			<point x="30" y="107"/>
			<point x="142" y="0"/>
			<point x="291" y="0" type="curve" smooth="yes"/>
			<point x="402" y="0"/>
			<point x="502" y="56"/>
			<point x="551" y="146" type="curve"/>
		</contour>
	</outline>
</glyph>
<glyph name="r" format="2">
	<advance width="507"/>
	<unicode hex="0072"/>
	<outline>
		<contour>
			<point x="175" y="24" type="line"/>
			<point x="156" y="34"/>
			<point x="135" y="52"/>
			<point x="126" y="77" type="curve" smooth="yes"/>
			<point x="108" y="129"/>
			<point x="110" y="182"/>
			<point x="114" y="239" type="curve" smooth="yes"/>
			<point x="116" y="278"/>
			<point x="119" y="319"/>
			<point x="113" y="359" type="curve" smooth="yes"/>
			<point x="104" y="427"/>
			<point x="78" y="477"/>
			<point x="35" y="501" type="curve"/>
			<point x="20" y="475" type="line"/>
			<point x="54" y="456"/>
			<point x="76" y="415"/>
			<point x="83" y="355" type="curve" smooth="yes"/>
			<point x="97" y="263"/>
			<point x="61" y="165"/>
			<point x="99" y="65" type="curve" smooth="yes"/>
			<point x="111" y="34"/>
			<point x="136" y="10"/>
			<point x="161" y="-3" type="curve"/>
		</contour>
		<contour>
			<point x="492" y="467" type="line"/>
			<point x="446" y="496"/>
			<point x="383" y="507"/>
			<point x="307" y="500" type="curve" smooth="yes"/>
			<point x="223" y="493"/>
			<point x="139" y="438"/>
			<point x="85" y="355" type="curve"/>
			<point x="111" y="339" type="line"/>
			<point x="160" y="415"/>
			<point x="234" y="464"/>
			<point x="310" y="470" type="curve" smooth="yes"/>
			<point x="379" y="477"/>
			<point x="435" y="467"/>
			<point x="476" y="441" type="curve"/>
		</contour>
	</outline>
</glyph>
<glyph name="s" format="2">
	<advance width="528"/>
	<unicode hex="0073"/>
	<outline>
		<contour>
			<point x="20" y="84" type="line"/>
			<point x="101" y="14"/>
			<point x="212" y="0"/>
			<point x="311" y="0" type="curve" smooth="yes"/>
			<point x="416" y="0"/>
			<point x="495" y="46"/>
			<point x="502" y="114" type="curve" smooth="yes"/>
			<point x="511" y="194"/>
			<point x="434" y="244"/>
			<point x="278" y="265" type="curve" smooth="yes"/>
			<point x="193" y="276"/>
			<point x="92" y="285"/>
			<point x="80" y="354" type="curve" smooth="yes"/>
			<point x="69" y="418"/>
			<point x="141" y="470"/>
			<point x="241" y="470" type="curve" smooth="yes"/>
			<point x="334" y="470"/>
			<point x="397" y="450"/>
			<point x="441" y="408" type="curve"/>
			<point x="462" y="430" type="line"/>
			<point x="412" y="477"/>
			<point x="340" y="500"/>
			<point x="241" y="500" type="curve" smooth="yes"/>
			<point x="122" y="500"/>
			<point x="36" y="432"/>
			<point x="50" y="348" type="curve" smooth="yes"/>
			<point x="66" y="257"/>
			<point x="190" y="246"/>
			<point x="274" y="235" type="curve" smooth="yes"/>
			<point x="377" y="221"/>
			<point x="481" y="192"/>
			<point x="472" y="117" type="curve" smooth="yes"/>
			<point x="467" y="67"/>
			<point x="400" y="30"/>
			<point x="311" y="30" type="curve" smooth="yes"/>
			<point x="186" y="30"/>
			<point x="101" y="54"/>
			<point x="40" y="107" type="curve"/>
		</contour>
	</outline>
</glyph>
<glyph name="t" format="2">
	<advance width="416"/>
	<unicode hex="0074"/>
	<outline>
		<contour>
			<point x="378" y="58" type="line"/>
			<point x="331" y="22"/>
			<point x="275" y="11"/>
			<point x="217" y="29" type="curve" smooth="yes"/>
			<point x="186" y="39"/>
			<point x="157" y="61"/>
			<point x="134" y="92" type="curve" smooth="yes"/>
			<point x="86" y="161"/>
			<point x="95" y="244"/>
			<point x="105" y="335" type="curve" smooth="yes"/>
			<point x="110" y="389"/>
			<point x="117" y="446"/>
			<point x="109" y="500" type="curve" smooth="yes"/>
			<point x="101" y="549"/>
			<point x="81" y="600"/>
			<point x="50" y="649" type="curve"/>
			<point x="25" y="633" type="line"/>
			<point x="54" y="587"/>
			<point x="72" y="540"/>
			<point x="79" y="495" type="curve" smooth="yes"/>
			<point x="99" y="363"/>
			<point x="23" y="198"/>
			<point x="109" y="75" type="curve" smooth="yes"/>
			<point x="136" y="38"/>
			<point x="170" y="12"/>
			<point x="208" y="0" type="curve" smooth="yes"/>
			<point x="274" y="-20"/>
			<point x="343" y="-7"/>
			<point x="396" y="34" type="curve"/>
		</contour>
		<contour>
			<point x="386" y="500" type="line"/>
			<point x="94" y="500" type="line"/>
			<point x="94" y="470" type="line"/>
			<point x="386" y="470" type="line"/>
		</contour>
	</outline>
</glyph>
<glyph name="u" format="2">
	<advance width="590"/>
	<unicode hex="0075"/>
	<outline>
		<contour>
			<point x="469" y="159" type="line"/>
			<point x="435" y="85"/>
			<point x="354" y="30"/>
			<point x="279" y="30" type="curve" smooth="yes"/>
			<point x="186" y="30"/>
			<point x="108" y="81"/>
			<point x="82" y="158" type="curve" smooth="yes"/>
			<point x="69" y="201"/>
			<point x="73" y="244"/>
			<point x="78" y="290" type="curve" smooth="yes"/>
			<point x="80" y="313"/>
			<point x="83" y="337"/>
			<point x="83" y="361" type="curve" smooth="yes"/>
			<point x="83" y="409"/>
			<point x="69" y="461"/>
			<point x="46" y="501" type="curve"/>
			<point x="20" y="486" type="line"/>
			<point x="40" y="451"/>
			<point x="53" y="404"/>
			<point x="53" y="361" type="curve" smooth="yes"/>
			<point x="53" y="293"/>
			<point x="31" y="222"/>
			<point x="54" y="149" type="curve" smooth="yes"/>
			<point x="84" y="60"/>
			<point x="174" y="0"/>
			<point x="279" y="0" type="curve" smooth="yes"/>
			<point x="365" y="0"/>
			<point x="457" y="62"/>
			<point x="496" y="146" type="curve"/>
		</contour>
		<contour>
			<point x="565" y="26" type="line"/>
			<point x="545" y="33"/>
			<point x="533" y="46"/>
			<point x="517" y="78" type="curve" smooth="yes"/>
			<point x="489" y="140"/>
			<point x="494" y="207"/>
			<point x="500" y="275" type="curve" smooth="yes"/>
			<point x="502" y="302"/>
			<point x="505" y="330"/>
			<point x="505" y="356" type="curve" smooth="yes"/>
			<point x="505" y="406"/>
			<point x="491" y="460"/>
			<point x="468" y="501" type="curve"/>
			<point x="442" y="486" type="line"/>
			<point x="462" y="450"/>
			<point x="475" y="401"/>
			<point x="475" y="356" type="curve" smooth="yes"/>
			<point x="475" y="265"/>
			<point x="446" y="162"/>
			<point x="490" y="65" type="curve" smooth="yes"/>
			<point x="509" y="26"/>
			<point x="528" y="7"/>
			<point x="555" y="-2" type="curve"/>
		</contour>
	</outline>
</glyph>
<glyph name="v" format="2">
	<advance width="544"/>
	<unicode hex="0076"/>
	<outline>
		<contour>
			<point x="512" y="501" type="line"/>
			<point x="475" y="476"/>
			<point x="445" y="426"/>
			<point x="435" y="363" type="curve" smooth="yes"/>
			<point x="424" y="297"/>
			<point x="427" y="169"/>
			<point x="368" y="93" type="curve" smooth="yes"/>
			<point x="335" y="52"/>
			<point x="287" y="32"/>
			<point x="215" y="30" type="curve"/>
			<point x="43" y="500" type="line"/>
			<point x="15" y="489" type="line"/>
			<point x="194" y="0" type="line"/>
			<point x="287" y="-2"/>
			<point x="350" y="22"/>
			<point x="392" y="75" type="curve" smooth="yes"/>
			<point x="459" y="162"/>
			<point x="449" y="269"/>
			<point x="464" y="357" type="curve" smooth="yes"/>
			<point x="474" y="413"/>
			<point x="499" y="455"/>
			<point x="529" y="477" type="curve"/>
		</contour>
	</outline>
</glyph>
<glyph name="w" format="2">
	<advance width="832"/>
	<unicode hex="0077"/>
	<outline>
		<contour>
			<point x="405" y="374" type="line"/>
			<point x="378" y="323"/>
			<point x="362" y="267"/>
			<point x="346" y="209" type="curve" smooth="yes"/>
			<point x="342" y="193"/>
			<point x="338" y="177"/>
			<point x="333" y="160" type="curve" smooth="yes"/>
			<point x="311" y="81"/>
			<point x="269" y="36"/>
			<point x="216" y="30" type="curve"/>
			<point x="43" y="500" type="line"/>
			<point x="15" y="490" type="line"/>
			<point x="195" y="0" type="line"/>
			<point x="273" y="-5"/>
			<point x="334" y="51"/>
			<point x="362" y="152" type="curve" smooth="yes"/>
			<point x="384" y="229"/>
			<point x="399" y="299"/>
			<point x="431" y="360" type="curve"/>
		</contour>
		<contour>
			<point x="797" y="502" type="line"/>
			<point x="758" y="466"/>
			<point x="734" y="422"/>
			<point x="722" y="365" type="curve" smooth="yes"/>
			<point x="715" y="336"/>
			<point x="712" y="306"/>
			<point x="709" y="276" type="curve" smooth="yes"/>
			<point x="702" y="208"/>
			<point x="695" y="143"/>
			<point x="654" y="94" type="curve" smooth="yes"/>
			<point x="623" y="56"/>
			<point x="581" y="34"/>
			<point x="535" y="30" type="curve"/>
			<point x="397" y="500" type="line"/>
			<point x="368" y="492" type="line"/>
			<point x="513" y="0" type="line"/>
			<point x="575" y="-4"/>
			<point x="636" y="25"/>
			<point x="677" y="75" type="curve" smooth="yes"/>
			<point x="744" y="155"/>
			<point x="731" y="269"/>
			<point x="751" y="358" type="curve" smooth="yes"/>
			<point x="762" y="410"/>
			<point x="783" y="448"/>
			<point x="817" y="479" type="curve"/>
		</contour>
	</outline>
</glyph>
<glyph name="x" format="2">
	<advance width="527"/>
	<unicode hex="0078"/>
	<outline>
		<contour>
			<point x="512" y="29" type="line"/>
			<point x="402" y="55"/>
			<point x="312" y="146"/>
			<point x="276" y="268" type="curve"/>
			<point x="246" y="398"/>
			<point x="140" y="493"/>
			<point x="17" y="500" type="curve"/>
			<point x="15" y="470" type="line"/>
			<point x="125" y="464"/>
			<point x="220" y="378"/>
			<point x="248" y="260" type="curve"/>
			<point x="286" y="128"/>
			<point x="385" y="28"/>
			<point x="505" y="0" type="curve"/>
		</contour>
		<contour>
			<point x="16" y="0" type="line"/>
			<point x="158" y="7"/>
			<point x="269" y="120"/>
			<point x="277" y="263" type="curve"/>
			<point x="290" y="393"/>
			<point x="391" y="484"/>
			<point x="506" y="470" type="curve"/>
			<point x="510" y="500" type="line"/>
			<point x="377" y="515"/>
			<point x="262" y="412"/>
			<point x="247" y="265" type="curve"/>
			<point x="240" y="137"/>
			<point x="141" y="36"/>
			<point x="15" y="30" type="curve"/>
		</contour>
	</outline>
</glyph>
<glyph name="y" format="2">
	<advance width="516"/>
	<unicode hex="0079"/>
	<outline>
		<contour>
			<point x="343" y="27" type="line"/>
			<point x="244" y="6"/>
			<point x="147" y="57"/>
			<point x="112" y="146" type="curve" smooth="yes"/>
			<point x="86" y="216"/>
			<point x="84" y="285"/>
			<point x="78" y="358" type="curve" smooth="yes"/>
			<point x="73" y="419"/>
			<point x="61" y="466"/>
			<point x="41" y="501" type="curve"/>
			<point x="15" y="486" type="line"/>
			<point x="32" y="456"/>
			<point x="44" y="412"/>
			<point x="48" y="355" type="curve" smooth="yes"/>
			<point x="54" y="283"/>
			<point x="56" y="210"/>
			<point x="84" y="136" type="curve" smooth="yes"/>
			<point x="124" y="33"/>
			<point x="237" y="-26"/>
			<point x="349" y="-2" type="curve"/>
		</contour>
		<contour>
			<point x="179" y="-291" type="line"/>
			<point x="265" y="-220"/>
			<point x="331" y="-116"/>
			<point x="360" y="-3" type="curve" smooth="yes"/>
			<point x="403" y="168"/>
			<point x="452" y="332"/>
			<point x="501" y="491" type="curve"/>
			<point x="473" y="500" type="line"/>
			<point x="423" y="340"/>
			<point x="374" y="176"/>
			<point x="331" y="5" type="curve" smooth="yes"/>
			<point x="303" y="-102"/>
			<point x="241" y="-201"/>
			<point x="160" y="-267" type="curve"/>
		</contour>
	</outline>
</glyph>
<glyph name="z" format="2">
	<advance width="580"/>
	<unicode hex="007A"/>
	<outline>
		<contour>
			<point x="529" y="151" type="line"/>
			<point x="537" y="87"/>
			<point x="490" y="30"/>
			<point x="429" y="30" type="curve" smooth="yes"/>
			<point x="80" y="30" type="line"/>
			<point x="147" y="116"/>
			<point x="218" y="180"/>
			<point x="305" y="237" type="curve" smooth="yes"/>
			<point x="414" y="309"/>
			<point x="506" y="395"/>
			<point x="554" y="500" type="curve"/>
			<point x="127" y="500" type="line"/>
			<point x="52" y="354" type="line"/>
			<point x="79" y="341" type="line"/>
			<point x="145" y="470" type="line"/>
			<point x="505" y="470" type="line"/>
			<point x="453" y="387"/>
			<point x="379" y="324"/>
			<point x="291" y="263" type="curve" smooth="yes"/>
			<point x="185" y="189"/>
			<point x="89" y="111"/>
			<point x="25" y="0" type="curve"/>
			<point x="429" y="0" type="line" smooth="yes"/>
			<point x="508" y="0"/>
			<point x="569" y="73"/>
			<point x="559" y="154" type="curve"/>
		</contour>
	</outline>
</glyph>
<glyph name="braceleft" format="2">
	<advance width="460"/>
	<unicode hex="007B"/>
	<outline>
		<contour>
			<point x="360" y="-260" type="line"/>
			<point x="256" y="-260" type="line" smooth="yes"/>
			<point x="224" y="-260"/>
			<point x="201" y="-234"/>
			<point x="201" y="-198" type="curve" smooth="yes"/>
			<point x="201" y="184" type="line" smooth="yes"/>
			<point x="201" y="227"/>
			<point x="176" y="265"/>
			<point x="137" y="286" type="curve"/>
			<point x="176" y="306"/>
			<point x="201" y="345"/>
			<point x="201" y="393" type="curve" smooth="yes"/>
			<point x="201" y="706" type="line" smooth="yes"/>
			<point x="201" y="736"/>
			<point x="226" y="760"/>
			<point x="256" y="760" type="curve" smooth="yes"/>
			<point x="360" y="760" type="line"/>
			<point x="360" y="790" type="line"/>
			<point x="256" y="790" type="line" smooth="yes"/>
			<point x="209" y="790"/>
			<point x="171" y="752"/>
			<point x="171" y="706" type="curve" smooth="yes"/>
			<point x="171" y="393" type="line" smooth="yes"/>
			<point x="171" y="342"/>
			<point x="133" y="303"/>
			<point x="82" y="303" type="curve"/>
			<point x="80" y="274" type="line"/>
			<point x="133" y="267"/>
			<point x="171" y="229"/>
			<point x="171" y="184" type="curve" smooth="yes"/>
			<point x="171" y="-198" type="line" smooth="yes"/>
			<point x="171" y="-250"/>
			<point x="208" y="-290"/>
			<point x="256" y="-290" type="curve" smooth="yes"/>
			<point x="360" y="-290" type="line"/>
		</contour>
	</outline>
</glyph>
<glyph name="bar" format="2">
	<advance width="230"/>
	<unicode hex="007C"/>
	<outline>
		<contour>
			<point x="130" y="-90" type="line"/>
			<point x="130" y="700" type="line"/>
			<point x="100" y="700" type="line"/>
			<point x="100" y="-90" type="line"/>
		</contour>
	</outline>
</glyph>
<glyph name="braceright" format="2">
	<advance width="460"/>
	<unicode hex="007D"/>
	<outline>
		<contour>
			<point x="100" y="-260" type="line"/>
			<point x="100" y="-290" type="line"/>
			<point x="204" y="-290" type="line" smooth="yes"/>
			<point x="252" y="-290"/>
			<point x="289" y="-250"/>
			<point x="289" y="-198" type="curve" smooth="yes"/>
			<point x="289" y="184" type="line" smooth="yes"/>
			<point x="289" y="229"/>
			<point x="327" y="267"/>
			<point x="380" y="274" type="curve"/>
			<point x="378" y="303" type="line"/>
			<point x="327" y="303"/>
			<point x="289" y="342"/>
			<point x="289" y="393" type="curve" smooth="yes"/>
			<point x="289" y="706" type="line" smooth="yes"/>
			<point x="289" y="752"/>
			<point x="251" y="790"/>
			<point x="204" y="790" type="curve" smooth="yes"/>
			<point x="100" y="790" type="line"/>
			<point x="100" y="760" type="line"/>
			<point x="204" y="760" type="line" smooth="yes"/>
			<point x="234" y="760"/>
			<point x="259" y="736"/>
			<point x="259" y="706" type="curve" smooth="yes"/>
			<point x="259" y="393" type="line" smooth="yes"/>
			<point x="259" y="345"/>
			<point x="284" y="306"/>
			<point x="323" y="286" type="curve"/>
			<point x="284" y="265"/>
			<point x="259" y="227"/>
			<point x="259" y="184" type="curve" smooth="yes"/>
			<point x="259" y="-198" type="line" smooth="yes"/>
			<point x="259" y="-234"/>
			<point x="236" y="-260"/>
			<point x="204" y="-260" type="curve" smooth="yes"/>
		</contour>
	</outline>
</glyph>
<glyph name="asciitilde" format="2">
	<advance width="535"/>
	<unicode hex="007E"/>
	<outline>
		<contour>
			<point x="467" y="264" type="line"/>
			<point x="406" y="234"/>
			<point x="335" y="239"/>
			<point x="268" y="266" type="curve" smooth="yes"/>
			<point x="198" y="294"/>
			<point x="116" y="297"/>
			<point x="45" y="264" type="curve"/>
			<point x="58" y="236" type="line"/>
			<point x="122" y="267"/>
			<point x="193" y="264"/>
			<point x="256" y="238" type="curve" smooth="yes"/>
			<point x="331" y="207"/>
			<point x="412" y="204"/>
			<point x="480" y="236" type="curve"/>
		</contour>
	</outline>
</glyph>
<glyph name="exclamdown" format="2">
	<advance width="253"/>
	<unicode hex="00A1"/>
	<outline>
		<contour>
			<point x="221" y="-269" type="line"/>
			<point x="200" y="-247"/>
			<point x="180" y="-229"/>
			<point x="169" y="-202" type="curve" smooth="yes"/>
			<point x="144" y="-139"/>
			<point x="150" y="-70"/>
			<point x="156" y="1" type="curve" smooth="yes"/>
			<point x="160" y="52"/>
			<point x="165" y="104"/>
			<point x="157" y="154" type="curve" smooth="yes"/>
			<point x="146" y="216"/>
			<point x="119" y="270"/>
			<point x="83" y="297" type="curve"/>
			<point x="65" y="273" type="line"/>
			<point x="95" y="250"/>
			<point x="118" y="204"/>
			<point x="127" y="149" type="curve" smooth="yes"/>
			<point x="146" y="38"/>
			<point x="93" y="-94"/>
			<point x="142" y="-213" type="curve" smooth="yes"/>
			<point x="154" y="-246"/>
			<point x="179" y="-269"/>
			<point x="199" y="-290" type="curve"/>
		</contour>
		<contour>
			<point x="146" y="340" type="line"/>
			<point x="210" y="358"/>
			<point x="244" y="429"/>
			<point x="221" y="500" type="curve"/>
			<point x="108" y="500" type="line"/>
			<point x="108" y="470" type="line"/>
			<point x="198" y="470" type="line"/>
			<point x="204" y="423"/>
			<point x="180" y="381"/>
			<point x="138" y="369" type="curve"/>
		</contour>
	</outline>
</glyph>
<glyph name="cent" format="2">
	<advance width="541"/>
	<unicode hex="00A2"/>
	<outline>
		<contour>
			<point x="495" y="172" type="line"/>
			<point x="435" y="113"/>
			<point x="351" y="88"/>
			<point x="260" y="104" type="curve" smooth="yes"/>
			<point x="136" y="125"/>
			<point x="48" y="244"/>
			<point x="61" y="375" type="curve" smooth="yes"/>
			<point x="70" y="473"/>
			<point x="157" y="561"/>
			<point x="260" y="576" type="curve" smooth="yes"/>
			<point x="345" y="589"/>
			<point x="432" y="564"/>
			<point x="495" y="509" type="curve"/>
			<point x="515" y="531" type="line"/>
			<point x="446" y="592"/>
			<point x="348" y="620"/>
			<point x="255" y="606" type="curve" smooth="yes"/>
			<point x="139" y="588"/>
			<point x="41" y="489"/>
			<point x="31" y="377" type="curve" smooth="yes"/>
			<point x="17" y="231"/>
			<point x="115" y="98"/>
			<point x="255" y="74" type="curve" smooth="yes"/>
			<point x="354" y="57"/>
			<point x="450" y="85"/>
			<point x="516" y="150" type="curve"/>
		</contour>
		<contour>
			<point x="309" y="-61" type="line"/>
			<point x="309" y="700" type="line"/>
			<point x="279" y="700" type="line"/>
			<point x="279" y="-61" type="line"/>
		</contour>
	</outline>
</glyph>
<glyph name="sterling" format="2">
	<advance width="460"/>
	<unicode hex="00A3"/>
	<outline>
		<contour>
			<point x="436" y="30" type="line"/>
			<point x="96" y="30" type="line"/>
			<point x="108" y="44"/>
			<point x="117" y="56"/>
			<point x="125" y="70" type="curve" smooth="yes"/>
			<point x="176" y="163"/>
			<point x="163" y="268"/>
			<point x="151" y="370" type="curve" smooth="yes"/>
			<point x="145" y="417"/>
			<point x="139" y="463"/>
			<point x="139" y="509" type="curve" smooth="yes"/>
			<point x="139" y="582"/>
			<point x="186" y="649"/>
			<point x="254" y="672" type="curve" smooth="yes"/>
			<point x="315" y="691"/>
			<point x="383" y="681"/>
			<point x="427" y="647" type="curve"/>
			<point x="445" y="671" type="line"/>
			<point x="393" y="710"/>
			<point x="314" y="722"/>
			<point x="244" y="700" type="curve" smooth="yes"/>
			<point x="165" y="673"/>
			<point x="109" y="594"/>
			<point x="109" y="509" type="curve" smooth="yes"/>
			<point x="109" y="462"/>
			<point x="115" y="414"/>
			<point x="121" y="367" type="curve" smooth="yes"/>
			<point x="134" y="264"/>
			<point x="145" y="169"/>
			<point x="99" y="84" type="curve" smooth="yes"/>
			<point x="80" y="51"/>
			<point x="54" y="28"/>
			<point x="25" y="0" type="curve"/>
			<point x="436" y="0" type="line"/>
		</contour>
		<contour>
			<point x="368" y="332" type="line"/>
			<point x="322" y="314"/>
			<point x="270" y="321"/>
			<point x="221" y="333" type="curve" smooth="yes"/>
			<point x="171" y="345"/>
			<point x="110" y="360"/>
			<point x="55" y="331" type="curve"/>
			<point x="69" y="305" type="line"/>
			<point x="114" y="328"/>
			<point x="164" y="315"/>
			<point x="214" y="303" type="curve" smooth="yes"/>
			<point x="265" y="291"/>
			<point x="325" y="284"/>
			<point x="379" y="304" type="curve"/>
		</contour>
	</outline>
</glyph>
<glyph name="currency" format="2">
	<advance width="490"/>
	<unicode hex="00A4"/>
	<outline>
		<contour>
			<point x="246" y="500" type="curve" smooth="yes"/>
			<point x="158" y="500"/>
			<point x="89" y="444"/>
			<point x="89" y="352" type="curve" smooth="yes"/>
			<point x="89" y="263"/>
			<point x="158" y="195"/>
			<point x="246" y="195" type="curve" smooth="yes"/>
			<point x="333" y="195"/>
			<point x="402" y="263"/>
			<point x="402" y="352" type="curve" smooth="yes"/>
			<point x="402" y="444"/>
			<point x="333" y="500"/>
		</contour>
		<contour>
			<point x="246" y="470" type="curve" smooth="yes"/>
			<point x="319" y="471"/>
			<point x="372" y="425"/>
			<point x="372" y="352" type="curve" smooth="yes"/>
			<point x="372" y="279"/>
			<point x="317" y="225"/>
			<point x="246" y="225" type="curve" smooth="yes"/>
			<point x="175" y="225"/>
			<point x="119" y="279"/>
			<point x="119" y="352" type="curve" smooth="yes"/>
			<point x="119" y="425"/>
			<point x="173" y="469"/>
		</contour>
		<contour>
			<point x="65" y="518" type="line"/>
			<point x="132" y="445" type="line"/>
			<point x="154" y="465" type="line"/>
			<point x="87" y="538" type="line"/>
		</contour>
		<contour>
			<point x="86" y="172" type="line"/>
			<point x="154" y="240" type="line"/>
			<point x="133" y="262" type="line"/>
			<point x="65" y="194" type="line"/>
		</contour>
		<contour>
			<point x="403" y="538" type="line"/>
			<point x="337" y="465" type="line"/>
			<point x="359" y="445" type="line"/>
			<point x="425" y="518" type="line"/>
		</contour>
		<contour>
			<point x="425" y="193" type="line"/>
			<point x="358" y="261" type="line"/>
			<point x="337" y="241" type="line"/>
			<point x="404" y="173" type="line"/>
		</contour>
	</outline>
</glyph>
<glyph name="yen" format="2">
	<advance width="530"/>
	<unicode hex="00A5"/>
	<outline>
		<contour>
			<point x="498" y="702" type="line"/>
			<point x="462" y="676"/>
			<point x="434" y="624"/>
			<point x="423" y="563" type="curve" smooth="yes"/>
			<point x="416" y="527"/>
			<point x="414" y="491"/>
			<point x="412" y="456" type="curve" smooth="yes"/>
			<point x="410" y="421"/>
			<point x="408" y="387"/>
			<point x="402" y="353" type="curve" smooth="yes"/>
			<point x="388" y="278"/>
			<point x="331" y="225"/>
			<point x="265" y="225" type="curve" smooth="yes"/>
			<point x="203" y="225"/>
			<point x="150" y="274"/>
			<point x="128" y="354" type="curve" smooth="yes"/>
			<point x="117" y="392"/>
			<point x="116" y="429"/>
			<point x="115" y="468" type="curve" smooth="yes"/>
			<point x="114" y="499"/>
			<point x="113" y="531"/>
			<point x="107" y="563" type="curve" smooth="yes"/>
			<point x="95" y="626"/>
			<point x="68" y="676"/>
			<point x="32" y="702" type="curve"/>
			<point x="15" y="677" type="line"/>
			<point x="45" y="656"/>
			<point x="67" y="614"/>
			<point x="78" y="557" type="curve" smooth="yes"/>
			<point x="83" y="528"/>
			<point x="84" y="498"/>
			<point x="85" y="467" type="curve" smooth="yes"/>
			<point x="86" y="428"/>
			<point x="87" y="387"/>
			<point x="99" y="346" type="curve" smooth="yes"/>
			<point x="125" y="254"/>
			<point x="189" y="195"/>
			<point x="265" y="195" type="curve" smooth="yes"/>
			<point x="345" y="195"/>
			<point x="415" y="259"/>
			<point x="431" y="347" type="curve" smooth="yes"/>
			<point x="438" y="383"/>
			<point x="440" y="419"/>
			<point x="442" y="454" type="curve" smooth="yes"/>
			<point x="444" y="489"/>
			<point x="446" y="523"/>
			<point x="452" y="557" type="curve" smooth="yes"/>
			<point x="462" y="612"/>
			<point x="485" y="656"/>
			<point x="515" y="677" type="curve"/>
		</contour>
		<contour>
			<point x="280" y="0" type="line"/>
			<point x="280" y="210" type="line"/>
			<point x="250" y="210" type="line"/>
			<point x="250" y="0" type="line"/>
		</contour>
		<contour>
			<point x="437" y="225" type="line"/>
			<point x="93" y="225" type="line"/>
			<point x="93" y="195" type="line"/>
			<point x="437" y="195" type="line"/>
		</contour>
		<contour>
			<point x="437" y="120" type="line"/>
			<point x="93" y="120" type="line"/>
			<point x="93" y="90" type="line"/>
			<point x="437" y="90" type="line"/>
		</contour>
	</outline>
</glyph>
<glyph name="brokenbar" format="2">
	<advance width="230"/>
	<unicode hex="00A6"/>
	<outline>
		<contour>
			<point x="130" y="-90" type="line"/>
			<point x="130" y="240" type="line"/>
			<point x="100" y="240" type="line"/>
			<point x="100" y="-90" type="line"/>
		</contour>
		<contour>
			<point x="130" y="370" type="line"/>
			<point x="130" y="700" type="line"/>
			<point x="100" y="700" type="line"/>
			<point x="100" y="370" type="line"/>
		</contour>
	</outline>
</glyph>
<glyph name="section" format="2">
	<advance width="612"/>
	<unicode hex="00A7"/>
	<outline>
		<contour>
			<point x="35" y="16" type="line"/>
			<point x="103" y="-59"/>
			<point x="217" y="-105"/>
			<point x="331" y="-105" type="curve" smooth="yes"/>
			<point x="453" y="-105"/>
			<point x="561" y="-43"/>
			<point x="561" y="38" type="curve" smooth="yes"/>
			<point x="561" y="136"/>
			<point x="416" y="164"/>
			<point x="300" y="191" type="curve" smooth="yes"/>
			<point x="204" y="213"/>
			<point x="94" y="228"/>
			<point x="94" y="298" type="curve" smooth="yes"/>
			<point x="94" y="361"/>
			<point x="193" y="419"/>
			<point x="304" y="419" type="curve"/>
			<point x="304" y="449" type="line"/>
			<point x="175" y="449"/>
			<point x="64" y="380"/>
			<point x="64" y="298" type="curve" smooth="yes"/>
			<point x="64" y="202"/>
			<point x="198" y="183"/>
			<point x="294" y="161" type="curve" smooth="yes"/>
			<point x="410" y="134"/>
			<point x="531" y="110"/>
			<point x="531" y="38" type="curve" smooth="yes"/>
			<point x="531" y="-24"/>
			<point x="436" y="-75"/>
			<point x="331" y="-75" type="curve" smooth="yes"/>
			<point x="225" y="-75"/>
			<point x="120" y="-32"/>
			<point x="57" y="36" type="curve"/>
		</contour>
		<contour>
			<point x="567" y="594" type="line"/>
			<point x="499" y="669"/>
			<point x="385" y="715"/>
			<point x="270" y="715" type="curve" smooth="yes"/>
			<point x="149" y="715"/>
			<point x="40" y="652"/>
			<point x="40" y="572" type="curve" smooth="yes"/>
			<point x="40" y="474"/>
			<point x="185" y="446"/>
			<point x="301" y="419" type="curve" smooth="yes"/>
			<point x="443" y="389"/>
			<point x="507" y="352"/>
			<point x="507" y="297" type="curve" smooth="yes"/>
			<point x="507" y="238"/>
			<point x="416" y="191"/>
			<point x="297" y="191" type="curve"/>
			<point x="297" y="161" type="line"/>
			<point x="433" y="161"/>
			<point x="537" y="218"/>
			<point x="537" y="297" type="curve" smooth="yes"/>
			<point x="537" y="393"/>
			<point x="402" y="429"/>
			<point x="307" y="449" type="curve" smooth="yes"/>
			<point x="191" y="476"/>
			<point x="70" y="500"/>
			<point x="70" y="572" type="curve" smooth="yes"/>
			<point x="70" y="634"/>
			<point x="166" y="685"/>
			<point x="270" y="685" type="curve" smooth="yes"/>
			<point x="377" y="685"/>
			<point x="482" y="643"/>
			<point x="545" y="574" type="curve"/>
		</contour>
	</outline>
</glyph>
<glyph name="dieresis" format="2">
	<advance width="339"/>
	<unicode hex="00A8"/>
	<outline>
		<contour>
			<point x="84" y="572" type="line"/>
			<point x="119" y="605"/>
			<point x="134" y="659"/>
			<point x="120" y="700" type="curve"/>
			<point x="40" y="700" type="line"/>
			<point x="40" y="670" type="line"/>
			<point x="95" y="670" type="line"/>
			<point x="96" y="643"/>
			<point x="84" y="614"/>
			<point x="63" y="594" type="curve"/>
		</contour>
		<contour>
			<point x="258" y="572" type="line"/>
			<point x="292" y="605"/>
			<point x="308" y="659"/>
			<point x="294" y="700" type="curve"/>
			<point x="212" y="700" type="line"/>
			<point x="213" y="670" type="line"/>
			<point x="269" y="670" type="line"/>
			<point x="270" y="643"/>
			<point x="258" y="614"/>
			<point x="237" y="594" type="curve"/>
		</contour>
	</outline>
</glyph>
<glyph name="copyright" format="2">
	<advance width="815"/>
	<unicode hex="00A9"/>
	<outline>
		<contour>
			<point x="559" y="216" type="line"/>
			<point x="505" y="166"/>
			<point x="438" y="146"/>
			<point x="371" y="161" type="curve" smooth="yes"/>
			<point x="264" y="184"/>
			<point x="195" y="278"/>
			<point x="209" y="379" type="curve" smooth="yes"/>
			<point x="220" y="460"/>
			<point x="285" y="525"/>
			<point x="370" y="540" type="curve" smooth="yes"/>
			<point x="436" y="552"/>
			<point x="506" y="528"/>
			<point x="559" y="475" type="curve"/>
			<point x="580" y="496" type="line"/>
			<point x="521" y="555"/>
			<point x="441" y="583"/>
			<point x="365" y="570" type="curve" smooth="yes"/>
			<point x="267" y="553"/>
			<point x="192" y="477"/>
			<point x="179" y="383" type="curve" smooth="yes"/>
			<point x="163" y="266"/>
			<point x="243" y="158"/>
			<point x="364" y="131" type="curve" smooth="yes"/>
			<point x="440" y="115"/>
			<point x="519" y="138"/>
			<point x="579" y="194" type="curve"/>
		</contour>
		<contour>
			<point x="380" y="671" type="curve" smooth="yes"/>
			<point x="585" y="686"/>
			<point x="755" y="522"/>
			<point x="739" y="324" type="curve" smooth="yes"/>
			<point x="725" y="149"/>
			<point x="564" y="17"/>
			<point x="380" y="30" type="curve" smooth="yes"/>
			<point x="214" y="42"/>
			<point x="90" y="162"/>
			<point x="76" y="325" type="curve" smooth="yes"/>
			<point x="60" y="502"/>
			<point x="198" y="658"/>
		</contour>
		<contour>
			<point x="378" y="701" type="curve" smooth="yes"/>
			<point x="180" y="687"/>
			<point x="29" y="516"/>
			<point x="46" y="322" type="curve" smooth="yes"/>
			<point x="61" y="145"/>
			<point x="198" y="13"/>
			<point x="378" y="0" type="curve" smooth="yes"/>
			<point x="579" y="-14"/>
			<point x="754" y="130"/>
			<point x="769" y="322" type="curve" smooth="yes"/>
			<point x="787" y="538"/>
			<point x="602" y="717"/>
		</contour>
	</outline>
</glyph>
<glyph name="guillemetleft" format="2">
	<advance width="568"/>
	<unicode hex="00AB"/>
	<outline>
		<contour>
			<point x="300" y="21" type="line"/>
			<point x="68" y="250" type="line"/>
			<point x="300" y="479" type="line"/>
			<point x="279" y="500" type="line"/>
			<point x="25" y="250" type="line"/>
			<point x="279" y="0" type="line"/>
		</contour>
		<contour>
			<point x="503" y="21" type="line"/>
			<point x="271" y="250" type="line"/>
			<point x="503" y="479" type="line"/>
			<point x="482" y="500" type="line"/>
			<point x="228" y="250" type="line"/>
			<point x="482" y="0" type="line"/>
		</contour>
	</outline>
</glyph>
<glyph name="logicalnot" format="2">
	<advance width="627"/>
	<unicode hex="00AC"/>
	<outline>
		<contour>
			<point x="567" y="115" type="line"/>
			<point x="567" y="280" type="line"/>
			<point x="60" y="280" type="line"/>
			<point x="60" y="250" type="line"/>
			<point x="537" y="250" type="line"/>
			<point x="537" y="115" type="line"/>
		</contour>
	</outline>
</glyph>
<glyph name="registered" format="2">
	<advance width="525"/>
	<unicode hex="00AE"/>
	<outline>
		<contour>
			<point x="188" y="468" type="line"/>
			<point x="196" y="467"/>
			<point x="204" y="465"/>
			<point x="213" y="463" type="curve" smooth="yes"/>
			<point x="225" y="461"/>
			<point x="239" y="458"/>
			<point x="254" y="458" type="curve" smooth="yes"/>
			<point x="311" y="458"/>
			<point x="355" y="495"/>
			<point x="355" y="543" type="curve" smooth="yes"/>
			<point x="355" y="586"/>
			<point x="316" y="619"/>
			<point x="266" y="619" type="curve" smooth="yes"/>
			<point x="174" y="619" type="line"/>
			<point x="174" y="418" type="line" smooth="yes"/>
			<point x="174" y="399"/>
			<point x="187" y="379"/>
			<point x="206" y="371" type="curve"/>
			<point x="218" y="399" type="line"/>
			<point x="210" y="402"/>
			<point x="204" y="410"/>
			<point x="204" y="418" type="curve" smooth="yes"/>
			<point x="204" y="589" type="line"/>
			<point x="266" y="589" type="line" smooth="yes"/>
			<point x="300" y="589"/>
			<point x="325" y="569"/>
			<point x="325" y="543" type="curve" smooth="yes"/>
			<point x="325" y="512"/>
			<point x="295" y="488"/>
			<point x="254" y="488" type="curve" smooth="yes"/>
			<point x="242" y="488"/>
			<point x="231" y="490"/>
			<point x="219" y="493" type="curve" smooth="yes"/>
			<point x="210" y="495"/>
			<point x="200" y="497"/>
			<point x="191" y="498" type="curve"/>
		</contour>
		<contour>
			<point x="346" y="399" type="line"/>
			<point x="311" y="413"/>
			<point x="282" y="443"/>
			<point x="268" y="479" type="curve"/>
			<point x="240" y="467" type="line"/>
			<point x="257" y="425"/>
			<point x="293" y="389"/>
			<point x="335" y="371" type="curve"/>
		</contour>
		<contour>
			<point x="261" y="287" type="curve" smooth="yes"/>
			<point x="376" y="287"/>
			<point x="470" y="383"/>
			<point x="470" y="500" type="curve" smooth="yes"/>
			<point x="470" y="611"/>
			<point x="377" y="700"/>
			<point x="261" y="700" type="curve" smooth="yes"/>
			<point x="144" y="700"/>
			<point x="50" y="611"/>
			<point x="50" y="500" type="curve" smooth="yes"/>
			<point x="50" y="382"/>
			<point x="144" y="287"/>
		</contour>
		<contour>
			<point x="261" y="317" type="curve" smooth="yes"/>
			<point x="161" y="317"/>
			<point x="80" y="399"/>
			<point x="80" y="500" type="curve" smooth="yes"/>
			<point x="80" y="594"/>
			<point x="160" y="670"/>
			<point x="261" y="670" type="curve" smooth="yes"/>
			<point x="360" y="670"/>
			<point x="440" y="594"/>
			<point x="440" y="500" type="curve" smooth="yes"/>
			<point x="440" y="399"/>
			<point x="360" y="317"/>
		</contour>
	</outline>
</glyph>
<glyph name="macron" format="2">
	<advance width="286"/>
	<unicode hex="00AF"/>
	<outline>
		<contour>
			<point x="246" y="622" type="line"/>
			<point x="40" y="622" type="line"/>
			<point x="40" y="592" type="line"/>
			<point x="246" y="592" type="line"/>
		</contour>
	</outline>
</glyph>
<glyph name="degree" format="2">
	<advance width="362"/>
	<unicode hex="00B0"/>
	<outline>
		<contour>
			<point x="171" y="790" type="curve" smooth="yes"/>
			<point x="84" y="790"/>
			<point x="15" y="719"/>
			<point x="15" y="630" type="curve" smooth="yes"/>
			<point x="15" y="540"/>
			<point x="83" y="470"/>
			<point x="171" y="470" type="curve" smooth="yes"/>
			<point x="259" y="470"/>
			<point x="327" y="540"/>
			<point x="327" y="630" type="curve" smooth="yes"/>
			<point x="327" y="720"/>
			<point x="259" y="790"/>
		</contour>
		<contour>
			<point x="171" y="760" type="curve" smooth="yes"/>
			<point x="242" y="760"/>
			<point x="297" y="703"/>
			<point x="297" y="630" type="curve" smooth="yes"/>
			<point x="297" y="556"/>
			<point x="243" y="500"/>
			<point x="171" y="500" type="curve" smooth="yes"/>
			<point x="100" y="500"/>
			<point x="45" y="557"/>
			<point x="45" y="630" type="curve" smooth="yes"/>
			<point x="45" y="703"/>
			<point x="100" y="760"/>
		</contour>
	</outline>
</glyph>
<glyph name="plusminus" format="2">
	<advance width="530"/>
	<unicode hex="00B1"/>
	<outline>
		<contour>
			<point x="270" y="172" type="line"/>
			<point x="270" y="600" type="line"/>
			<point x="240" y="600" type="line"/>
			<point x="240" y="172" type="line"/>
		</contour>
		<contour>
			<point x="465" y="401" type="line"/>
			<point x="45" y="401" type="line"/>
			<point x="45" y="371" type="line"/>
			<point x="465" y="371" type="line"/>
		</contour>
		<contour>
			<point x="465" y="95" type="line"/>
			<point x="45" y="95" type="line"/>
			<point x="45" y="65" type="line"/>
			<point x="465" y="65" type="line"/>
		</contour>
	</outline>
</glyph>
<glyph name="paragraph" format="2">
	<advance width="437"/>
	<unicode hex="00B6"/>
	<outline>
		<contour>
			<point x="169" y="500" type="line"/>
			<point x="90" y="500" type="line"/>
			<point x="97" y="624"/>
			<point x="180" y="746"/>
			<point x="264" y="759" type="curve"/>
			<point x="264" y="0" type="line"/>
			<point x="294" y="0" type="line"/>
			<point x="294" y="789" type="line"/>
			<point x="175" y="804"/>
			<point x="52" y="634"/>
			<point x="60" y="470" type="curve"/>
			<point x="169" y="470" type="line"/>
		</contour>
		<contour>
			<point x="332" y="790" type="line"/>
			<point x="332" y="0" type="line"/>
			<point x="362" y="0" type="line"/>
			<point x="362" y="790" type="line"/>
		</contour>
	</outline>
</glyph>
<glyph name="periodcentered" format="2">
	<advance width="280"/>
	<unicode hex="00B7"/>
	<outline>
		<contour>
			<point x="118" y="170" type="line"/>
			<point x="182" y="188"/>
			<point x="216" y="259"/>
			<point x="193" y="330" type="curve"/>
			<point x="80" y="330" type="line"/>
			<point x="80" y="300" type="line"/>
			<point x="170" y="300" type="line"/>
			<point x="176" y="253"/>
			<point x="152" y="211"/>
			<point x="110" y="199" type="curve"/>
		</contour>
	</outline>
</glyph>
<glyph name="guillemetright" format="2">
	<advance width="568"/>
	<unicode hex="00BB"/>
	<outline>
		<contour>
			<point x="268" y="21" type="line"/>
			<point x="289" y="0" type="line"/>
			<point x="543" y="250" type="line"/>
			<point x="289" y="500" type="line"/>
			<point x="268" y="479" type="line"/>
			<point x="500" y="250" type="line"/>
		</contour>
		<contour>
			<point x="65" y="21" type="line"/>
			<point x="86" y="0" type="line"/>
			<point x="340" y="250" type="line"/>
			<point x="86" y="500" type="line"/>
			<point x="65" y="479" type="line"/>
			<point x="297" y="250" type="line"/>
		</contour>
	</outline>
</glyph>
<glyph name="questiondown" format="2">
	<advance width="550"/>
	<unicode hex="00BF"/>
	<outline>
		<contour>
			<point x="306" y="280" type="line"/>
			<point x="337" y="273"/>
			<point x="361" y="250"/>
			<point x="365" y="221" type="curve" smooth="yes"/>
			<point x="377" y="136"/>
			<point x="306" y="108"/>
			<point x="226" y="77" type="curve" smooth="yes"/>
			<point x="170" y="54"/>
			<point x="109" y="30"/>
			<point x="84" y="-19" type="curve" smooth="yes"/>
			<point x="18" y="-150"/>
			<point x="132" y="-290"/>
			<point x="302" y="-290" type="curve" smooth="yes"/>
			<point x="402" y="-290"/>
			<point x="487" y="-236"/>
			<point x="535" y="-143" type="curve"/>
			<point x="508" y="-130" type="line"/>
			<point x="465" y="-213"/>
			<point x="391" y="-260"/>
			<point x="302" y="-260" type="curve" smooth="yes"/>
			<point x="155" y="-260"/>
			<point x="55" y="-143"/>
			<point x="111" y="-33" type="curve" smooth="yes"/>
			<point x="158" y="60"/>
			<point x="419" y="49"/>
			<point x="395" y="225" type="curve" smooth="yes"/>
			<point x="389" y="266"/>
			<point x="355" y="300"/>
			<point x="312" y="309" type="curve"/>
		</contour>
		<contour>
			<point x="283" y="340" type="line"/>
			<point x="350" y="358"/>
			<point x="385" y="429"/>
			<point x="361" y="500" type="curve"/>
			<point x="244" y="500" type="line"/>
			<point x="244" y="470" type="line"/>
			<point x="338" y="470" type="line"/>
			<point x="344" y="423"/>
			<point x="319" y="381"/>
			<point x="275" y="369" type="curve"/>
		</contour>
	</outline>
</glyph>
<glyph name="AE" format="2">
	<advance width="885"/>
	<unicode hex="00C6"/>
	<outline>
		<contour>
			<point x="868" y="626" type="line"/>
			<point x="847" y="672"/>
			<point x="803" y="700"/>
			<point x="750" y="700" type="curve" smooth="yes"/>
			<point x="473" y="700" type="line"/>
			<point x="334" y="700" type="line" smooth="yes"/>
			<point x="209" y="700"/>
			<point x="97" y="606"/>
			<point x="76" y="482" type="curve" smooth="yes"/>
			<point x="66" y="421"/>
			<point x="73" y="360"/>
			<point x="79" y="301" type="curve" smooth="yes"/>
			<point x="88" y="221"/>
			<point x="96" y="146"/>
			<point x="64" y="75" type="curve" smooth="yes"/>
			<point x="54" y="53"/>
			<point x="36" y="34"/>
			<point x="15" y="24" type="curve"/>
			<point x="28" y="-3" type="line"/>
			<point x="55" y="10"/>
			<point x="78" y="35"/>
			<point x="91" y="63" type="curve" smooth="yes"/>
			<point x="151" y="197"/>
			<point x="83" y="344"/>
			<point x="106" y="477" type="curve" smooth="yes"/>
			<point x="125" y="587"/>
			<point x="223" y="670"/>
			<point x="334" y="670" type="curve" smooth="yes"/>
			<point x="473" y="670" type="line"/>
			<point x="750" y="670" type="line" smooth="yes"/>
			<point x="792" y="670"/>
			<point x="824" y="650"/>
			<point x="841" y="614" type="curve"/>
		</contour>
		<contour>
			<point x="842" y="88" type="line"/>
			<point x="820" y="54"/>
			<point x="782" y="30"/>
			<point x="750" y="30" type="curve" smooth="yes"/>
			<point x="488" y="30" type="line"/>
			<point x="488" y="700" type="line"/>
			<point x="458" y="700" type="line"/>
			<point x="458" y="0" type="line"/>
			<point x="750" y="0" type="line" smooth="yes"/>
			<point x="792" y="0"/>
			<point x="840" y="30"/>
			<point x="867" y="72" type="curve"/>
		</contour>
		<contour>
			<point x="473" y="295" type="line"/>
			<point x="97" y="295" type="line"/>
			<point x="97" y="265" type="line"/>
			<point x="473" y="265" type="line"/>
		</contour>
		<contour>
			<point x="785" y="365" type="line"/>
			<point x="473" y="365" type="line"/>
			<point x="473" y="335" type="line"/>
			<point x="785" y="335" type="line"/>
		</contour>
	</outline>
</glyph>
<glyph name="multiply" format="2">
	<advance width="552"/>
	<unicode hex="00D7"/>
	<outline>
		<contour>
			<point x="497" y="82" type="line"/>
			<point x="76" y="500" type="line"/>
			<point x="55" y="479" type="line"/>
			<point x="476" y="60" type="line"/>
		</contour>
		<contour>
			<point x="76" y="60" type="line"/>
			<point x="497" y="479" type="line"/>
			<point x="476" y="500" type="line"/>
			<point x="55" y="82" type="line"/>
		</contour>
	</outline>
</glyph>
<glyph name="Thorn" format="2">
	<advance width="587"/>
	<unicode hex="00DE"/>
	<outline>
		<contour>
			<point x="121" y="28" type="line"/>
			<point x="89" y="34"/>
			<point x="65" y="67"/>
			<point x="65" y="105" type="curve" smooth="yes"/>
			<point x="65" y="700" type="line"/>
			<point x="35" y="700" type="line"/>
			<point x="35" y="105" type="line" smooth="yes"/>
			<point x="35" y="53"/>
			<point x="70" y="7"/>
			<point x="116" y="-1" type="curve"/>
		</contour>
		<contour>
			<point x="41" y="198" type="line"/>
			<point x="105" y="154"/>
			<point x="176" y="130"/>
			<point x="256" y="125" type="curve" smooth="yes"/>
			<point x="412" y="115"/>
			<point x="547" y="225"/>
			<point x="547" y="364" type="curve" smooth="yes"/>
			<point x="547" y="483"/>
			<point x="434" y="575"/>
			<point x="291" y="575" type="curve" smooth="yes"/>
			<point x="50" y="575" type="line"/>
			<point x="50" y="545" type="line"/>
			<point x="291" y="545" type="line" smooth="yes"/>
			<point x="418" y="545"/>
			<point x="517" y="466"/>
			<point x="517" y="364" type="curve" smooth="yes"/>
			<point x="517" y="242"/>
			<point x="397" y="146"/>
			<point x="257" y="155" type="curve" smooth="yes"/>
			<point x="184" y="160"/>
			<point x="117" y="182"/>
			<point x="58" y="222" type="curve"/>
		</contour>
	</outline>
</glyph>
<glyph name="germandbls" format="2">
	<advance width="494"/>
	<unicode hex="00DF"/>
	<outline>
		<contour>
			<point x="178" y="23" type="line"/>
			<point x="297" y="-67"/>
			<point x="470" y="21"/>
			<point x="477" y="175" type="curve"/>
			<point x="477" y="280"/>
			<point x="395" y="364"/>
			<point x="282" y="391" type="curve"/>
			<point x="358" y="423"/>
			<point x="408" y="486"/>
			<point x="408" y="560" type="curve" smooth="yes"/>
			<point x="408" y="652"/>
			<point x="334" y="715"/>
			<point x="227" y="715" type="curve" smooth="yes"/>
			<point x="106" y="715"/>
			<point x="35" y="618"/>
			<point x="35" y="455" type="curve" smooth="yes"/>
			<point x="35" y="105" type="line" smooth="yes"/>
			<point x="35" y="53"/>
			<point x="70" y="7"/>
			<point x="116" y="-1" type="curve"/>
			<point x="121" y="28" type="line"/>
			<point x="89" y="34"/>
			<point x="65" y="67"/>
			<point x="65" y="105" type="curve" smooth="yes"/>
			<point x="65" y="455" type="line" smooth="yes"/>
			<point x="65" y="602"/>
			<point x="124" y="685"/>
			<point x="227" y="685" type="curve" smooth="yes"/>
			<point x="318" y="685"/>
			<point x="378" y="635"/>
			<point x="378" y="560" type="curve" smooth="yes"/>
			<point x="378" y="476"/>
			<point x="296" y="407"/>
			<point x="186" y="400" type="curve"/>
			<point x="188" y="370" type="line"/>
			<point x="329" y="377"/>
			<point x="447" y="289"/>
			<point x="447" y="175" type="curve"/>
			<point x="441" y="46"/>
			<point x="296" y="-29"/>
			<point x="196" y="47" type="curve"/>
		</contour>
	</outline>
</glyph>
<glyph name="ae" format="2">
	<advance width="929"/>
	<unicode hex="00E6"/>
	<outline>
		<contour>
			<point x="876" y="91" type="line"/>
			<point x="824" y="29"/>
			<point x="730" y="4"/>
			<point x="644" y="29" type="curve" smooth="yes"/>
			<point x="545" y="58"/>
			<point x="478" y="147"/>
			<point x="478" y="249" type="curve" smooth="yes"/>
			<point x="478" y="261"/>
			<point x="479" y="272"/>
			<point x="479" y="284" type="curve" smooth="yes"/>
			<point x="481" y="306"/>
			<point x="482" y="329"/>
			<point x="478" y="353" type="curve" smooth="yes"/>
			<point x="463" y="439"/>
			<point x="368" y="500"/>
			<point x="252" y="500" type="curve" smooth="yes"/>
			<point x="188" y="500"/>
			<point x="121" y="475"/>
			<point x="65" y="430" type="curve"/>
			<point x="84" y="407" type="line"/>
			<point x="135" y="447"/>
			<point x="194" y="470"/>
			<point x="252" y="470" type="curve" smooth="yes"/>
			<point x="354" y="470"/>
			<point x="436" y="419"/>
			<point x="449" y="348" type="curve" smooth="yes"/>
			<point x="454" y="316"/>
			<point x="448" y="284"/>
			<point x="448" y="249" type="curve" smooth="yes"/>
			<point x="448" y="134"/>
			<point x="524" y="33"/>
			<point x="636" y="0" type="curve" smooth="yes"/>
			<point x="733" y="-28"/>
			<point x="840" y="1"/>
			<point x="899" y="72" type="curve"/>
		</contour>
		<contour>
			<point x="492" y="129" type="line"/>
			<point x="431" y="65"/>
			<point x="347" y="30"/>
			<point x="252" y="30" type="curve" smooth="yes"/>
			<point x="137" y="30"/>
			<point x="49" y="98"/>
			<point x="55" y="182" type="curve" smooth="yes"/>
			<point x="60" y="254"/>
			<point x="148" y="308"/>
			<point x="251" y="302" type="curve" smooth="yes"/>
			<point x="315" y="298"/>
			<point x="380" y="277"/>
			<point x="456" y="237" type="curve" smooth="yes"/>
			<point x="527" y="203"/>
			<point x="601" y="174"/>
			<point x="675" y="168" type="curve" smooth="yes"/>
			<point x="792" y="160"/>
			<point x="891" y="224"/>
			<point x="903" y="315" type="curve" smooth="yes"/>
			<point x="917" y="424"/>
			<point x="804" y="514"/>
			<point x="674" y="500" type="curve" smooth="yes"/>
			<point x="546" y="485"/>
			<point x="448" y="373"/>
			<point x="448" y="240" type="curve"/>
			<point x="478" y="240" type="line"/>
			<point x="478" y="357"/>
			<point x="565" y="457"/>
			<point x="678" y="470" type="curve" smooth="yes"/>
			<point x="789" y="482"/>
			<point x="885" y="408"/>
			<point x="873" y="319" type="curve" smooth="yes"/>
			<point x="864" y="244"/>
			<point x="779" y="191"/>
			<point x="677" y="198" type="curve" smooth="yes"/>
			<point x="608" y="203"/>
			<point x="539" y="231"/>
			<point x="470" y="263" type="curve" smooth="yes"/>
			<point x="406" y="297"/>
			<point x="333" y="327"/>
			<point x="252" y="332" type="curve" smooth="yes"/>
			<point x="134" y="338"/>
			<point x="31" y="273"/>
			<point x="25" y="184" type="curve" smooth="yes"/>
			<point x="18" y="82"/>
			<point x="120" y="0"/>
			<point x="252" y="0" type="curve" smooth="yes"/>
			<point x="355" y="0"/>
			<point x="448" y="39"/>
			<point x="514" y="109" type="curve"/>
		</contour>
	</outline>
</glyph>
<glyph name="divide" format="2">
	<advance width="520"/>
	<unicode hex="00F7"/>
	<outline>
		<contour>
			<point x="465" y="265" type="line"/>
			<point x="45" y="265" type="line"/>
			<point x="45" y="235" type="line"/>
			<point x="465" y="235" type="line"/>
		</contour>
		<contour>
			<point x="235" y="343" type="line"/>
			<point x="301" y="376"/>
			<point x="333" y="444"/>
			<point x="310" y="510" type="curve"/>
			<point x="193" y="510" type="line"/>
			<point x="193" y="480" type="line"/>
			<point x="287" y="480" type="line"/>
			<point x="293" y="435"/>
			<point x="268" y="393"/>
			<point x="222" y="370" type="curve"/>
		</contour>
		<contour>
			<point x="235" y="-53" type="line"/>
			<point x="301" y="-19"/>
			<point x="333" y="51"/>
			<point x="311" y="119" type="curve"/>
			<point x="193" y="119" type="line"/>
			<point x="193" y="89" type="line"/>
			<point x="287" y="89" type="line"/>
			<point x="293" y="42"/>
			<point x="268" y="-3"/>
			<point x="222" y="-27" type="curve"/>
		</contour>
	</outline>
</glyph>
<glyph name="thorn" format="2">
	<advance width="633"/>
	<unicode hex="00FE"/>
	<outline>
		<contour>
			<point x="177" y="-266" type="line"/>
			<point x="163" y="-259"/>
			<point x="146" y="-238"/>
			<point x="128" y="-205" type="curve" smooth="yes"/>
			<point x="58" y="-82"/>
			<point x="81" y="56"/>
			<point x="106" y="203" type="curve" smooth="yes"/>
			<point x="126" y="321"/>
			<point x="146" y="444"/>
			<point x="116" y="563" type="curve" smooth="yes"/>
			<point x="100" y="621"/>
			<point x="76" y="669"/>
			<point x="43" y="709" type="curve"/>
			<point x="20" y="690" type="line"/>
			<point x="50" y="654"/>
			<point x="72" y="609"/>
			<point x="87" y="556" type="curve" smooth="yes"/>
			<point x="151" y="305"/>
			<point x="-31" y="16"/>
			<point x="102" y="-220" type="curve" smooth="yes"/>
			<point x="122" y="-258"/>
			<point x="143" y="-283"/>
			<point x="164" y="-293" type="curve"/>
		</contour>
		<contour>
			<point x="67" y="141" type="line"/>
			<point x="120" y="51"/>
			<point x="223" y="-2"/>
			<point x="344" y="-1" type="curve" smooth="yes"/>
			<point x="479" y="0"/>
			<point x="585" y="87"/>
			<point x="601" y="209" type="curve" smooth="yes"/>
			<point x="621" y="366"/>
			<point x="488" y="500"/>
			<point x="322" y="490" type="curve" smooth="yes"/>
			<point x="232" y="484"/>
			<point x="148" y="430"/>
			<point x="102" y="347" type="curve"/>
			<point x="128" y="333" type="line"/>
			<point x="169" y="407"/>
			<point x="243" y="455"/>
			<point x="324" y="460" type="curve" smooth="yes"/>
			<point x="471" y="469"/>
			<point x="589" y="351"/>
			<point x="571" y="213" type="curve" smooth="yes"/>
			<point x="558" y="106"/>
			<point x="464" y="30"/>
			<point x="343" y="29" type="curve" smooth="yes"/>
			<point x="233" y="28"/>
			<point x="141" y="75"/>
			<point x="93" y="156" type="curve"/>
		</contour>
	</outline>
</glyph>
<glyph name="Hbar" format="2">
	<advance width="710"/>
	<unicode hex="0126"/>
	<outline>
		<contour>
			<point x="35" y="530" type="line"/>
			<point x="35" y="500" type="line"/>
			<point x="675" y="500" type="line"/>
			<point x="675" y="530" type="line"/>
		</contour>
		<component base="H"/>
	</outline>
</glyph>
<glyph name="idotless" format="2">
	<advance width="268"/>
	<unicode hex="0131"/>
	<outline>
		<contour>
			<point x="243" y="24" type="line"/>
			<point x="223" y="34"/>
			<point x="205" y="52"/>
			<point x="194" y="76" type="curve" smooth="yes"/>
			<point x="156" y="161"/>
			<point x="182" y="277"/>
			<point x="182" y="348" type="curve" smooth="yes"/>
			<point x="182" y="437"/>
			<point x="152" y="488"/>
			<point x="90" y="505" type="curve"/>
			<point x="15" y="355" type="line"/>
			<point x="42" y="342" type="line"/>
			<point x="105" y="467" type="line"/>
			<point x="137" y="448"/>
			<point x="152" y="411"/>
			<point x="152" y="348" type="curve" smooth="yes"/>
			<point x="152" y="259"/>
			<point x="124" y="158"/>
			<point x="167" y="63" type="curve" smooth="yes"/>
			<point x="180" y="34"/>
			<point x="204" y="10"/>
			<point x="229" y="-3" type="curve"/>
		</contour>
	</outline>
</glyph>
<glyph name="Lslash" format="2">
	<advance width="562"/>
	<unicode hex="0141"/>
	<outline>
		<contour>
			<point x="517" y="77" type="line"/>
			<point x="517" y="50"/>
			<point x="496" y="30"/>
			<point x="466" y="30" type="curve" smooth="yes"/>
			<point x="137" y="30" type="line"/>
			<point x="137" y="564" type="line" smooth="yes"/>
			<point x="137" y="629"/>
			<point x="104" y="685"/>
			<point x="55" y="701" type="curve"/>
			<point x="46" y="673" type="line"/>
			<point x="82" y="661"/>
			<point x="107" y="617"/>
			<point x="107" y="564" type="curve" smooth="yes"/>
			<point x="107" y="0" type="line"/>
			<point x="466" y="0" type="line" smooth="yes"/>
			<point x="512" y="0"/>
			<point x="547" y="34"/>
			<point x="547" y="77" type="curve"/>
		</contour>
		<contour>
			<point x="276" y="397" type="line"/>
			<point x="35" y="292" type="line"/>
			<point x="47" y="264" type="line"/>
			<point x="288" y="370" type="line"/>
		</contour>
	</outline>
</glyph>
<glyph name="lslash" format="2">
	<advance width="203"/>
	<unicode hex="0142"/>
	<outline>
		<contour>
			<point x="223" y="448" type="line"/>
			<point x="-18" y="343" type="line"/>
			<point x="-6" y="315" type="line"/>
			<point x="235" y="421" type="line"/>
		</contour>
		<component base="l"/>
	</outline>
</glyph>
<glyph name="Eng" format="2">
	<advance width="612"/>
	<unicode hex="014A"/>
	<outline>
		<contour>
			<point x="547" y="700" type="line"/>
			<point x="547" y="33" type="line"/>
			<point x="505" y="42"/>
			<point x="467" y="62"/>
			<point x="434" y="93" type="curve" smooth="yes"/>
			<point x="363" y="160"/>
			<point x="341" y="255"/>
			<point x="318" y="354" type="curve" smooth="yes"/>
			<point x="295" y="452"/>
			<point x="271" y="556"/>
			<point x="193" y="629" type="curve" smooth="yes"/>
			<point x="155" y="665"/>
			<point x="102" y="689"/>
			<point x="30" y="704" type="curve"/>
			<point x="30" y="0" type="line"/>
			<point x="60" y="0" type="line"/>
			<point x="60" y="666" type="line"/>
			<point x="108" y="652"/>
			<point x="146" y="633"/>
			<point x="172" y="607" type="curve" smooth="yes"/>
			<point x="317" y="472"/>
			<point x="258" y="217"/>
			<point x="414" y="71" type="curve" smooth="yes"/>
			<point x="460" y="28"/>
			<point x="516" y="3"/>
			<point x="577" y="-2" type="curve"/>
			<point x="577" y="700" type="line"/>
		</contour>
		<contour>
			<point x="143" y="-280" type="line"/>
			<point x="346" y="-361"/>
			<point x="563" y="-221"/>
			<point x="577" y="0" type="curve"/>
			<point x="547" y="2" type="line"/>
			<point x="534" y="-199"/>
			<point x="338" y="-325"/>
			<point x="154" y="-252" type="curve"/>
		</contour>
	</outline>
</glyph>
<glyph name="eng" format="2">
	<advance width="568"/>
	<unicode hex="014B"/>
	<outline>
		<contour>
			<point x="171" y="27" type="line"/>
			<point x="156" y="28"/>
			<point x="136" y="51"/>
			<point x="127" y="76" type="curve" smooth="yes"/>
			<point x="112" y="122"/>
			<point x="114" y="173"/>
			<point x="117" y="228" type="curve" smooth="yes"/>
			<point x="118" y="270"/>
			<point x="120" y="315"/>
			<point x="114" y="359" type="curve" smooth="yes"/>
			<point x="105" y="420"/>
			<point x="78" y="470"/>
			<point x="38" y="501" type="curve"/>
			<point x="20" y="478" type="line"/>
			<point x="54" y="451"/>
			<point x="77" y="408"/>
			<point x="84" y="355" type="curve" smooth="yes"/>
			<point x="98" y="257"/>
			<point x="70" y="156"/>
			<point x="99" y="67" type="curve" smooth="yes"/>
			<point x="111" y="30"/>
			<point x="141" y="0"/>
			<point x="168" y="-3" type="curve"/>
		</contour>
		<contour>
			<point x="390" y="-287" type="line"/>
			<point x="455" y="-241"/>
			<point x="501" y="-168"/>
			<point x="522" y="-79" type="curve" smooth="yes"/>
			<point x="551" y="42"/>
			<point x="544" y="177"/>
			<point x="537" y="311" type="curve" smooth="yes"/>
			<point x="531" y="420"/>
			<point x="435" y="500"/>
			<point x="310" y="500" type="curve" smooth="yes"/>
			<point x="222" y="500"/>
			<point x="136" y="444"/>
			<point x="86" y="354" type="curve"/>
			<point x="112" y="340" type="line"/>
			<point x="157" y="420"/>
			<point x="233" y="470"/>
			<point x="310" y="470" type="curve" smooth="yes"/>
			<point x="419" y="470"/>
			<point x="502" y="402"/>
			<point x="507" y="309" type="curve" smooth="yes"/>
			<point x="514" y="176"/>
			<point x="521" y="45"/>
			<point x="493" y="-72" type="curve" smooth="yes"/>
			<point x="473" y="-155"/>
			<point x="432" y="-220"/>
			<point x="372" y="-263" type="curve"/>
		</contour>
	</outline>
</glyph>
<glyph name="OE" format="2">
	<advance width="1051"/>
	<unicode hex="0152"/>
	<outline>
		<contour>
			<point x="331" y="710" type="curve" smooth="yes"/>
			<point x="167" y="710"/>
			<point x="40" y="556"/>
			<point x="40" y="350" type="curve" smooth="yes"/>
			<point x="40" y="145"/>
			<point x="167" y="-10"/>
			<point x="331" y="-10" type="curve" smooth="yes"/>
			<point x="495" y="-10"/>
			<point x="622" y="145"/>
			<point x="622" y="350" type="curve" smooth="yes"/>
			<point x="622" y="556"/>
			<point x="495" y="710"/>
		</contour>
		<contour>
			<point x="331" y="680" type="curve" smooth="yes"/>
			<point x="478" y="680"/>
			<point x="592" y="539"/>
			<point x="592" y="350" type="curve" smooth="yes"/>
			<point x="592" y="161"/>
			<point x="478" y="20"/>
			<point x="331" y="20" type="curve" smooth="yes"/>
			<point x="184" y="20"/>
			<point x="70" y="161"/>
			<point x="70" y="350" type="curve" smooth="yes"/>
			<point x="70" y="539"/>
			<point x="184" y="680"/>
		</contour>
		<contour>
			<point x="1005" y="85" type="line"/>
			<point x="993" y="52"/>
			<point x="958" y="30"/>
			<point x="916" y="30" type="curve" smooth="yes"/>
			<point x="622" y="30" type="line"/>
			<point x="622" y="670" type="line"/>
			<point x="916" y="670" type="line" smooth="yes"/>
			<point x="963" y="670"/>
			<point x="994" y="651"/>
			<point x="1005" y="616" type="curve"/>
			<point x="1034" y="625" type="line"/>
			<point x="1019" y="673"/>
			<point x="976" y="700"/>
			<point x="916" y="700" type="curve" smooth="yes"/>
			<point x="592" y="700" type="line"/>
			<point x="592" y="0" type="line"/>
			<point x="916" y="0" type="line" smooth="yes"/>
			<point x="970" y="0"/>
			<point x="1018" y="30"/>
			<point x="1033" y="75" type="curve"/>
		</contour>
		<contour>
			<point x="951" y="365" type="line"/>
			<point x="607" y="365" type="line"/>
			<point x="607" y="335" type="line"/>
			<point x="951" y="335" type="line"/>
		</contour>
	</outline>
</glyph>
<glyph name="oe" format="2">
	<advance width="980"/>
	<unicode hex="0153"/>
	<outline>
		<contour>
			<point x="283" y="470" type="curve" smooth="yes"/>
			<point x="418" y="470"/>
			<point x="519" y="354"/>
			<point x="498" y="224" type="curve" smooth="yes"/>
			<point x="479" y="108"/>
			<point x="393" y="30"/>
			<point x="283" y="30" type="curve" smooth="yes"/>
			<point x="170" y="30"/>
			<point x="76" y="112"/>
			<point x="62" y="223" type="curve" smooth="yes"/>
			<point x="44" y="355"/>
			<point x="148" y="470"/>
		</contour>
		<contour>
			<point x="283" y="500" type="curve" smooth="yes"/>
			<point x="130" y="500"/>
			<point x="12" y="369"/>
			<point x="32" y="219" type="curve" smooth="yes"/>
			<point x="48" y="93"/>
			<point x="154" y="0"/>
			<point x="283" y="0" type="curve" smooth="yes"/>
			<point x="407" y="0"/>
			<point x="507" y="89"/>
			<point x="527" y="219" type="curve" smooth="yes"/>
			<point x="552" y="367"/>
			<point x="437" y="500"/>
		</contour>
		<contour>
			<point x="511" y="267" type="line"/>
			<point x="576" y="225"/>
			<point x="648" y="201"/>
			<point x="727" y="196" type="curve" smooth="yes"/>
			<point x="843" y="188"/>
			<point x="930" y="232"/>
			<point x="951" y="310" type="curve" smooth="yes"/>
			<point x="980" y="423"/>
			<point x="863" y="520"/>
			<point x="726" y="500" type="curve" smooth="yes"/>
			<point x="611" y="484"/>
			<point x="520" y="397"/>
			<point x="505" y="290" type="curve" smooth="yes"/>
			<point x="483" y="165"/>
			<point x="562" y="45"/>
			<point x="689" y="9" type="curve" smooth="yes"/>
			<point x="783" y="-17"/>
			<point x="880" y="9"/>
			<point x="947" y="78" type="curve"/>
			<point x="925" y="99" type="line"/>
			<point x="866" y="37"/>
			<point x="782" y="14"/>
			<point x="697" y="38" type="curve" smooth="yes"/>
			<point x="585" y="69"/>
			<point x="515" y="176"/>
			<point x="534" y="285" type="curve" smooth="yes"/>
			<point x="547" y="379"/>
			<point x="628" y="456"/>
			<point x="730" y="470" type="curve" smooth="yes"/>
			<point x="846" y="488"/>
			<point x="945" y="409"/>
			<point x="922" y="318" type="curve" smooth="yes"/>
			<point x="905" y="255"/>
			<point x="831" y="219"/>
			<point x="729" y="226" type="curve" smooth="yes"/>
			<point x="655" y="231"/>
			<point x="588" y="253"/>
			<point x="528" y="292" type="curve"/>
		</contour>
	</outline>
</glyph>
<glyph name="Tbar" format="2">
	<advance width="610"/>
	<unicode hex="0166"/>
	<outline>
		<contour>
			<point x="480" y="400" type="line"/>
			<point x="135" y="400" type="line"/>
			<point x="135" y="370" type="line"/>
			<point x="480" y="370" type="line"/>
		</contour>
		<component base="T"/>
	</outline>
</glyph>
<glyph name="tbar" format="2">
	<advance width="416"/>
	<unicode hex="0167"/>
	<outline>
		<contour>
			<point x="280" y="300" type="line"/>
			<point x="25" y="300" type="line"/>
			<point x="25" y="270" type="line"/>
			<point x="280" y="270" type="line"/>
		</contour>
		<component base="t"/>
	</outline>
</glyph>
<glyph name="circumflex" format="2">
	<advance width="301"/>
	<unicode hex="02C6"/>
	<outline>
		<contour>
			<point x="141" y="700" type="line"/>
			<point x="40" y="596" type="line"/>
			<point x="61" y="575" type="line"/>
			<point x="146" y="662" type="line"/>
			<point x="163" y="620"/>
			<point x="203" y="584"/>
			<point x="253" y="571" type="curve"/>
			<point x="261" y="600" type="line"/>
			<point x="208" y="614"/>
			<point x="172" y="655"/>
			<point x="170" y="700" type="curve"/>
		</contour>
	</outline>
</glyph>
<glyph name="caron" format="2">
	<advance width="301"/>
	<unicode hex="02C7"/>
	<outline>
		<contour>
			<point x="141" y="571" type="line"/>
			<point x="170" y="571" type="line"/>
			<point x="172" y="616"/>
			<point x="208" y="657"/>
			<point x="261" y="671" type="curve"/>
			<point x="253" y="700" type="line"/>
			<point x="203" y="687"/>
			<point x="163" y="651"/>
			<point x="146" y="609" type="curve"/>
			<point x="61" y="696" type="line"/>
			<point x="40" y="675" type="line"/>
		</contour>
	</outline>
</glyph>
<glyph name="breve" format="2">
	<advance width="316"/>
	<unicode hex="02D8"/>
	<outline>
		<contour>
			<point x="246" y="700" type="line"/>
			<point x="246" y="651"/>
			<point x="205" y="608"/>
			<point x="158" y="608" type="curve" smooth="yes"/>
			<point x="111" y="608"/>
			<point x="70" y="651"/>
			<point x="70" y="700" type="curve"/>
			<point x="40" y="700" type="line"/>
			<point x="40" y="635"/>
			<point x="95" y="578"/>
			<point x="158" y="578" type="curve" smooth="yes"/>
			<point x="222" y="578"/>
			<point x="276" y="634"/>
			<point x="276" y="700" type="curve"/>
		</contour>
	</outline>
</glyph>
<glyph name="ring" format="2">
	<advance width="210"/>
	<unicode hex="02DA"/>
	<outline>
		<contour>
			<point x="105" y="700" type="curve" smooth="yes"/>
			<point x="68" y="700"/>
			<point x="40" y="670"/>
			<point x="40" y="631" type="curve" smooth="yes"/>
			<point x="40" y="592"/>
			<point x="68" y="562"/>
			<point x="105" y="562" type="curve" smooth="yes"/>
			<point x="142" y="562"/>
			<point x="170" y="592"/>
			<point x="170" y="631" type="curve" smooth="yes"/>
			<point x="170" y="670"/>
			<point x="142" y="700"/>
		</contour>
		<contour>
			<point x="105" y="670" type="curve" smooth="yes"/>
			<point x="125" y="670"/>
			<point x="140" y="653"/>
			<point x="140" y="631" type="curve" smooth="yes"/>
			<point x="140" y="609"/>
			<point x="125" y="592"/>
			<point x="105" y="592" type="curve" smooth="yes"/>
			<point x="85" y="592"/>
			<point x="70" y="609"/>
			<point x="70" y="631" type="curve" smooth="yes"/>
			<point x="70" y="653"/>
			<point x="85" y="670"/>
		</contour>
	</outline>
</glyph>
<glyph name="ogonek" format="2">
	<advance width="248"/>
	<unicode hex="02DB"/>
	<outline>
		<contour>
			<point x="177" y="-147" type="line"/>
			<point x="183" y="-193"/>
			<point x="140" y="-224"/>
			<point x="99" y="-202" type="curve" smooth="yes"/>
			<point x="75" y="-189"/>
			<point x="65" y="-155"/>
			<point x="73" y="-113" type="curve" smooth="yes"/>
			<point x="80" y="-78"/>
			<point x="97" y="-49"/>
			<point x="137" y="-2" type="curve"/>
			<point x="114" y="17" type="line"/>
			<point x="80" y="-23"/>
			<point x="53" y="-60"/>
			<point x="44" y="-107" type="curve" smooth="yes"/>
			<point x="33" y="-162"/>
			<point x="48" y="-208"/>
			<point x="85" y="-228" type="curve" smooth="yes"/>
			<point x="147" y="-262"/>
			<point x="215" y="-213"/>
			<point x="207" y="-143" type="curve"/>
		</contour>
	</outline>
</glyph>
<glyph name="tilde" format="2">
	<advance width="317"/>
	<unicode hex="02DC"/>
	<outline>
		<contour>
			<point x="247" y="665" type="line"/>
			<point x="247" y="637"/>
			<point x="225" y="616"/>
			<point x="200" y="621" type="curve" smooth="yes"/>
			<point x="192" y="623"/>
			<point x="185" y="629"/>
			<point x="169" y="647" type="curve" smooth="yes"/>
			<point x="158" y="659"/>
			<point x="145" y="674"/>
			<point x="128" y="679" type="curve" smooth="yes"/>
			<point x="83" y="692"/>
			<point x="40" y="658"/>
			<point x="40" y="607" type="curve"/>
			<point x="70" y="607" type="line"/>
			<point x="70" y="637"/>
			<point x="94" y="658"/>
			<point x="120" y="650" type="curve" smooth="yes"/>
			<point x="139" y="645"/>
			<point x="157" y="598"/>
			<point x="195" y="591" type="curve" smooth="yes"/>
			<point x="237" y="583"/>
			<point x="277" y="618"/>
			<point x="277" y="665" type="curve"/>
		</contour>
	</outline>
</glyph>
<glyph name="hungarumlaut" format="2">
	<advance width="322"/>
	<unicode hex="02DD"/>
	<outline>
		<contour>
			<point x="40" y="567" type="line"/>
			<point x="114" y="559"/>
			<point x="171" y="622"/>
			<point x="154" y="700" type="curve"/>
			<point x="109" y="700" type="line"/>
			<point x="109" y="669" type="line"/>
			<point x="127" y="669" type="line"/>
			<point x="125" y="624"/>
			<point x="89" y="592"/>
			<point x="44" y="597" type="curve"/>
		</contour>
		<contour>
			<point x="165" y="567" type="line"/>
			<point x="239" y="559"/>
			<point x="296" y="622"/>
			<point x="279" y="700" type="curve"/>
			<point x="234" y="700" type="line"/>
			<point x="234" y="669" type="line"/>
			<point x="252" y="669" type="line"/>
			<point x="250" y="624"/>
			<point x="214" y="592"/>
			<point x="169" y="597" type="curve"/>
		</contour>
	</outline>
</glyph>
<glyph name="macroncomb" format="2">
	<advance width="286"/>
	<unicode hex="0304"/>
	<outline>
		<contour>
			<point x="246" y="622" type="line"/>
			<point x="40" y="622" type="line"/>
			<point x="40" y="592" type="line"/>
			<point x="246" y="592" type="line"/>
		</contour>
	</outline>
</glyph>
<glyph name="dotaccentcomb" format="2">
	<advance width="165"/>
	<unicode hex="0307"/>
	<outline>
		<contour>
			<point x="84" y="572" type="line"/>
			<point x="119" y="605"/>
			<point x="134" y="659"/>
			<point x="120" y="700" type="curve"/>
			<point x="40" y="700" type="line"/>
			<point x="40" y="670" type="line"/>
			<point x="95" y="670" type="line"/>
			<point x="96" y="643"/>
			<point x="84" y="614"/>
			<point x="63" y="594" type="curve"/>
		</contour>
	</outline>
</glyph>
<glyph name="commaturnedabovecomb" format="2">
	<advance width="161"/>
	<unicode hex="0312"/>
	<outline>
		<contour>
			<point x="76" y="725" type="line"/>
			<point x="45" y="674"/>
			<point x="34" y="615"/>
			<point x="44" y="560" type="curve"/>
			<point x="121" y="560" type="line"/>
			<point x="121" y="590" type="line"/>
			<point x="71" y="590" type="line"/>
			<point x="69" y="630"/>
			<point x="79" y="672"/>
			<point x="102" y="710" type="curve"/>
		</contour>
	</outline>
</glyph>
<glyph name="commaaccentcomb" format="2">
	<advance width="161"/>
	<unicode hex="0326"/>
	<outline>
		<contour>
			<point x="85" y="-221" type="line"/>
			<point x="116" y="-170"/>
			<point x="127" y="-111"/>
			<point x="117" y="-56" type="curve"/>
			<point x="40" y="-56" type="line"/>
			<point x="40" y="-86" type="line"/>
			<point x="90" y="-86" type="line"/>
			<point x="92" y="-126"/>
			<point x="82" y="-168"/>
			<point x="59" y="-206" type="curve"/>
		</contour>
	</outline>
</glyph>
<glyph name="cedillacomb" format="2">
	<advance width="210"/>
	<unicode hex="0327"/>
	<outline>
		<contour>
			<point x="57" y="-86" type="line"/>
			<point x="80" y="-73"/>
			<point x="103" y="-77"/>
			<point x="114" y="-84" type="curve" smooth="yes"/>
			<point x="133" y="-95"/>
			<point x="142" y="-115"/>
			<point x="139" y="-140" type="curve" smooth="yes"/>
			<point x="135" y="-181"/>
			<point x="96" y="-206"/>
			<point x="60" y="-198" type="curve"/>
			<point x="51" y="-227" type="line"/>
			<point x="105" y="-241"/>
			<point x="163" y="-203"/>
			<point x="169" y="-143" type="curve" smooth="yes"/>
			<point x="173" y="-107"/>
			<point x="159" y="-76"/>
			<point x="129" y="-58" type="curve" smooth="yes"/>
			<point x="115" y="-50"/>
			<point x="98" y="-47"/>
			<point x="81" y="-48" type="curve"/>
			<point x="102" y="1" type="line"/>
			<point x="74" y="12" type="line"/>
			<point x="40" y="-67" type="line"/>
		</contour>
	</outline>
</glyph>
<glyph name="Germandbls" format="2">
	<advance width="533"/>
	<unicode hex="1E9E"/>
	<outline>
		<contour>
			<point x="263" y="402" type="line"/>
			<point x="369" y="412"/>
			<point x="466" y="344"/>
			<point x="482" y="247" type="curve" smooth="yes"/>
			<point x="502" y="135"/>
			<point x="426" y="30"/>
			<point x="325" y="30" type="curve" smooth="yes"/>
			<point x="277" y="30"/>
			<point x="233" y="51"/>
			<point x="198" y="90" type="curve"/>
			<point x="176" y="70" type="line"/>
			<point x="215" y="25"/>
			<point x="269" y="0"/>
			<point x="325" y="0" type="curve" smooth="yes"/>
			<point x="446" y="0"/>
			<point x="535" y="122"/>
			<point x="512" y="252" type="curve" smooth="yes"/>
			<point x="494" y="354"/>
			<point x="402" y="429"/>
			<point x="294" y="433" type="curve"/>
			<point x="484" y="618" type="line"/>
			<point x="429" y="678"/>
			<point x="347" y="708"/>
			<point x="255" y="700" type="curve" smooth="yes"/>
			<point x="135" y="690"/>
			<point x="35" y="591"/>
			<point x="35" y="480" type="curve" smooth="yes"/>
			<point x="35" y="103" type="line" smooth="yes"/>
			<point x="35" y="44"/>
			<point x="71" y="-1"/>
			<point x="118" y="-1" type="curve"/>
			<point x="118" y="29" type="line"/>
			<point x="88" y="29"/>
			<point x="65" y="60"/>
			<point x="65" y="103" type="curve" smooth="yes"/>
			<point x="65" y="480" type="line" smooth="yes"/>
			<point x="65" y="575"/>
			<point x="152" y="661"/>
			<point x="257" y="670" type="curve" smooth="yes"/>
			<point x="330" y="676"/>
			<point x="393" y="658"/>
			<point x="441" y="618" type="curve"/>
			<point x="246" y="428" type="line"/>
		</contour>
	</outline>
</glyph>
<glyph name="endash" format="2">
	<advance width="495"/>
	<unicode hex="2013"/>
	<outline>
		<contour>
			<point x="435" y="280" type="line"/>
			<point x="60" y="280" type="line"/>
			<point x="60" y="250" type="line"/>
			<point x="435" y="250" type="line"/>
		</contour>
	</outline>
</glyph>
<glyph name="quoteleft" format="2">
	<advance width="288"/>
	<unicode hex="2018"/>
	<outline>
		<contour>
			<point x="157" y="790" type="line"/>
			<point x="89" y="694"/>
			<point x="65" y="584"/>
			<point x="89" y="474" type="curve"/>
			<point x="203" y="474" type="line"/>
			<point x="203" y="504" type="line"/>
			<point x="114" y="504" type="line"/>
			<point x="99" y="598"/>
			<point x="122" y="690"/>
			<point x="182" y="773" type="curve"/>
		</contour>
	</outline>
</glyph>
<glyph name="quoteright" format="2">
	<advance width="288"/>
	<unicode hex="2019"/>
	<outline>
		<contour>
			<point x="131" y="474" type="line"/>
			<point x="199" y="570"/>
			<point x="223" y="680"/>
			<point x="199" y="790" type="curve"/>
			<point x="85" y="790" type="line"/>
			<point x="85" y="760" type="line"/>
			<point x="174" y="760" type="line"/>
			<point x="189" y="666"/>
			<point x="166" y="574"/>
			<point x="106" y="491" type="curve"/>
		</contour>
	</outline>
</glyph>
<glyph name="quotedblleft" format="2">
	<advance width="452"/>
	<unicode hex="201C"/>
	<outline>
		<contour>
			<point x="157" y="790" type="line"/>
			<point x="89" y="694"/>
			<point x="65" y="584"/>
			<point x="89" y="474" type="curve"/>
			<point x="203" y="474" type="line"/>
			<point x="203" y="504" type="line"/>
			<point x="114" y="504" type="line"/>
			<point x="99" y="598"/>
			<point x="122" y="690"/>
			<point x="182" y="773" type="curve"/>
		</contour>
		<contour>
			<point x="321" y="790" type="line"/>
			<point x="253" y="694"/>
			<point x="229" y="584"/>
			<point x="253" y="474" type="curve"/>
			<point x="367" y="474" type="line"/>
			<point x="367" y="504" type="line"/>
			<point x="278" y="504" type="line"/>
			<point x="263" y="598"/>
			<point x="286" y="690"/>
			<point x="346" y="773" type="curve"/>
		</contour>
	</outline>
</glyph>
<glyph name="quotedblright" format="2">
	<advance width="452"/>
	<unicode hex="201D"/>
	<outline>
		<contour>
			<point x="131" y="474" type="line"/>
			<point x="199" y="570"/>
			<point x="223" y="680"/>
			<point x="199" y="790" type="curve"/>
			<point x="85" y="790" type="line"/>
			<point x="85" y="760" type="line"/>
			<point x="174" y="760" type="line"/>
			<point x="189" y="666"/>
			<point x="166" y="574"/>
			<point x="106" y="491" type="curve"/>
		</contour>
		<contour>
			<point x="295" y="474" type="line"/>
			<point x="363" y="570"/>
			<point x="387" y="680"/>
			<point x="363" y="790" type="curve"/>
			<point x="249" y="790" type="line"/>
			<point x="249" y="760" type="line"/>
			<point x="338" y="760" type="line"/>
			<point x="353" y="666"/>
			<point x="330" y="574"/>
			<point x="270" y="491" type="curve"/>
		</contour>
	</outline>
</glyph>
<glyph name="dagger" format="2">
	<advance width="410"/>
	<unicode hex="2020"/>
	<outline>
		<contour>
			<point x="220" y="362" type="line"/>
			<point x="220" y="790" type="line"/>
			<point x="190" y="790" type="line"/>
			<point x="190" y="362" type="line"/>
		</contour>
		<contour>
			<point x="365" y="655" type="line"/>
			<point x="45" y="655" type="line"/>
			<point x="45" y="625" type="line"/>
			<point x="365" y="625" type="line"/>
		</contour>
	</outline>
</glyph>
<glyph name="daggerdbl" format="2">
	<advance width="410"/>
	<unicode hex="2021"/>
	<outline>
		<contour>
			<point x="220" y="362" type="line"/>
			<point x="220" y="790" type="line"/>
			<point x="190" y="790" type="line"/>
			<point x="190" y="362" type="line"/>
		</contour>
		<contour>
			<point x="365" y="655" type="line"/>
			<point x="45" y="655" type="line"/>
			<point x="45" y="625" type="line"/>
			<point x="365" y="625" type="line"/>
		</contour>
		<contour>
			<point x="365" y="512" type="line"/>
			<point x="45" y="512" type="line"/>
			<point x="45" y="482" type="line"/>
			<point x="365" y="482" type="line"/>
		</contour>
	</outline>
</glyph>
<glyph name="bullet" format="2">
	<advance width="325"/>
	<unicode hex="2022"/>
	<outline>
		<contour>
			<point x="134" y="197" type="line"/>
			<point x="217" y="244"/>
			<point x="261" y="341"/>
			<point x="240" y="435" type="curve"/>
			<point x="60" y="435" type="line"/>
			<point x="60" y="405" type="line"/>
			<point x="214" y="405" type="line"/>
			<point x="221" y="331"/>
			<point x="184" y="260"/>
			<point x="119" y="223" type="curve"/>
		</contour>
	</outline>
</glyph>
<glyph name="perthousand" format="2">
	<advance width="848"/>
	<unicode hex="2030"/>
	<outline>
		<contour>
			<point x="492" y="700" type="line"/>
			<point x="47" y="16" type="line"/>
			<point x="72" y="0" type="line"/>
			<point x="518" y="684" type="line"/>
		</contour>
		<contour>
			<point x="168" y="700" type="curve" smooth="yes"/>
			<point x="98" y="700"/>
			<point x="45" y="645"/>
			<point x="45" y="545" type="curve" smooth="yes"/>
			<point x="45" y="448"/>
			<point x="97" y="374"/>
			<point x="168" y="374" type="curve" smooth="yes"/>
			<point x="240" y="374"/>
			<point x="290" y="446"/>
			<point x="290" y="545" type="curve" smooth="yes"/>
			<point x="290" y="647"/>
			<point x="240" y="700"/>
		</contour>
		<contour>
			<point x="168" y="670" type="curve" smooth="yes"/>
			<point x="222" y="670"/>
			<point x="260" y="627"/>
			<point x="260" y="545" type="curve" smooth="yes"/>
			<point x="260" y="463"/>
			<point x="222" y="404"/>
			<point x="168" y="404" type="curve" smooth="yes"/>
			<point x="115" y="404"/>
			<point x="75" y="465"/>
			<point x="75" y="545" type="curve" smooth="yes"/>
			<point x="75" y="627"/>
			<point x="115" y="670"/>
		</contour>
		<contour>
			<point x="396" y="326" type="curve" smooth="yes"/>
			<point x="326" y="326"/>
			<point x="273" y="271"/>
			<point x="273" y="171" type="curve" smooth="yes"/>
			<point x="273" y="74"/>
			<point x="325" y="0"/>
			<point x="396" y="0" type="curve" smooth="yes"/>
			<point x="468" y="0"/>
			<point x="518" y="72"/>
			<point x="518" y="171" type="curve" smooth="yes"/>
			<point x="518" y="273"/>
			<point x="468" y="326"/>
		</contour>
		<contour>
			<point x="396" y="296" type="curve" smooth="yes"/>
			<point x="450" y="296"/>
			<point x="488" y="253"/>
			<point x="488" y="171" type="curve" smooth="yes"/>
			<point x="488" y="89"/>
			<point x="450" y="30"/>
			<point x="396" y="30" type="curve" smooth="yes"/>
			<point x="343" y="30"/>
			<point x="303" y="91"/>
			<point x="303" y="171" type="curve" smooth="yes"/>
			<point x="303" y="253"/>
			<point x="343" y="296"/>
		</contour>
		<contour>
			<point x="676" y="326" type="curve" smooth="yes"/>
			<point x="606" y="326"/>
			<point x="553" y="271"/>
			<point x="553" y="171" type="curve" smooth="yes"/>
			<point x="553" y="74"/>
			<point x="605" y="0"/>
			<point x="676" y="0" type="curve" smooth="yes"/>
			<point x="748" y="0"/>
			<point x="798" y="72"/>
			<point x="798" y="171" type="curve" smooth="yes"/>
			<point x="798" y="273"/>
			<point x="748" y="326"/>
		</contour>
		<contour>
			<point x="676" y="296" type="curve" smooth="yes"/>
			<point x="730" y="296"/>
			<point x="768" y="253"/>
			<point x="768" y="171" type="curve" smooth="yes"/>
			<point x="768" y="89"/>
			<point x="730" y="30"/>
			<point x="676" y="30" type="curve" smooth="yes"/>
			<point x="623" y="30"/>
			<point x="583" y="91"/>
			<point x="583" y="171" type="curve" smooth="yes"/>
			<point x="583" y="253"/>
			<point x="623" y="296"/>
		</contour>
	</outline>
</glyph>
<glyph name="guilsinglleft" format="2">
	<advance width="365"/>
	<unicode hex="2039"/>
	<outline>
		<contour>
			<point x="300" y="21" type="line"/>
			<point x="68" y="250" type="line"/>
			<point x="300" y="479" type="line"/>
			<point x="279" y="500" type="line"/>
			<point x="25" y="250" type="line"/>
			<point x="279" y="0" type="line"/>
		</contour>
	</outline>
</glyph>
<glyph name="guilsinglright" format="2">
	<advance width="365"/>
	<unicode hex="203A"/>
	<outline>
		<contour>
			<point x="65" y="21" type="line"/>
			<point x="86" y="0" type="line"/>
			<point x="340" y="250" type="line"/>
			<point x="86" y="500" type="line"/>
			<point x="65" y="479" type="line"/>
			<point x="297" y="250" type="line"/>
		</contour>
	</outline>
</glyph>
<glyph name="fraction" format="2">
	<advance width="566"/>
	<unicode hex="2044"/>
	<outline>
		<contour>
			<point x="490" y="700" type="line"/>
			<point x="45" y="16" type="line"/>
			<point x="70" y="0" type="line"/>
			<point x="516" y="684" type="line"/>
		</contour>
	</outline>
</glyph>
<glyph name="euro" format="2">
	<advance width="619"/>
	<unicode hex="20AC"/>
	<outline>
		<contour>
			<point x="583" y="92" type="line"/>
			<point x="521" y="47"/>
			<point x="449" y="24"/>
			<point x="387" y="30" type="curve" smooth="yes"/>
			<point x="238" y="45"/>
			<point x="124" y="185"/>
			<point x="124" y="350" type="curve" smooth="yes"/>
			<point x="124" y="519"/>
			<point x="238" y="660"/>
			<point x="386" y="670" type="curve" smooth="yes"/>
			<point x="460" y="675"/>
			<point x="529" y="653"/>
			<point x="583" y="609" type="curve"/>
			<point x="602" y="632" type="line"/>
			<point x="543" y="681"/>
			<point x="465" y="705"/>
			<point x="384" y="700" type="curve" smooth="yes"/>
			<point x="220" y="689"/>
			<point x="94" y="535"/>
			<point x="94" y="350" type="curve" smooth="yes"/>
			<point x="94" y="170"/>
			<point x="220" y="17"/>
			<point x="384" y="0" type="curve" smooth="yes"/>
			<point x="454" y="-7"/>
			<point x="534" y="18"/>
			<point x="601" y="68" type="curve"/>
		</contour>
		<contour>
			<point x="523" y="470" type="line"/>
			<point x="40" y="470" type="line"/>
			<point x="40" y="440" type="line"/>
			<point x="523" y="440" type="line"/>
		</contour>
		<contour>
			<point x="523" y="295" type="line"/>
			<point x="40" y="295" type="line"/>
			<point x="40" y="265" type="line"/>
			<point x="523" y="265" type="line"/>
		</contour>
	</outline>
</glyph>
<glyph name="leftArrow" format="2">
	<advance width="776"/>
	<unicode hex="2190"/>
	<outline>
		<contour>
			<point x="414" y="614" type="line"/>
			<point x="321" y="482"/>
			<point x="192" y="396"/>
			<point x="45" y="365" type="curve"/>
			<point x="45" y="335" type="line"/>
			<point x="741" y="335" type="line"/>
			<point x="741" y="365" type="line"/>
			<point x="49" y="365" type="line"/>
			<point x="52" y="335" type="line"/>
			<point x="206" y="368"/>
			<point x="342" y="459"/>
			<point x="439" y="596" type="curve"/>
		</contour>
		<contour>
			<point x="439" y="105" type="line"/>
			<point x="341" y="235"/>
			<point x="206" y="326"/>
			<point x="52" y="365" type="curve"/>
			<point x="45" y="335" type="line"/>
			<point x="193" y="298"/>
			<point x="321" y="212"/>
			<point x="415" y="87" type="curve"/>
		</contour>
	</outline>
</glyph>
<glyph name="upArrow" format="2">
	<advance width="599"/>
	<unicode hex="2191"/>
	<outline>
		<contour>
			<point x="310" y="0" type="line"/>
			<point x="310" y="700" type="line"/>
			<point x="280" y="700" type="line"/>
			<point x="250" y="551"/>
			<point x="164" y="422"/>
			<point x="35" y="328" type="curve"/>
			<point x="53" y="304" type="line"/>
			<point x="188" y="402"/>
			<point x="277" y="538"/>
			<point x="310" y="694" type="curve"/>
			<point x="280" y="697" type="line"/>
			<point x="280" y="0" type="line"/>
		</contour>
		<contour>
			<point x="280" y="693" type="line"/>
			<point x="319" y="540"/>
			<point x="409" y="404"/>
			<point x="536" y="306" type="curve"/>
			<point x="554" y="330" type="line"/>
			<point x="432" y="424"/>
			<point x="346" y="553"/>
			<point x="310" y="700" type="curve"/>
		</contour>
	</outline>
</glyph>
<glyph name="rightArrow" format="2">
	<advance width="775"/>
	<unicode hex="2192"/>
	<outline>
		<contour>
			<point x="35" y="335" type="line"/>
			<point x="730" y="335" type="line"/>
			<point x="730" y="365" type="line"/>
			<point x="583" y="396"/>
			<point x="455" y="482"/>
			<point x="362" y="614" type="curve"/>
			<point x="337" y="596" type="line"/>
			<point x="434" y="459"/>
			<point x="570" y="368"/>
			<point x="724" y="335" type="curve"/>
			<point x="727" y="365" type="line"/>
			<point x="35" y="365" type="line"/>
		</contour>
		<contour>
			<point x="724" y="365" type="line"/>
			<point x="570" y="326"/>
			<point x="435" y="235"/>
			<point x="337" y="105" type="curve"/>
			<point x="361" y="87" type="line"/>
			<point x="455" y="212"/>
			<point x="582" y="298"/>
			<point x="730" y="335" type="curve"/>
		</contour>
	</outline>
</glyph>
<glyph name="downArrow" format="2">
	<advance width="599"/>
	<unicode hex="2193"/>
	<outline>
		<contour>
			<point x="35" y="372" type="line"/>
			<point x="164" y="278"/>
			<point x="250" y="149"/>
			<point x="280" y="0" type="curve"/>
			<point x="310" y="0" type="line"/>
			<point x="310" y="700" type="line"/>
			<point x="280" y="700" type="line"/>
			<point x="280" y="3" type="line"/>
			<point x="310" y="6" type="line"/>
			<point x="277" y="162"/>
			<point x="188" y="298"/>
			<point x="53" y="396" type="curve"/>
		</contour>
		<contour>
			<point x="536" y="394" type="line"/>
			<point x="409" y="296"/>
			<point x="319" y="160"/>
			<point x="280" y="7" type="curve"/>
			<point x="310" y="0" type="line"/>
			<point x="346" y="147"/>
			<point x="432" y="276"/>
			<point x="554" y="370" type="curve"/>
		</contour>
	</outline>
</glyph>
<glyph name="leftRightArrow" format="2">
	<advance width="798"/>
	<unicode hex="2194"/>
	<outline>
		<contour>
			<point x="292" y="612" type="line"/>
			<point x="236" y="507"/>
			<point x="149" y="421"/>
			<point x="45" y="364" type="curve"/>
			<point x="45" y="336" type="line"/>
			<point x="753" y="336" type="line"/>
			<point x="753" y="363" type="line"/>
			<point x="654" y="420"/>
			<point x="568" y="507"/>
			<point x="506" y="613" type="curve"/>
			<point x="480" y="597" type="line"/>
			<point x="545" y="487"/>
			<point x="635" y="396"/>
			<point x="738" y="337" type="curve"/>
			<point x="745" y="366" type="line"/>
			<point x="53" y="366" type="line"/>
			<point x="60" y="337" type="line"/>
			<point x="169" y="396"/>
			<point x="260" y="487"/>
			<point x="318" y="598" type="curve"/>
		</contour>
		<contour>
			<point x="737" y="363" type="line"/>
			<point x="635" y="299"/>
			<point x="545" y="208"/>
			<point x="480" y="104" type="curve"/>
			<point x="506" y="88" type="line"/>
			<point x="568" y="189"/>
			<point x="655" y="275"/>
			<point x="753" y="336" type="curve"/>
		</contour>
		<contour>
			<point x="45" y="336" type="line"/>
			<point x="149" y="275"/>
			<point x="236" y="189"/>
			<point x="292" y="89" type="curve"/>
			<point x="318" y="103" type="line"/>
			<point x="259" y="208"/>
			<point x="169" y="299"/>
			<point x="60" y="363" type="curve"/>
		</contour>
	</outline>
</glyph>
<glyph name="upDownArrow" format="2">
	<advance width="607"/>
	<unicode hex="2195"/>
	<outline>
		<contour>
			<point x="46" y="246" type="line"/>
			<point x="150" y="190"/>
			<point x="235" y="104"/>
			<point x="291" y="0" type="curve"/>
			<point x="317" y="0" type="line"/>
			<point x="317" y="700" type="line"/>
			<point x="291" y="700" type="line"/>
			<point x="235" y="601"/>
			<point x="149" y="515"/>
			<point x="45" y="453" type="curve"/>
			<point x="60" y="427" type="line"/>
			<point x="169" y="492"/>
			<point x="259" y="582"/>
			<point x="317" y="685" type="curve"/>
			<point x="289" y="693" type="line"/>
			<point x="289" y="7" type="line"/>
			<point x="317" y="14" type="line"/>
			<point x="259" y="124"/>
			<point x="169" y="214"/>
			<point x="60" y="273" type="curve"/>
		</contour>
		<contour>
			<point x="291" y="684" type="line"/>
			<point x="357" y="584"/>
			<point x="447" y="495"/>
			<point x="546" y="432" type="curve"/>
			<point x="562" y="458" type="line"/>
			<point x="467" y="518"/>
			<point x="380" y="604"/>
			<point x="317" y="700" type="curve"/>
		</contour>
		<contour>
			<point x="317" y="0" type="line"/>
			<point x="379" y="101"/>
			<point x="466" y="187"/>
			<point x="562" y="242" type="curve"/>
			<point x="547" y="268" type="line"/>
			<point x="447" y="210"/>
			<point x="356" y="121"/>
			<point x="291" y="15" type="curve"/>
		</contour>
	</outline>
</glyph>
<glyph name="northWestArrow" format="2">
	<advance width="616"/>
	<unicode hex="2196"/>
	<outline>
		<contour>
			<point x="515" y="500" type="line"/>
			<point x="349" y="488"/>
			<point x="201" y="523"/>
			<point x="81" y="602" type="curve"/>
			<point x="60" y="582" type="line"/>
			<point x="550" y="84" type="line"/>
			<point x="571" y="106" type="line"/>
			<point x="81" y="602" type="line"/>
			<point x="64" y="578" type="line"/>
			<point x="190" y="494"/>
			<point x="346" y="457"/>
			<point x="517" y="470" type="curve"/>
		</contour>
		<contour>
			<point x="176" y="138" type="line"/>
			<point x="198" y="300"/>
			<point x="167" y="460"/>
			<point x="86" y="598" type="curve"/>
			<point x="60" y="582" type="line"/>
			<point x="138" y="451"/>
			<point x="168" y="297"/>
			<point x="147" y="142" type="curve"/>
		</contour>
	</outline>
</glyph>
<glyph name="northEastArrow" format="2">
	<advance width="616"/>
	<unicode hex="2197"/>
	<outline>
		<contour>
			<point x="66" y="84" type="line"/>
			<point x="556" y="582" type="line"/>
			<point x="534" y="602" type="line"/>
			<point x="414" y="523"/>
			<point x="267" y="488"/>
			<point x="101" y="500" type="curve"/>
			<point x="99" y="470" type="line"/>
			<point x="270" y="457"/>
			<point x="426" y="494"/>
			<point x="552" y="578" type="curve"/>
			<point x="533" y="601" type="line"/>
			<point x="45" y="106" type="line"/>
		</contour>
		<contour>
			<point x="530" y="598" type="line"/>
			<point x="449" y="460"/>
			<point x="418" y="300"/>
			<point x="440" y="138" type="curve"/>
			<point x="469" y="142" type="line"/>
			<point x="448" y="297"/>
			<point x="478" y="451"/>
			<point x="556" y="582" type="curve"/>
		</contour>
	</outline>
</glyph>
<glyph name="southEastArrow" format="2">
	<advance width="616"/>
	<unicode hex="2198"/>
	<outline>
		<contour>
			<point x="45" y="533" type="line"/>
			<point x="535" y="36" type="line"/>
			<point x="556" y="57" type="line"/>
			<point x="474" y="185"/>
			<point x="444" y="337"/>
			<point x="469" y="495" type="curve"/>
			<point x="440" y="500" type="line"/>
			<point x="414" y="335"/>
			<point x="445" y="174"/>
			<point x="531" y="41" type="curve"/>
			<point x="554" y="60" type="line"/>
			<point x="66" y="555" type="line"/>
		</contour>
		<contour>
			<point x="551" y="62" type="line"/>
			<point x="416" y="145"/>
			<point x="258" y="177"/>
			<point x="99" y="155" type="curve"/>
			<point x="103" y="125" type="line"/>
			<point x="256" y="147"/>
			<point x="406" y="116"/>
			<point x="535" y="36" type="curve"/>
		</contour>
	</outline>
</glyph>
<glyph name="southWestArrow" format="2">
	<advance width="591"/>
	<unicode hex="2199"/>
	<outline>
		<contour>
			<point x="132" y="495" type="line"/>
			<point x="157" y="337"/>
			<point x="127" y="185"/>
			<point x="45" y="57" type="curve"/>
			<point x="66" y="36" type="line"/>
			<point x="556" y="533" type="line"/>
			<point x="535" y="555" type="line"/>
			<point x="47" y="60" type="line"/>
			<point x="70" y="41" type="line"/>
			<point x="156" y="174"/>
			<point x="187" y="335"/>
			<point x="161" y="500" type="curve"/>
		</contour>
		<contour>
			<point x="502" y="155" type="line"/>
			<point x="343" y="177"/>
			<point x="185" y="145"/>
			<point x="50" y="62" type="curve"/>
			<point x="66" y="36" type="line"/>
			<point x="195" y="116"/>
			<point x="345" y="147"/>
			<point x="498" y="125" type="curve"/>
		</contour>
	</outline>
</glyph>
<glyph name="partialdiff" format="2">
	<advance width="580"/>
	<unicode hex="2202"/>
	<outline>
		<contour>
			<point x="165" y="650" type="line"/>
			<point x="217" y="697"/>
			<point x="295" y="708"/>
			<point x="365" y="679" type="curve" smooth="yes"/>
			<point x="481" y="630"/>
			<point x="528" y="482"/>
			<point x="494" y="282" type="curve" smooth="yes"/>
			<point x="464" y="119"/>
			<point x="344" y="7"/>
			<point x="220" y="30" type="curve" smooth="yes"/>
			<point x="103" y="49"/>
			<point x="32" y="168"/>
			<point x="70" y="280" type="curve" smooth="yes"/>
			<point x="98" y="369"/>
			<point x="189" y="420"/>
			<point x="286" y="404" type="curve" smooth="yes"/>
			<point x="390" y="385"/>
			<point x="466" y="305"/>
			<point x="474" y="208" type="curve"/>
			<point x="504" y="210" type="line"/>
			<point x="494" y="321"/>
			<point x="408" y="412"/>
			<point x="291" y="433" type="curve" smooth="yes"/>
			<point x="179" y="452"/>
			<point x="74" y="393"/>
			<point x="41" y="289" type="curve" smooth="yes"/>
			<point x="-2" y="159"/>
			<point x="80" y="22"/>
			<point x="214" y="0" type="curve" smooth="yes"/>
			<point x="356" y="-26"/>
			<point x="491" y="97"/>
			<point x="523" y="277" type="curve" smooth="yes"/>
			<point x="560" y="491"/>
			<point x="507" y="651"/>
			<point x="376" y="706" type="curve" smooth="yes"/>
			<point x="296" y="740"/>
			<point x="206" y="727"/>
			<point x="145" y="672" type="curve"/>
		</contour>
	</outline>
</glyph>
<glyph name="emptyset" format="2">
	<advance width="586"/>
	<unicode hex="2205"/>
	<outline>
		<contour>
			<point x="293" y="470" type="curve" smooth="yes"/>
			<point x="435" y="471"/>
			<point x="543" y="359"/>
			<point x="524" y="223" type="curve" smooth="yes"/>
			<point x="510" y="119"/>
			<point x="407" y="30"/>
			<point x="293" y="30" type="curve" smooth="yes"/>
			<point x="175" y="30"/>
			<point x="77" y="115"/>
			<point x="62" y="223" type="curve" smooth="yes"/>
			<point x="43" y="354"/>
			<point x="153" y="469"/>
		</contour>
		<contour>
			<point x="293" y="500" type="curve" smooth="yes"/>
			<point x="135" y="499"/>
			<point x="11" y="368"/>
			<point x="32" y="219" type="curve" smooth="yes"/>
			<point x="49" y="96"/>
			<point x="160" y="0"/>
			<point x="293" y="0" type="curve" smooth="yes"/>
			<point x="422" y="0"/>
			<point x="538" y="99"/>
			<point x="554" y="219" type="curve" smooth="yes"/>
			<point x="575" y="373"/>
			<point x="453" y="501"/>
		</contour>
		<contour>
			<point x="529" y="500" type="line"/>
			<point x="36" y="21" type="line"/>
			<point x="57" y="0" type="line"/>
			<point x="550" y="479" type="line"/>
		</contour>
	</outline>
</glyph>
<glyph name="product" format="2">
	<advance width="572"/>
	<unicode hex="220F"/>
	<outline>
		<contour>
			<point x="153" y="700" type="line"/>
			<point x="153" y="-90" type="line"/>
			<point x="183" y="-90" type="line"/>
			<point x="183" y="700" type="line"/>
		</contour>
		<contour>
			<point x="389" y="700" type="line"/>
			<point x="389" y="-90" type="line"/>
			<point x="419" y="-90" type="line"/>
			<point x="419" y="700" type="line"/>
		</contour>
		<contour>
			<point x="532" y="700" type="line"/>
			<point x="40" y="700" type="line"/>
			<point x="40" y="670" type="line"/>
			<point x="532" y="670" type="line"/>
		</contour>
	</outline>
</glyph>
<glyph name="summation" format="2">
	<advance width="512"/>
	<unicode hex="2211"/>
	<outline>
		<contour>
			<point x="457" y="700" type="line"/>
			<point x="40" y="700" type="line"/>
			<point x="244" y="293" type="line"/>
			<point x="40" y="-115" type="line"/>
			<point x="457" y="-115" type="line"/>
			<point x="457" y="-85" type="line"/>
			<point x="89" y="-85" type="line"/>
			<point x="278" y="293" type="line"/>
			<point x="89" y="670" type="line"/>
			<point x="457" y="670" type="line"/>
		</contour>
	</outline>
</glyph>
<glyph name="minus" format="2">
	<advance width="520"/>
	<unicode hex="2212"/>
	<outline>
		<contour>
			<point x="465" y="265" type="line"/>
			<point x="45" y="265" type="line"/>
			<point x="45" y="235" type="line"/>
			<point x="465" y="235" type="line"/>
		</contour>
	</outline>
</glyph>
<glyph name="radical" format="2">
	<advance width="544"/>
	<unicode hex="221A"/>
	<outline>
		<contour>
			<point x="200" y="-290" type="line"/>
			<point x="394" y="760" type="line"/>
			<point x="529" y="760" type="line"/>
			<point x="529" y="790" type="line"/>
			<point x="369" y="790" type="line"/>
			<point x="180" y="-237" type="line"/>
			<point x="52" y="14" type="line"/>
			<point x="25" y="0" type="line"/>
			<point x="173" y="-290" type="line"/>
		</contour>
	</outline>
</glyph>
